<svg id="Lager_1" data-name="Lager 1" xmlns="http://www.w3.org/2000/svg" viewBox="0 0 1170 119.32"><defs><style>.cls-1{fill:#282973;}</style></defs><title>e</title><path class="cls-1" d="M0,3.72H79V26.6H26.17V49.13H67.24V71.31H26.17v25H82.84v23.05H0Z"/><path class="cls-1" d="M100.52,3.72h25l50.09,75v-75h25.82v115.6H177.64l-51.3-76.43v76.43H100.52Z"/><path class="cls-1" d="M283.7,55.71h44.54V105.8a64.65,64.65,0,0,1-21.06,12,82.42,82.42,0,0,1-27.47,4.25,68.61,68.61,0,0,1-25.39-4.42,53.83,53.83,0,0,1-19-12.39,53,53,0,0,1-11.87-19.06,70.38,70.38,0,0,1-4.07-24.44,65.63,65.63,0,0,1,4.33-24.09,57,57,0,0,1,31.2-32.24A61,61,0,0,1,279.2.78q15.77,0,27.64,5.81a53.74,53.74,0,0,1,19.67,16.2L308.83,39.6a51.93,51.93,0,0,0-12.22-10.74q-6.67-4.16-16.38-4.16A32.9,32.9,0,0,0,266,27.64a31.58,31.58,0,0,0-10.57,8,34.54,34.54,0,0,0-6.59,11.79,45.2,45.2,0,0,0-2.25,14.38,41.72,41.72,0,0,0,2.6,15.08,33.25,33.25,0,0,0,7.28,11.53,32.59,32.59,0,0,0,11,7.37,35.88,35.88,0,0,0,13.78,2.6,45.6,45.6,0,0,0,12.65-1.65,28.76,28.76,0,0,0,10.23-5.29V76.86H283.7Z"/><path class="cls-1" d="M382.31,3.72h28.94l42.29,115.6h-28.6L416.11,92.8H375.38l-8.84,26.52H339.16Zm27.56,68.8-14-43.67L381.45,72.53Z"/><path class="cls-1" d="M520.62,55.71h44.54V105.8a64.65,64.65,0,0,1-21.06,12,82.42,82.42,0,0,1-27.47,4.25,68.61,68.61,0,0,1-25.39-4.42,53.83,53.83,0,0,1-19-12.39,53,53,0,0,1-11.87-19.06,70.38,70.38,0,0,1-4.07-24.44,65.63,65.63,0,0,1,4.33-24.09,57,57,0,0,1,31.2-32.24A61,61,0,0,1,516.11.78q15.77,0,27.64,5.81a53.74,53.74,0,0,1,19.67,16.2L545.75,39.6a51.93,51.93,0,0,0-12.22-10.74q-6.67-4.16-16.38-4.16a32.9,32.9,0,0,0-14.21,2.95,31.58,31.58,0,0,0-10.57,8,34.54,34.54,0,0,0-6.59,11.79,45.2,45.2,0,0,0-2.25,14.38,41.72,41.72,0,0,0,2.6,15.08,33.25,33.25,0,0,0,7.28,11.53,32.59,32.59,0,0,0,11,7.37,35.88,35.88,0,0,0,13.78,2.6,45.6,45.6,0,0,0,12.65-1.65,28.76,28.76,0,0,0,10.23-5.29V76.86H520.62Z"/><path class="cls-1" d="M586.12,3.72h79V26.6H612.29V49.13h41.08V71.31H612.29v25H669v23.05H586.12Z"/><path class="cls-1" d="M690.11,3.72h24.78L745,58,774.51,3.72h25l5.37,115.6H778.67l-3.29-75.56L751.46,88.82H737.94l-25.3-44.54-2.95,75h-25Z"/><path class="cls-1" d="M858.56,3.72h28.94l42.29,115.6H901.2L892.36,92.8H851.63l-8.84,26.52H815.41Zm27.56,68.8-14-43.67L857.7,72.53Z"/><path class="cls-1" d="M942.27,3.72h25l50.09,75v-75h25.82v115.6H1019.4L968.1,42.89v76.43H942.27Z"/><path class="cls-1" d="M1125.46,55.71H1170V105.8a64.65,64.65,0,0,1-21.06,12,82.42,82.42,0,0,1-27.47,4.25,68.61,68.61,0,0,1-25.39-4.42,53.83,53.83,0,0,1-19-12.39,53,53,0,0,1-11.87-19.06,70.38,70.38,0,0,1-4.07-24.44,65.63,65.63,0,0,1,4.33-24.09,57,57,0,0,1,31.2-32.24A61,61,0,0,1,1121,.78q15.77,0,27.64,5.81a53.74,53.74,0,0,1,19.67,16.2L1150.59,39.6a51.93,51.93,0,0,0-12.22-10.74q-6.67-4.16-16.38-4.16a32.9,32.9,0,0,0-14.21,2.95,31.58,31.58,0,0,0-10.57,8,34.54,34.54,0,0,0-6.59,11.79,45.2,45.2,0,0,0-2.25,14.38,41.72,41.72,0,0,0,2.6,15.08,33.25,33.25,0,0,0,7.28,11.53,32.59,32.59,0,0,0,11,7.37,35.88,35.88,0,0,0,13.78,2.6,45.6,45.6,0,0,0,12.65-1.65,28.76,28.76,0,0,0,10.23-5.29V76.86h-20.45Z"/></svg>