<svg id="Lager_1" data-name="Lager 1" xmlns="http://www.w3.org/2000/svg" viewBox="0 0 810.18 264.81"><title>logo-text</title><polygon points="114.67 158.89 30.58 110.34 30.58 136.82 91.73 172.13 91.73 198.61 30.58 163.3 30.58 189.78 114.67 238.33 114.67 158.89"/><polygon points="229.33 66.2 114.67 0 76.44 22.07 191.11 88.27 172 132.41 152.89 110.34 38.22 44.13 0 66.2 114.67 132.41 152.89 176.54 114.67 264.81 152.89 242.74 172 198.61 191.11 220.68 229.33 198.61 191.11 154.47 229.33 66.2"/><path d="M268.33,84.53h10V95.76a14.54,14.54,0,0,1-4.72,2.7,18.52,18.52,0,0,1-6.16,1,15.36,15.36,0,0,1-5.69-1,12.07,12.07,0,0,1-4.25-2.78,11.9,11.9,0,0,1-2.66-4.27,15.78,15.78,0,0,1-.91-5.48,14.71,14.71,0,0,1,1-5.4,12.77,12.77,0,0,1,7-7.22,13.67,13.67,0,0,1,5.44-1,13.92,13.92,0,0,1,6.2,1.3,12,12,0,0,1,4.41,3.63l-4,3.77a11.55,11.55,0,0,0-2.74-2.41,6.8,6.8,0,0,0-3.67-.93,7.34,7.34,0,0,0-3.19.66A7.06,7.06,0,0,0,262,80a7.78,7.78,0,0,0-1.48,2.64,10.14,10.14,0,0,0-.5,3.22,9.32,9.32,0,0,0,.58,3.38,7.44,7.44,0,0,0,1.63,2.59,7.32,7.32,0,0,0,2.47,1.65,8,8,0,0,0,3.09.58,10.21,10.21,0,0,0,2.84-.37,6.39,6.39,0,0,0,2.29-1.18V89.27h-4.58Z"/><path d="M282.55,80.57h5.36l.19,2.29A8.3,8.3,0,0,1,290,81.08a5.42,5.42,0,0,1,3.17-.86,8.94,8.94,0,0,1,1.26.08,4.76,4.76,0,0,1,1,.27l-.89,4.93a6.61,6.61,0,0,0-2-.27,4.41,4.41,0,0,0-3.2,1.19,4.46,4.46,0,0,0-1.22,3.36v9h-5.59Z"/><path d="M308,97.08a6.07,6.07,0,0,1-2.35,1.67,8.43,8.43,0,0,1-5.2.31,6,6,0,0,1-2-.91,5,5,0,0,1-1.52-1.73,5.55,5.55,0,0,1-.6-2.72,6.11,6.11,0,0,1,.64-2.84,5.94,5.94,0,0,1,1.77-2.08,8.1,8.1,0,0,1,2.66-1.26,12.35,12.35,0,0,1,3.32-.43c.65,0,1.3,0,2,0a8.21,8.21,0,0,1,1.3.11v-.39a2.26,2.26,0,0,0-.29-1.19,2.55,2.55,0,0,0-.78-.82,3.14,3.14,0,0,0-1.11-.47,6.31,6.31,0,0,0-1.32-.14,8.7,8.7,0,0,0-3.09.47,9.91,9.91,0,0,0-2.08,1L297,82.36a14.74,14.74,0,0,1,1.32-.85,10.15,10.15,0,0,1,1.75-.78,14.09,14.09,0,0,1,2.27-.56,17.5,17.5,0,0,1,2.89-.21q4.16,0,6.14,2.23a8.72,8.72,0,0,1,2,6v10.6h-5.24Zm0-6.33-.74-.09a11.15,11.15,0,0,0-1.24-.06,6.13,6.13,0,0,0-3.3.66,2.13,2.13,0,0,0-1,1.86q0,2.25,2.72,2.25a4.09,4.09,0,0,0,1.3-.21,3.61,3.61,0,0,0,1.13-.6,3.13,3.13,0,0,0,.8-1,2.84,2.84,0,0,0,.31-1.36Z"/><path d="M318.86,85h-3V80.57h3v-.23a8.6,8.6,0,0,1,.8-3.9,6.74,6.74,0,0,1,2.1-2.5,8.46,8.46,0,0,1,3-1.34,14.93,14.93,0,0,1,3.51-.41,16.38,16.38,0,0,1,3.81.48,12.55,12.55,0,0,1,3.61,1.46L333.58,78a14.92,14.92,0,0,0-2.43-1,9.22,9.22,0,0,0-2.74-.43,5.17,5.17,0,0,0-3,.72,2.77,2.77,0,0,0-1,2.47v.82h11.42V98.79h-5.56V85h-5.86V98.79h-5.55Z"/><path d="M342,93.16a7.13,7.13,0,0,0,2.35,1.36,8,8,0,0,0,2.82.54,5.81,5.81,0,0,0,2.06-.31,1.18,1.18,0,0,0,.82-1.2,1.22,1.22,0,0,0-.17-.64,1.66,1.66,0,0,0-.64-.54,8.33,8.33,0,0,0-1.3-.52q-.83-.27-2.12-.62a14,14,0,0,1-2.08-.72,7.53,7.53,0,0,1-1.83-1.11,5.07,5.07,0,0,1-1.28-1.59,5,5,0,0,1,.1-4.49,5.71,5.71,0,0,1,1.61-1.79,7.64,7.64,0,0,1,2.45-1.17,11,11,0,0,1,3.05-.41,14.3,14.3,0,0,1,4.08.52A11.6,11.6,0,0,1,355.1,82l-2.37,3.69a11.9,11.9,0,0,0-2-1,6.82,6.82,0,0,0-2.58-.46,3.62,3.62,0,0,0-1.86.37,1.13,1.13,0,0,0-.58,1c0,.59.4,1,1.2,1.32s1.89.61,3.26,1A8.58,8.58,0,0,1,354.18,90a5.08,5.08,0,0,1,1.26,3.61,4.83,4.83,0,0,1-.68,2.6,5.66,5.66,0,0,1-1.83,1.8,8.66,8.66,0,0,1-2.6,1.07,12.64,12.64,0,0,1-3,.35,15.85,15.85,0,0,1-4.62-.66,8.29,8.29,0,0,1-3.54-2Z"/><path d="M358.83,72.88h5.59V86.32L370,80.57h6.33l-6.53,6.72,7.42,11.5h-6.49l-4.66-7.69-1.63,1.67v6h-5.59Z"/><path d="M398.95,97a6.87,6.87,0,0,1-2.19,1.69,6.67,6.67,0,0,1-3,.68,7.5,7.5,0,0,1-3.13-.66,7.33,7.33,0,0,1-2.52-1.88,9.1,9.1,0,0,1-1.69-3,11.44,11.44,0,0,1-.62-3.9,9.93,9.93,0,0,1,.87-4.29,9.23,9.23,0,0,1,2.25-3.05,9.45,9.45,0,0,1,3.07-1.8,9.86,9.86,0,0,1,3.32-.6,9.38,9.38,0,0,1,2.06.17,14.87,14.87,0,0,1,1.52.45V72.88h5.55V98.79h-5.2Zm-.12-11.38a4.32,4.32,0,0,0-1.26-.51,7.9,7.9,0,0,0-1.69-.15,4.06,4.06,0,0,0-3.32,1.44A5.6,5.6,0,0,0,391.37,90a5.17,5.17,0,0,0,1,3.24,3.44,3.44,0,0,0,2.91,1.26,3.63,3.63,0,0,0,1.61-.33,3.29,3.29,0,0,0,1.13-.87,3.36,3.36,0,0,0,.64-1.28,6,6,0,0,0,.19-1.51Z"/><path d="M425.71,96.81c-.21.13-.52.34-.93.64a8.86,8.86,0,0,1-1.61.88,15,15,0,0,1-2.35.76,13.16,13.16,0,0,1-3.11.33,11.55,11.55,0,0,1-4.19-.72,9.06,9.06,0,0,1-3.17-2,8.43,8.43,0,0,1-2-3.08,11.22,11.22,0,0,1-.68-4,10.7,10.7,0,0,1,.64-3.67,9.16,9.16,0,0,1,1.84-3.09,9,9,0,0,1,3-2.12,9.45,9.45,0,0,1,4-.8,9.11,9.11,0,0,1,3.88.78,8,8,0,0,1,2.82,2.16,9.34,9.34,0,0,1,1.73,3.3,14.46,14.46,0,0,1,.58,4.21v.93h-13a3.48,3.48,0,0,0,1.3,2.58A5.1,5.1,0,0,0,417.9,95a8.34,8.34,0,0,0,3.53-.64,12.2,12.2,0,0,0,2-1.11Zm-4.89-9a3.29,3.29,0,0,0-.23-1.19,3.53,3.53,0,0,0-.7-1.11,3.76,3.76,0,0,0-1.16-.83A3.91,3.91,0,0,0,417,84.3a4.18,4.18,0,0,0-1.71.33,3.87,3.87,0,0,0-1.22.83,3.64,3.64,0,0,0-.74,1.11,3,3,0,0,0-.25,1.19Z"/><path d="M431.15,93.16a7.13,7.13,0,0,0,2.35,1.36,8,8,0,0,0,2.82.54,5.81,5.81,0,0,0,2.06-.31,1.18,1.18,0,0,0,.82-1.2,1.22,1.22,0,0,0-.17-.64,1.66,1.66,0,0,0-.64-.54,8.33,8.33,0,0,0-1.3-.52q-.83-.27-2.12-.62a14,14,0,0,1-2.08-.72A7.53,7.53,0,0,1,431,89.39a5.07,5.07,0,0,1-1.28-1.59,5,5,0,0,1,.1-4.49,5.71,5.71,0,0,1,1.61-1.79,7.64,7.64,0,0,1,2.45-1.17,11,11,0,0,1,3.05-.41,14.3,14.3,0,0,1,4.08.52A11.6,11.6,0,0,1,444.27,82l-2.37,3.69a11.9,11.9,0,0,0-2-1,6.82,6.82,0,0,0-2.58-.46,3.62,3.62,0,0,0-1.86.37,1.13,1.13,0,0,0-.58,1c0,.59.4,1,1.2,1.32s1.89.61,3.26,1A8.58,8.58,0,0,1,443.36,90a5.08,5.08,0,0,1,1.26,3.61,4.83,4.83,0,0,1-.68,2.6,5.66,5.66,0,0,1-1.83,1.8,8.66,8.66,0,0,1-2.6,1.07,12.64,12.64,0,0,1-3,.35,15.85,15.85,0,0,1-4.62-.66,8.29,8.29,0,0,1-3.54-2Z"/><path d="M448,72.88h6v5h-6Zm.19,7.69h5.59V98.79h-5.59Z"/><path d="M461,101.12a10,10,0,0,0,2.31,1,9.3,9.3,0,0,0,2.7.37,4.23,4.23,0,0,0,3-1,3.94,3.94,0,0,0,1.09-3V97.2a6.86,6.86,0,0,1-4.66,1.51,9,9,0,0,1-3.48-.64,7.09,7.09,0,0,1-2.58-1.81,8.05,8.05,0,0,1-1.61-2.76,10.41,10.41,0,0,1-.56-3.5,10.29,10.29,0,0,1,.76-4,9,9,0,0,1,2.14-3.11,9.5,9.5,0,0,1,3.3-2,12.52,12.52,0,0,1,4.29-.7,22.91,22.91,0,0,1,4.29.39,24.64,24.64,0,0,1,3.67,1V98.21q0,4.5-2.49,6.66a10,10,0,0,1-6.8,2.16,17.44,17.44,0,0,1-4.27-.46,10.84,10.84,0,0,1-3.34-1.48Zm9.13-15.92a6.93,6.93,0,0,0-1.09-.29,8.65,8.65,0,0,0-1.44-.1,5,5,0,0,0-2.1.41,4.3,4.3,0,0,0-2.39,2.68,6.3,6.3,0,0,0-.29,1.92,4.83,4.83,0,0,0,1,3.15,3.37,3.37,0,0,0,2.78,1.16,3.81,3.81,0,0,0,2.64-.83,3.34,3.34,0,0,0,.93-2.62Z"/><path d="M479.85,80.57h5.36l.15,2a6.36,6.36,0,0,1,2.35-1.75,7.26,7.26,0,0,1,3-.66,6.69,6.69,0,0,1,5,1.86,7.53,7.53,0,0,1,1.84,5.51V98.79H492V88.3a3.6,3.6,0,0,0-.76-2.41,2.63,2.63,0,0,0-2.12-.89,3.81,3.81,0,0,0-1.63.33,3.47,3.47,0,0,0-1.17.88,3.67,3.67,0,0,0-.7,1.26A5,5,0,0,0,485.4,89v9.79h-5.55Z"/><path d="M523.51,96.65a12.82,12.82,0,0,1-3.44,2.1,10.47,10.47,0,0,1-3.83.66,10.37,10.37,0,0,1-3.51-.57,8.23,8.23,0,0,1-2.7-1.55,6.65,6.65,0,0,1-1.73-2.37,7.47,7.47,0,0,1-.6-3,8.59,8.59,0,0,1,1.2-4.37,10.87,10.87,0,0,1,3.88-3.71,8.53,8.53,0,0,1-1.3-2.47,7.79,7.79,0,0,1-.41-2.39,6.19,6.19,0,0,1,.56-2.62,6.41,6.41,0,0,1,1.59-2.13,7.8,7.8,0,0,1,2.49-1.46,9.3,9.3,0,0,1,3.28-.54,7.48,7.48,0,0,1,4.6,1.32,8.57,8.57,0,0,1,2.66,3.18l-4,2.45a4.63,4.63,0,0,0-1.4-1.86,2.87,2.87,0,0,0-1.67-.54,2.63,2.63,0,0,0-1.88.68,2.23,2.23,0,0,0-.72,1.69,3,3,0,0,0,.41,1.5A9.74,9.74,0,0,0,518,82l6.06,7.19,3.5-4,3.77,3.3-4,4.55,4.89,5.79h-6.87Zm-7.85-9.32a6.55,6.55,0,0,0-1.94,2,4.21,4.21,0,0,0-.54,2.1,2.88,2.88,0,0,0,1,2.25,3.72,3.72,0,0,0,2.58.85,4.25,4.25,0,0,0,2-.43,8.69,8.69,0,0,0,1.73-1.2Z"/><path d="M541.57,72.88h5.59V86.32l5.55-5.75H559l-6.53,6.72,7.42,11.5h-6.49L548.8,91.1l-1.63,1.67v6h-5.59Z"/><path d="M560.29,89.66a9.93,9.93,0,0,1,.72-3.79,9.57,9.57,0,0,1,2-3.09,9.26,9.26,0,0,1,3.09-2.08,10.19,10.19,0,0,1,4-.76,10,10,0,0,1,4,.76,9.28,9.28,0,0,1,3.07,2.08,9.63,9.63,0,0,1,2,3.09,10.35,10.35,0,0,1,0,7.57A9.4,9.4,0,0,1,574,98.63a9.83,9.83,0,0,1-4,.78,10,10,0,0,1-4-.78A9.33,9.33,0,0,1,561,93.45,9.92,9.92,0,0,1,560.29,89.66Zm9.79,4.9A4,4,0,0,0,573.32,93a4.73,4.73,0,0,0,.83-1.57,6.14,6.14,0,0,0,0-3.61,4.56,4.56,0,0,0-.83-1.56,4.23,4.23,0,0,0-1.38-1.09,4.12,4.12,0,0,0-1.86-.41,4.24,4.24,0,0,0-1.88.41,4,4,0,0,0-1.38,1.09,5.05,5.05,0,0,0-.84,1.56,5.76,5.76,0,0,0,0,3.61,5.25,5.25,0,0,0,.84,1.57,3.84,3.84,0,0,0,1.38,1.11A4.24,4.24,0,0,0,570.08,94.56Z"/><path d="M583.13,80.57h5.36l.19,2a7,7,0,0,1,2.18-1.75,6.52,6.52,0,0,1,3.11-.7,7.41,7.41,0,0,1,1.94.23,6.42,6.42,0,0,1,1.5.6,6.32,6.32,0,0,1,1.13.82,5.8,5.8,0,0,1,.8.87,7.72,7.72,0,0,1,2.74-1.86,8.73,8.73,0,0,1,3.36-.66,7,7,0,0,1,5.34,2,7.62,7.62,0,0,1,1.85,5.4V98.79H607V88.42a3.93,3.93,0,0,0-.72-2.53,2.61,2.61,0,0,0-2.16-.89,3.26,3.26,0,0,0-2.6,1.13,4.24,4.24,0,0,0-1,2.87v9.79h-5.4V88.42a3.93,3.93,0,0,0-.72-2.53,2.6,2.6,0,0,0-2.16-.89,3.28,3.28,0,0,0-2.58,1.13,4.19,4.19,0,0,0-1,2.87v9.79h-5.59Z"/><path d="M616.65,80.57H622l.19,2a7,7,0,0,1,2.18-1.75,6.52,6.52,0,0,1,3.11-.7,7.41,7.41,0,0,1,1.94.23,6.42,6.42,0,0,1,1.5.6,6.32,6.32,0,0,1,1.13.82,5.8,5.8,0,0,1,.8.87,7.72,7.72,0,0,1,2.74-1.86,8.73,8.73,0,0,1,3.36-.66,7,7,0,0,1,5.34,2,7.62,7.62,0,0,1,1.85,5.4V98.79h-5.59V88.42a3.93,3.93,0,0,0-.72-2.53,2.61,2.61,0,0,0-2.16-.89,3.26,3.26,0,0,0-2.6,1.13,4.24,4.24,0,0,0-1,2.87v9.79h-5.4V88.42a3.93,3.93,0,0,0-.72-2.53,2.6,2.6,0,0,0-2.16-.89,3.28,3.28,0,0,0-2.58,1.13,4.19,4.19,0,0,0-1,2.87v9.79h-5.59Z"/><path d="M650.09,80.57h5.59V91.06a3.67,3.67,0,0,0,.76,2.45,2.77,2.77,0,0,0,2.23.89,3.35,3.35,0,0,0,1.52-.33,3.56,3.56,0,0,0,1.13-.87,3.63,3.63,0,0,0,.7-1.28,5,5,0,0,0,.23-1.51V80.57h5.55V98.79h-5.36l-.15-1.94a6.79,6.79,0,0,1-2.35,1.73,7.11,7.11,0,0,1-3.05.68,6.64,6.64,0,0,1-5-1.86,7.58,7.58,0,0,1-1.82-5.52Z"/><path d="M672,80.57h5.36l.15,2a6.39,6.39,0,0,1,2.35-1.75,7.26,7.26,0,0,1,3-.66,6.69,6.69,0,0,1,5,1.86,7.53,7.53,0,0,1,1.85,5.51V98.79h-5.59V88.3a3.61,3.61,0,0,0-.76-2.41,2.63,2.63,0,0,0-2.12-.89,3.82,3.82,0,0,0-1.63.33,3.45,3.45,0,0,0-1.16.88,3.68,3.68,0,0,0-.7,1.26,5,5,0,0,0-.23,1.53v9.79H672Z"/><path d="M693.74,72.88h6v5h-6Zm.19,7.69h5.59V98.79h-5.59Z"/><path d="M703.8,72.88h5.59V86.32l5.55-5.75h6.33l-6.53,6.72,7.42,11.5h-6.49L711,91.1l-1.63,1.67v6H703.8Z"/><path d="M734.68,97.08a6.09,6.09,0,0,1-2.35,1.67,8.43,8.43,0,0,1-5.2.31,6,6,0,0,1-2-.91,5,5,0,0,1-1.51-1.73,5.55,5.55,0,0,1-.6-2.72,6.11,6.11,0,0,1,.64-2.84,5.92,5.92,0,0,1,1.77-2.08,8.11,8.11,0,0,1,2.66-1.26,12.34,12.34,0,0,1,3.32-.43c.65,0,1.3,0,2,0a8.26,8.26,0,0,1,1.3.11v-.39a2.24,2.24,0,0,0-.29-1.19,2.54,2.54,0,0,0-.77-.82,3.17,3.17,0,0,0-1.11-.47,6.29,6.29,0,0,0-1.32-.14,8.7,8.7,0,0,0-3.09.47,10,10,0,0,0-2.08,1l-2.29-3.42A14.56,14.56,0,0,1,725,81.5a10.2,10.2,0,0,1,1.75-.78,14.13,14.13,0,0,1,2.27-.56,17.47,17.47,0,0,1,2.89-.21q4.16,0,6.14,2.23a8.71,8.71,0,0,1,2,6v10.6h-5.24Zm0-6.33-.74-.09a11.19,11.19,0,0,0-1.24-.06,6.14,6.14,0,0,0-3.3.66,2.13,2.13,0,0,0-1,1.86q0,2.25,2.72,2.25a4.09,4.09,0,0,0,1.3-.21,3.59,3.59,0,0,0,1.13-.6,3,3,0,0,0,.8-1,2.82,2.82,0,0,0,.31-1.36Z"/><path d="M745.47,85H742.6V80.57h2.87v-6h5.59v6h4.7V85h-4.7v7.19a3.41,3.41,0,0,0,.52,2,1.9,1.9,0,0,0,1.65.72,3.47,3.47,0,0,0,1.48-.29,7.35,7.35,0,0,0,1.17-.68l2.25,3.42a9,9,0,0,1-5.75,2.1,8.39,8.39,0,0,1-3.27-.56A5.51,5.51,0,0,1,747,97.33a6,6,0,0,1-1.17-2.39,12.74,12.74,0,0,1-.35-3.11Z"/><path d="M760.31,72.88h6v5h-6Zm.19,7.69h5.59V98.79H760.5Z"/><path d="M769.55,89.66a9.93,9.93,0,0,1,.72-3.79,9.57,9.57,0,0,1,2-3.09,9.26,9.26,0,0,1,3.09-2.08,10.19,10.19,0,0,1,4-.76,10,10,0,0,1,4,.76,9.28,9.28,0,0,1,3.07,2.08,9.63,9.63,0,0,1,2,3.09,10.35,10.35,0,0,1,0,7.57,9.4,9.4,0,0,1-5.07,5.19,9.83,9.83,0,0,1-4,.78,10,10,0,0,1-4-.78,9.33,9.33,0,0,1-5.09-5.19A9.92,9.92,0,0,1,769.55,89.66Zm9.79,4.9A4,4,0,0,0,782.58,93a4.73,4.73,0,0,0,.83-1.57,6.14,6.14,0,0,0,0-3.61,4.56,4.56,0,0,0-.83-1.56,4.23,4.23,0,0,0-1.38-1.09,4.12,4.12,0,0,0-1.86-.41,4.24,4.24,0,0,0-1.88.41,4,4,0,0,0-1.38,1.09,5.05,5.05,0,0,0-.84,1.56,5.76,5.76,0,0,0,0,3.61,5.25,5.25,0,0,0,.84,1.57,3.84,3.84,0,0,0,1.38,1.11A4.24,4.24,0,0,0,779.34,94.56Z"/><path d="M792.43,80.57h5.36l.15,2a6.39,6.39,0,0,1,2.35-1.75,7.26,7.26,0,0,1,3-.66,6.69,6.69,0,0,1,5,1.86,7.53,7.53,0,0,1,1.85,5.51V98.79h-5.59V88.3a3.61,3.61,0,0,0-.76-2.41,2.63,2.63,0,0,0-2.12-.89,3.82,3.82,0,0,0-1.63.33,3.45,3.45,0,0,0-1.16.88,3.68,3.68,0,0,0-.7,1.26A5,5,0,0,0,798,89v9.79h-5.55Z"/><path d="M254.93,119.49h17.71v5.13H260.79v5H270v5h-9.21v5.59h12.7v5.16H254.93Z"/><path d="M281.92,136.27l-6.64-9.09H282l3.26,4.86,3.3-4.86h6.1l-6.41,8.7,7,9.52h-6.68l-3.61-5.24-3.65,5.24h-6.1Z"/><path d="M308,143.69a6.07,6.07,0,0,1-2.35,1.67,8.43,8.43,0,0,1-5.2.31,6,6,0,0,1-2-.91A5,5,0,0,1,297,143a5.55,5.55,0,0,1-.6-2.72,6.11,6.11,0,0,1,.64-2.84,5.94,5.94,0,0,1,1.77-2.08,8.1,8.1,0,0,1,2.66-1.26,12.35,12.35,0,0,1,3.32-.43c.65,0,1.3,0,2,0a8.21,8.21,0,0,1,1.3.11v-.39a2.26,2.26,0,0,0-.29-1.19,2.55,2.55,0,0,0-.78-.82,3.14,3.14,0,0,0-1.11-.47,6.31,6.31,0,0,0-1.32-.14,8.7,8.7,0,0,0-3.09.47,9.91,9.91,0,0,0-2.08,1L297.07,129a14.74,14.74,0,0,1,1.32-.85,10.15,10.15,0,0,1,1.75-.78,14.09,14.09,0,0,1,2.27-.56,17.5,17.5,0,0,1,2.89-.21q4.16,0,6.14,2.23a8.72,8.72,0,0,1,2,6v10.6h-5.24Zm0-6.33-.74-.09a11.15,11.15,0,0,0-1.24-.06,6.13,6.13,0,0,0-3.3.66,2.13,2.13,0,0,0-1,1.86q0,2.25,2.72,2.25a4.09,4.09,0,0,0,1.3-.21,3.61,3.61,0,0,0,1.13-.6,3.13,3.13,0,0,0,.8-1,2.84,2.84,0,0,0,.31-1.36Z"/><path d="M317.46,127.18h5.36l.19,2a6.94,6.94,0,0,1,2.17-1.75,6.53,6.53,0,0,1,3.11-.7,7.42,7.42,0,0,1,1.94.23,6.42,6.42,0,0,1,1.5.6,6.33,6.33,0,0,1,1.13.82,6.06,6.06,0,0,1,.8.87,7.7,7.7,0,0,1,2.74-1.86,8.74,8.74,0,0,1,3.36-.66,7,7,0,0,1,5.34,2,7.62,7.62,0,0,1,1.85,5.4V145.4h-5.59V135a3.94,3.94,0,0,0-.72-2.53,2.6,2.6,0,0,0-2.16-.89,3.26,3.26,0,0,0-2.6,1.13,4.25,4.25,0,0,0-1,2.87v9.79h-5.4V135a3.94,3.94,0,0,0-.72-2.53,2.6,2.6,0,0,0-2.16-.89,3.28,3.28,0,0,0-2.58,1.13,4.19,4.19,0,0,0-1,2.87v9.79h-5.59Z"/><path d="M368.19,143.42c-.21.13-.52.34-.93.64a8.86,8.86,0,0,1-1.61.88,15,15,0,0,1-2.35.76,13.16,13.16,0,0,1-3.11.33,11.55,11.55,0,0,1-4.19-.72,9.06,9.06,0,0,1-3.17-2,8.43,8.43,0,0,1-2-3.08,11.22,11.22,0,0,1-.68-4,10.7,10.7,0,0,1,.64-3.67,9.16,9.16,0,0,1,1.84-3.09,9,9,0,0,1,3-2.12,9.45,9.45,0,0,1,4-.8,9.11,9.11,0,0,1,3.88.78,8,8,0,0,1,2.82,2.16,9.34,9.34,0,0,1,1.73,3.3,14.46,14.46,0,0,1,.58,4.21v.93h-13a3.48,3.48,0,0,0,1.3,2.58,5.1,5.1,0,0,0,3.48,1.11,8.34,8.34,0,0,0,3.53-.64,12.2,12.2,0,0,0,2-1.11Zm-4.89-9a3.29,3.29,0,0,0-.23-1.19,3.53,3.53,0,0,0-.7-1.11,3.76,3.76,0,0,0-1.16-.83,3.91,3.91,0,0,0-1.67-.33,4.18,4.18,0,0,0-1.71.33,3.87,3.87,0,0,0-1.22.83,3.64,3.64,0,0,0-.74,1.11,3,3,0,0,0-.25,1.19Z"/><path d="M371.8,127.18h5.36l.15,2a6.36,6.36,0,0,1,2.35-1.75,7.26,7.26,0,0,1,3-.66,6.69,6.69,0,0,1,5,1.86,7.53,7.53,0,0,1,1.84,5.51V145.4H384V134.91a3.6,3.6,0,0,0-.76-2.41,2.63,2.63,0,0,0-2.12-.89,3.81,3.81,0,0,0-1.63.33,3.47,3.47,0,0,0-1.17.88,3.67,3.67,0,0,0-.7,1.26,5,5,0,0,0-.23,1.53v9.79H371.8Z"/><path d="M395.45,139.77a7.13,7.13,0,0,0,2.35,1.36,8,8,0,0,0,2.82.54,5.81,5.81,0,0,0,2.06-.31,1.18,1.18,0,0,0,.82-1.2,1.22,1.22,0,0,0-.17-.64,1.66,1.66,0,0,0-.64-.54,8.33,8.33,0,0,0-1.3-.52q-.83-.27-2.12-.62a14,14,0,0,1-2.08-.72,7.53,7.53,0,0,1-1.83-1.11,5.07,5.07,0,0,1-1.28-1.59,5,5,0,0,1,.1-4.49,5.71,5.71,0,0,1,1.61-1.79,7.64,7.64,0,0,1,2.45-1.17,11,11,0,0,1,3.05-.41,14.3,14.3,0,0,1,4.08.52,11.6,11.6,0,0,1,3.22,1.54l-2.37,3.69a11.9,11.9,0,0,0-2-1,6.82,6.82,0,0,0-2.58-.46,3.62,3.62,0,0,0-1.86.37,1.13,1.13,0,0,0-.58,1c0,.59.4,1,1.2,1.32s1.89.61,3.26,1a8.58,8.58,0,0,1,4.06,2.14,5.08,5.08,0,0,1,1.26,3.61,4.83,4.83,0,0,1-.68,2.6,5.66,5.66,0,0,1-1.83,1.8,8.66,8.66,0,0,1-2.6,1.07,12.64,12.64,0,0,1-3,.35,15.85,15.85,0,0,1-4.62-.66,8.29,8.29,0,0,1-3.54-2Z"/><path d="M424.7,143.57a6.87,6.87,0,0,1-2.19,1.69,6.67,6.67,0,0,1-3,.68,7.5,7.5,0,0,1-3.13-.66,7.33,7.33,0,0,1-2.52-1.88,9.1,9.1,0,0,1-1.69-3,11.44,11.44,0,0,1-.62-3.9,9.93,9.93,0,0,1,.87-4.29,9.23,9.23,0,0,1,2.25-3.05,9.45,9.45,0,0,1,3.07-1.8,9.86,9.86,0,0,1,3.32-.6,9.38,9.38,0,0,1,2.06.17,14.87,14.87,0,0,1,1.52.45v-7.92h5.55V145.4h-5.2Zm-.12-11.38a4.32,4.32,0,0,0-1.26-.51,7.9,7.9,0,0,0-1.69-.15,4.06,4.06,0,0,0-3.32,1.44,5.6,5.6,0,0,0-1.19,3.69,5.17,5.17,0,0,0,1,3.24,3.44,3.44,0,0,0,2.91,1.26,3.63,3.63,0,0,0,1.61-.33,3.29,3.29,0,0,0,1.13-.87,3.36,3.36,0,0,0,.64-1.28,6,6,0,0,0,.19-1.51Z"/><path d="M444.82,143.69a6.07,6.07,0,0,1-2.35,1.67,8.43,8.43,0,0,1-5.2.31,6,6,0,0,1-2-.91,5,5,0,0,1-1.52-1.73,5.55,5.55,0,0,1-.6-2.72,6.11,6.11,0,0,1,.64-2.84,5.94,5.94,0,0,1,1.77-2.08,8.1,8.1,0,0,1,2.66-1.26,12.35,12.35,0,0,1,3.32-.43c.65,0,1.3,0,2,0a8.21,8.21,0,0,1,1.3.11v-.39a2.26,2.26,0,0,0-.29-1.19,2.55,2.55,0,0,0-.78-.82,3.14,3.14,0,0,0-1.11-.47,6.31,6.31,0,0,0-1.32-.14,8.7,8.7,0,0,0-3.09.47,9.91,9.91,0,0,0-2.08,1L433.87,129a14.74,14.74,0,0,1,1.32-.85,10.15,10.15,0,0,1,1.75-.78,14.09,14.09,0,0,1,2.27-.56,17.5,17.5,0,0,1,2.89-.21q4.16,0,6.14,2.23a8.72,8.72,0,0,1,2,6v10.6H445Zm0-6.33-.74-.09a11.15,11.15,0,0,0-1.24-.06,6.13,6.13,0,0,0-3.3.66,2.13,2.13,0,0,0-1,1.86q0,2.25,2.72,2.25a4.09,4.09,0,0,0,1.3-.21,3.61,3.61,0,0,0,1.13-.6,3.13,3.13,0,0,0,.8-1,2.84,2.84,0,0,0,.31-1.36Z"/><path d="M457.25,147.73a10,10,0,0,0,2.31,1,9.3,9.3,0,0,0,2.7.37,4.23,4.23,0,0,0,3-1,3.94,3.94,0,0,0,1.09-3V143.8a6.86,6.86,0,0,1-4.66,1.51,9,9,0,0,1-3.48-.64,7.09,7.09,0,0,1-2.58-1.81,8.05,8.05,0,0,1-1.61-2.76,10.41,10.41,0,0,1-.56-3.5,10.29,10.29,0,0,1,.76-4,9,9,0,0,1,2.14-3.11,9.5,9.5,0,0,1,3.3-2,12.52,12.52,0,0,1,4.29-.7,22.91,22.91,0,0,1,4.29.39,24.64,24.64,0,0,1,3.67,1v16.66q0,4.5-2.49,6.66a10,10,0,0,1-6.8,2.16,17.44,17.44,0,0,1-4.27-.46,10.84,10.84,0,0,1-3.34-1.48Zm9.13-15.92a6.93,6.93,0,0,0-1.09-.29,8.65,8.65,0,0,0-1.44-.1,5,5,0,0,0-2.1.41,4.3,4.3,0,0,0-2.39,2.68,6.3,6.3,0,0,0-.29,1.92,4.83,4.83,0,0,0,1,3.15,3.37,3.37,0,0,0,2.78,1.16,3.81,3.81,0,0,0,2.64-.83,3.34,3.34,0,0,0,.93-2.62Z"/><path d="M486.61,143.69a6.07,6.07,0,0,1-2.35,1.67,8.43,8.43,0,0,1-5.2.31,6,6,0,0,1-2-.91,5,5,0,0,1-1.52-1.73,5.55,5.55,0,0,1-.6-2.72,6.11,6.11,0,0,1,.64-2.84,5.94,5.94,0,0,1,1.77-2.08,8.1,8.1,0,0,1,2.66-1.26,12.35,12.35,0,0,1,3.32-.43c.65,0,1.3,0,2,0a8.21,8.21,0,0,1,1.3.11v-.39a2.26,2.26,0,0,0-.29-1.19,2.55,2.55,0,0,0-.78-.82,3.14,3.14,0,0,0-1.11-.47,6.31,6.31,0,0,0-1.32-.14,8.7,8.7,0,0,0-3.09.47,9.91,9.91,0,0,0-2.08,1L475.66,129a14.74,14.74,0,0,1,1.32-.85,10.15,10.15,0,0,1,1.75-.78,14.09,14.09,0,0,1,2.27-.56,17.5,17.5,0,0,1,2.89-.21q4.16,0,6.14,2.23a8.72,8.72,0,0,1,2,6v10.6h-5.24Zm0-6.33-.74-.09a11.15,11.15,0,0,0-1.24-.06,6.13,6.13,0,0,0-3.3.66,2.13,2.13,0,0,0-1,1.86q0,2.25,2.72,2.25a4.09,4.09,0,0,0,1.3-.21,3.61,3.61,0,0,0,1.13-.6,3.13,3.13,0,0,0,.8-1,2.84,2.84,0,0,0,.31-1.36Z"/><path d="M496.05,127.18h5.36l.2,2.29a8.27,8.27,0,0,1,1.92-1.79,5.41,5.41,0,0,1,3.16-.86,9,9,0,0,1,1.26.08,4.74,4.74,0,0,1,1,.27l-.89,4.93a6.64,6.64,0,0,0-2-.27,4.41,4.41,0,0,0-3.21,1.19,4.46,4.46,0,0,0-1.22,3.36v9h-5.59Z"/><path d="M511.35,127.18h5.36l.15,2a6.39,6.39,0,0,1,2.35-1.75,7.26,7.26,0,0,1,3-.66,6.69,6.69,0,0,1,5,1.86,7.53,7.53,0,0,1,1.85,5.51V145.4h-5.59V134.91a3.61,3.61,0,0,0-.76-2.41,2.63,2.63,0,0,0-2.12-.89,3.82,3.82,0,0,0-1.63.33,3.45,3.45,0,0,0-1.16.88,3.68,3.68,0,0,0-.7,1.26,5,5,0,0,0-.23,1.53v9.79h-5.55Z"/><path d="M543.71,143.69a6.09,6.09,0,0,1-2.35,1.67,8.43,8.43,0,0,1-5.2.31,6,6,0,0,1-2-.91,5,5,0,0,1-1.51-1.73,5.55,5.55,0,0,1-.6-2.72,6.11,6.11,0,0,1,.64-2.84,5.92,5.92,0,0,1,1.77-2.08,8.11,8.11,0,0,1,2.66-1.26,12.34,12.34,0,0,1,3.32-.43c.65,0,1.3,0,2,0a8.26,8.26,0,0,1,1.3.11v-.39a2.24,2.24,0,0,0-.29-1.19,2.54,2.54,0,0,0-.77-.82,3.17,3.17,0,0,0-1.11-.47,6.29,6.29,0,0,0-1.32-.14,8.7,8.7,0,0,0-3.09.47,10,10,0,0,0-2.08,1L532.75,129a14.56,14.56,0,0,1,1.32-.85,10.2,10.2,0,0,1,1.75-.78,14.13,14.13,0,0,1,2.27-.56,17.47,17.47,0,0,1,2.89-.21q4.16,0,6.14,2.23a8.71,8.71,0,0,1,2,6v10.6h-5.24Zm0-6.33-.74-.09a11.19,11.19,0,0,0-1.24-.06,6.14,6.14,0,0,0-3.3.66,2.13,2.13,0,0,0-1,1.86q0,2.25,2.72,2.25a4.09,4.09,0,0,0,1.3-.21,3.59,3.59,0,0,0,1.13-.6,3,3,0,0,0,.8-1,2.82,2.82,0,0,0,.31-1.36Z"/><path d="M254.31,188.7a7.54,7.54,0,0,1,.8-3.5,12.31,12.31,0,0,1,2-2.84,20.41,20.41,0,0,1,2.62-2.35q1.42-1.07,2.62-2a14.72,14.72,0,0,0,2-1.86,2.85,2.85,0,0,0,.8-1.88,2.57,2.57,0,0,0-.74-1.75,3.17,3.17,0,0,0-2.45-.82,4.12,4.12,0,0,0-1.53.27,5,5,0,0,0-1.2.68,4.88,4.88,0,0,0-.89.89c-.25.33-.46.62-.64.88l-4.08-2.84a9.84,9.84,0,0,1,1.3-1.71,9.15,9.15,0,0,1,1.9-1.54,10.16,10.16,0,0,1,2.54-1.09,11.8,11.8,0,0,1,3.22-.41,10.07,10.07,0,0,1,3.65.6,7.83,7.83,0,0,1,2.58,1.57,6.25,6.25,0,0,1,1.53,2.21,6.76,6.76,0,0,1,.51,2.56,6.63,6.63,0,0,1-.74,3.15,11.17,11.17,0,0,1-1.86,2.56,21.31,21.31,0,0,1-2.43,2.16q-1.3,1-2.43,1.88a15.08,15.08,0,0,0-1.88,1.75,2.64,2.64,0,0,0-.76,1.75H271v5H254.31Z"/><path d="M284.14,192.63a8.83,8.83,0,0,1-4.2-1,8.73,8.73,0,0,1-3-2.66,12,12,0,0,1-1.83-4.12,21.76,21.76,0,0,1-.6-5.28,21.08,21.08,0,0,1,.6-5.2,11.58,11.58,0,0,1,1.83-4,8.6,8.6,0,0,1,3-2.6,9.09,9.09,0,0,1,4.21-.93,9.31,9.31,0,0,1,4.27.93,8.22,8.22,0,0,1,3,2.6,11.72,11.72,0,0,1,1.77,4,21.74,21.74,0,0,1,.58,5.2,22.44,22.44,0,0,1-.58,5.28,12,12,0,0,1-1.79,4.12,8.5,8.5,0,0,1-3,2.66A9.12,9.12,0,0,1,284.14,192.63Zm0-5.09a2.76,2.76,0,0,0,1.81-.62,4.59,4.59,0,0,0,1.24-1.69,9.37,9.37,0,0,0,.7-2.51,21.2,21.2,0,0,0,.21-3.11,18.5,18.5,0,0,0-.23-3,9.28,9.28,0,0,0-.72-2.43,4.3,4.3,0,0,0-1.24-1.61,3.08,3.08,0,0,0-3.61,0,4.3,4.3,0,0,0-1.24,1.61,8.78,8.78,0,0,0-.7,2.43,20.11,20.11,0,0,0-.21,3,21.2,21.2,0,0,0,.21,3.11,9.37,9.37,0,0,0,.7,2.51,4.59,4.59,0,0,0,1.24,1.69A2.81,2.81,0,0,0,284.18,187.54Z"/><path d="M299.09,187.23h4.23V173.63l-4.08,2.17-2.37-4.27,7.26-4h4.62v19.69h4V192H299.09Z"/><path d="M320.1,192q.74-2.41,1.86-5.24t2.33-5.55q1.2-2.72,2.37-5t2-3.67h-10.8v-5H334.4v4.7q-1.16,2-2.39,4.47t-2.33,5.13q-1.11,2.64-2.08,5.28T326,192Z"/></svg>