<svg id="Layer_1" data-name="Layer 1" xmlns="http://www.w3.org/2000/svg" viewBox="0 0 518.1 297.51"><defs><style>.cls-1{fill:none;}.cls-2{fill:#feeb15;}</style></defs><title>pattern3</title><path class="cls-1" d="M471.24,0l35.15,20.29-11.71,6.76L459.53,6.76,471.24,0H401L436.1,20.29l-11.71,6.76L389.24,6.76,401,0H330.66l35.15,20.29-11.71,6.76L318.95,6.76,330.66,0H260.37l35.15,20.29L283.8,27.05,248.66,6.76,260.37,0H190.08l35.15,20.29-11.71,6.76L178.37,6.76,190.08,0H119.79l35.15,20.29-11.71,6.76L108.08,6.76,119.79,0H49.5L84.65,20.29,72.93,27.05,37.79,6.76,49.5,0H-33L2.65,22.51,23.73,34.32v-.5L49.5,48.7v.06L78,64.72l6.66-3.84,35.15,20.29-6.12,3.53,71.35,40,5.06-2.92L225.23,142l-4.53,2.61,71.35,40,3.46-2,35.15,20.29-2.93,1.69,71.35,40,1.86-1.08,35.15,20.29-1.33.77L530,317.89V0ZM49.5,40.58,14.36,20.29l11.72-6.76L61.22,33.82ZM447.81,13.53,483,33.82l-11.72,6.76L436.1,20.29Zm-2.34,28.41V33.82L471.24,48.7V73L445.47,58.17V50.05l18.74,10.82V52.76ZM436.1,60.87l35.15,20.29-11.71,6.76L424.38,67.64Zm44.52,41.93V94.69l25.77,14.88v24.35L480.62,119v-8.12l18.74,10.82v-8.12ZM506.39,142l-11.71,6.76-35.15-20.29,11.71-6.76ZM375.18,163.68v-8.12L401,170.44v24.35l-25.77-14.88V171.8l18.74,10.82V174.5ZM365.81,142l11.72-6.76,35.14,20.29L401,162.33Zm23.43-13.53L401,121.75,436.1,142l-11.71,6.76ZM375.18,41.93V33.82L401,48.7V73L375.18,58.17V50.05l18.74,10.82V52.76ZM412.67,74.4l35.15,20.29-11.71,6.76L401,81.16Zm-2.34,28.41V94.69l25.77,14.88v24.35L410.33,119v-8.12l18.74,10.82v-8.12Zm25.77,79.81,35.15,20.29-11.71,6.76-35.14-20.29Zm9.37-2.71V171.8l18.74,10.82V174.5l-18.74-10.82v-8.12l25.77,14.88v24.35ZM436.1,142l11.71-6.76L483,155.56l-11.72,6.76ZM377.52,13.53l35.14,20.29L401,40.58,365.81,20.29ZM365.81,60.87,401,81.16l-11.71,6.76L354.09,67.64Zm11.72,33.82-11.72,6.76L330.66,81.16l11.72-6.76ZM340,119v-8.12l18.74,10.82v-8.12L340,102.81V94.69l25.77,14.88v24.35Zm25.77,23-11.71,6.76-35.15-20.29,11.71-6.76ZM304.89,41.93V33.82L330.66,48.7V73L304.89,58.17V50.05l18.74,10.82V52.76Zm2.34-28.41,35.14,20.29-11.72,6.76L295.52,20.29ZM295.52,60.87l35.15,20.29-11.71,6.76L283.8,67.64Zm-25.77,41.93V94.69l25.77,14.88v24.35L269.75,119v-8.12l18.74,10.82v-8.12Zm-9.37-21.64,11.71-6.76,35.15,20.29-11.72,6.76ZM236.94,13.53l35.15,20.29-11.71,6.76L225.23,20.29ZM234.6,41.93V33.82L260.37,48.7V73L234.6,58.17V50.05l18.74,10.82V52.76Zm-9.37,18.94,35.15,20.29-11.71,6.76L213.51,67.64ZM166.65,13.53,201.8,33.82l-11.72,6.76L154.94,20.29Zm-70.29,0,35.15,20.29-11.72,6.76L84.65,20.29ZM94,58.17V50.05l18.74,10.82V52.76L94,41.93V33.82L119.79,48.7V73Zm60.92,43.29L119.79,81.16l11.72-6.76,35.14,20.29Zm23.43-13.53L143.22,67.64l11.71-6.76,35.15,20.29ZM190.08,73,164.31,58.17V50.05l18.74,10.82V52.76L164.31,41.93V33.82L190.08,48.7ZM201.8,74.4l35.14,20.29-11.71,6.76L190.08,81.16ZM199.46,119v-8.12l18.74,10.82v-8.12l-18.74-10.82V94.69l25.77,14.88v24.35Zm60.92,43.29L225.23,142l11.71-6.76,35.15,20.29ZM283.8,148.8l-35.14-20.29,11.71-6.76L295.52,142Zm23.43-13.53,35.14,20.29-11.72,6.76L295.52,142Zm-2.34,44.64V171.8l18.74,10.82V174.5l-18.74-10.82v-8.12l25.77,14.88v24.35Zm60.92,43.29-35.15-20.29,11.72-6.76,35.15,20.29Zm23.43-13.53-35.14-20.29,11.71-6.76L401,202.91Zm23.43-13.53,35.15,20.29L436.1,223.2,401,202.91Zm23.43,59.52-25.77-14.88v-8.12l18.74,10.82v-8.12l-18.74-10.82v-8.12l25.77,14.88Zm35.15,28.41L436.1,263.78,447.81,257,483,277.31Zm23.43-13.53-35.15-20.29,11.71-6.76,35.15,20.29Zm11.71-14.88-25.77-14.88v-8.12l18.74,10.82v-8.12l-18.74-10.82v-8.12l25.77,14.88Zm0-32.47-35.14-20.29L483,196.15l35.14,20.29Zm0-121.75L471.24,81.16,483,74.4,518.1,94.69Z"/><polygon class="cls-2" points="471.24 81.16 506.39 101.45 518.1 94.69 482.96 74.4 471.24 81.16"/><polygon class="cls-2" points="482.96 33.82 447.81 13.53 436.1 20.29 471.24 40.58 482.96 33.82"/><polygon class="cls-2" points="445.47 50.05 445.47 58.17 471.24 73.05 471.24 48.7 445.47 33.82 445.47 41.94 464.21 52.76 464.21 60.87 445.47 50.05"/><polygon class="cls-2" points="494.67 27.05 506.39 20.29 471.24 0 459.53 6.76 494.67 27.05"/><polygon class="cls-2" points="471.24 202.91 506.39 223.2 518.1 216.44 482.96 196.15 471.24 202.91"/><polygon class="cls-2" points="482.96 155.56 447.81 135.27 436.1 142.04 471.24 162.33 482.96 155.56"/><polygon class="cls-2" points="471.24 170.44 445.47 155.56 445.47 163.68 464.21 174.5 464.21 182.62 445.47 171.8 445.47 179.91 471.24 194.79 471.24 170.44"/><polygon class="cls-2" points="459.53 128.51 494.67 148.8 506.39 142.04 471.24 121.75 459.53 128.51"/><polygon class="cls-2" points="480.62 110.92 480.62 119.04 506.39 133.92 506.39 109.57 480.62 94.69 480.62 102.81 499.36 113.63 499.36 121.75 480.62 110.92"/><polygon class="cls-2" points="436.1 263.78 471.24 284.07 482.96 277.31 447.81 257.02 436.1 263.78"/><polygon class="cls-2" points="459.53 250.25 494.67 270.55 506.39 263.78 471.24 243.49 459.53 250.25"/><polygon class="cls-2" points="480.62 224.55 499.36 235.38 499.36 243.49 480.62 232.67 480.62 240.79 506.39 255.67 506.39 231.32 480.62 216.44 480.62 224.55"/><polygon class="cls-2" points="447.81 94.69 412.67 74.4 400.95 81.16 436.1 101.45 447.81 94.69"/><polygon class="cls-2" points="471.24 81.16 436.1 60.87 424.38 67.64 459.53 87.93 471.24 81.16"/><polygon class="cls-2" points="412.67 33.82 377.52 13.53 365.81 20.29 400.95 40.58 412.67 33.82"/><polygon class="cls-2" points="375.18 50.05 375.18 58.17 400.95 73.05 400.95 48.7 375.18 33.82 375.18 41.94 393.93 52.76 393.93 60.87 375.18 50.05"/><polygon class="cls-2" points="424.38 27.05 436.1 20.29 400.95 0 389.24 6.76 424.38 27.05"/><polygon class="cls-2" points="447.81 216.44 412.67 196.15 400.95 202.91 436.1 223.2 447.81 216.44"/><polygon class="cls-2" points="471.24 202.91 436.1 182.62 424.38 189.38 459.53 209.67 471.24 202.91"/><polygon class="cls-2" points="412.67 155.56 377.52 135.27 365.81 142.04 400.95 162.33 412.67 155.56"/><polygon class="cls-2" points="375.18 171.8 375.18 179.91 400.95 194.79 400.95 170.44 375.18 155.56 375.18 163.68 393.93 174.5 393.93 182.62 375.18 171.8"/><polygon class="cls-2" points="436.1 142.04 400.95 121.75 389.24 128.51 424.38 148.8 436.1 142.04"/><polygon class="cls-2" points="410.33 110.92 410.33 119.04 436.1 133.92 436.1 109.57 410.33 94.69 410.33 102.81 429.07 113.63 429.07 121.75 410.33 110.92"/><polygon class="cls-2" points="410.33 224.55 429.07 235.38 429.07 243.49 410.33 232.67 410.33 240.79 436.1 255.67 436.1 231.32 410.33 216.44 410.33 224.55"/><polygon class="cls-2" points="330.66 81.16 365.81 101.45 377.52 94.69 342.38 74.4 330.66 81.16"/><polygon class="cls-2" points="400.95 81.16 365.81 60.87 354.09 67.64 389.24 87.93 400.95 81.16"/><polygon class="cls-2" points="342.38 33.82 307.23 13.53 295.52 20.29 330.66 40.58 342.38 33.82"/><polygon class="cls-2" points="304.89 50.05 304.89 58.17 330.66 73.05 330.66 48.7 304.89 33.82 304.89 41.94 323.63 52.76 323.63 60.87 304.89 50.05"/><polygon class="cls-2" points="354.09 27.05 365.81 20.29 330.66 0 318.95 6.76 354.09 27.05"/><polygon class="cls-2" points="330.66 202.91 365.81 223.2 377.52 216.44 342.38 196.15 330.66 202.91"/><polygon class="cls-2" points="354.09 189.38 389.24 209.67 400.95 202.91 365.81 182.62 354.09 189.38"/><polygon class="cls-2" points="342.38 155.56 307.23 135.27 295.52 142.04 330.66 162.33 342.38 155.56"/><polygon class="cls-2" points="330.66 170.44 304.89 155.56 304.89 163.68 323.63 174.5 323.63 182.62 304.89 171.8 304.89 179.91 330.66 194.79 330.66 170.44"/><polygon class="cls-2" points="318.95 128.51 354.09 148.8 365.81 142.04 330.66 121.75 318.95 128.51"/><polygon class="cls-2" points="365.81 109.57 340.04 94.69 340.04 102.81 358.78 113.63 358.78 121.75 340.04 110.92 340.04 119.04 365.81 133.92 365.81 109.57"/><polygon class="cls-2" points="307.23 94.69 272.09 74.4 260.38 81.16 295.52 101.45 307.23 94.69"/><polygon class="cls-2" points="330.66 81.16 295.52 60.87 283.8 67.64 318.95 87.93 330.66 81.16"/><polygon class="cls-2" points="272.09 33.82 236.94 13.53 225.23 20.29 260.38 40.58 272.09 33.82"/><polygon class="cls-2" points="234.6 50.05 234.6 58.17 260.37 73.05 260.37 48.7 234.6 33.82 234.6 41.94 253.34 52.76 253.34 60.87 234.6 50.05"/><polygon class="cls-2" points="283.8 27.05 295.52 20.29 260.37 0 248.66 6.76 283.8 27.05"/><polygon class="cls-2" points="225.23 142.04 260.38 162.33 272.09 155.56 236.94 135.27 225.23 142.04"/><polygon class="cls-2" points="248.66 128.51 283.8 148.8 295.52 142.04 260.37 121.75 248.66 128.51"/><polygon class="cls-2" points="269.75 110.92 269.75 119.04 295.52 133.92 295.52 109.57 269.75 94.69 269.75 102.81 288.49 113.63 288.49 121.75 269.75 110.92"/><polygon class="cls-2" points="236.94 94.69 201.8 74.4 190.08 81.16 225.23 101.45 236.94 94.69"/><polygon class="cls-2" points="260.37 81.16 225.23 60.87 213.51 67.64 248.66 87.93 260.37 81.16"/><polygon class="cls-2" points="201.8 33.82 166.66 13.53 154.94 20.29 190.08 40.58 201.8 33.82"/><polygon class="cls-2" points="164.31 41.94 183.06 52.76 183.06 60.87 164.31 50.05 164.31 58.17 190.08 73.05 190.08 48.7 164.31 33.82 164.31 41.94"/><polygon class="cls-2" points="213.51 27.05 225.23 20.29 190.08 0 178.37 6.76 213.51 27.05"/><polygon class="cls-2" points="225.23 109.57 199.46 94.69 199.46 102.81 218.2 113.63 218.2 121.75 199.46 110.92 199.46 119.04 225.23 133.92 225.23 109.57"/><polygon class="cls-2" points="119.8 81.16 154.94 101.45 166.66 94.69 131.51 74.4 119.8 81.16"/><polygon class="cls-2" points="143.22 67.64 178.37 87.93 190.08 81.16 154.94 60.87 143.22 67.64"/><polygon class="cls-2" points="131.51 33.82 96.36 13.53 84.65 20.29 119.8 40.58 131.51 33.82"/><polygon class="cls-2" points="119.8 48.7 94.02 33.82 94.02 41.94 112.77 52.76 112.77 60.87 94.02 50.05 94.02 58.17 119.8 73.05 119.8 48.7"/><polygon class="cls-2" points="143.22 27.05 154.94 20.29 119.79 0 108.08 6.76 143.22 27.05"/><polygon class="cls-2" points="14.36 20.29 49.51 40.58 61.22 33.82 26.07 13.53 14.36 20.29"/><polygon class="cls-2" points="72.94 27.05 84.65 20.29 49.51 0 37.79 6.76 72.94 27.05"/></svg>