<svg xmlns="http://www.w3.org/2000/svg" viewBox="0 0 487.04 497.93"><defs><style>.cls-1{fill:#010101;}</style></defs><title>Resurs 5</title><g id="Lager_2" data-name="Lager 2"><g id="Layer_1" data-name="Layer 1"><path class="cls-1" d="M487,335.26V321.94h0l-42.3,24.42-42.3-24.42-42.3,24.42-42.3-24.42-42.3,24.42-42.3-24.42-42.3,24.42-42.3-24.42-42.3,24.42L64,321.94h0l-42.3,24.42L0,333.83v13.32L10.18,353v13.32L0,360.47v13.32l21.71,12.54h0L64,361.91h0l42.3,24.42,42.3-24.42h0l42.3,24.42,42.3-24.42h0l42.3,24.42,42.3-24.42h0l42.3,24.42,42.3-24.42h0l42.3,24.42L487,361.91h0V348.59l-30.77,17.76V353ZM94.78,366.35,64,348.59,33.25,366.35V353L64,335.26,94.78,353Zm84.6,0-30.77-17.76-30.77,17.76V353l30.77-17.76L179.39,353Zm84.6,0-30.77-17.76-30.77,17.76V353l30.77-17.76L264,353Zm84.6,0-30.77-17.76-30.77,17.76V353l30.77-17.76L348.6,353Zm84.6,0-30.77-17.76-30.77,17.76V353l30.77-17.76L433.2,353Z"/><path class="cls-1" d="M64,40h0l42.3,24.42L148.62,40h0l42.3,24.42L233.23,40h0l42.3,24.42L317.83,40h0l42.3,24.42L402.43,40h0l42.3,24.42L487,40h0V26.64L456.27,44.41V31.08L487,13.32V0l-42.3,24.42L402.43,0l-42.3,24.42L317.83,0l-42.3,24.42L233.23,0l-42.3,24.42L148.62,0l-42.3,24.42L64,0,21.71,24.42,0,11.89V25.21l10.18,5.88V44.41L0,38.53V51.85L21.71,64.39Zm307.65-8.88,30.77-17.76L433.2,31.08V44.41L402.43,26.64,371.67,44.41Zm-84.6,0,30.77-17.76L348.6,31.08V44.41L317.83,26.64,287.07,44.41Zm-84.6,0,30.77-17.76L264,31.08V44.41L233.23,26.64,202.46,44.41Zm-84.6,0,30.77-17.76,30.77,17.76V44.41L148.62,26.64,117.86,44.41Zm-84.6,0L64,13.32,94.78,31.08V44.41L64,26.64,33.25,44.41Z"/><path class="cls-1" d="M64,104.35l42.3,24.42,42.3-24.42,42.3,24.42,42.3-24.42,42.3,24.42,42.3-24.42,42.3,24.42,42.3-24.42,42.3,24.42L487,104.35h0V91l-30.77,17.76V95.47L487,77.71V64.39l-42.3,24.42-42.3-24.42-42.3,24.42-42.3-24.42-42.3,24.42-42.3-24.42-42.3,24.42-42.3-24.42-42.3,24.42L64,64.39,21.71,88.81,0,76.27V89.6l10.18,5.88v13.32L0,102.92v13.32l21.71,12.54Zm307.65-8.88,30.77-17.76L433.2,95.47v13.32L402.43,91l-30.77,17.76Zm-84.6,0,30.77-17.76L348.6,95.47v13.32L317.83,91l-30.77,17.76Zm-84.6,0,30.77-17.76L264,95.47v13.32L233.23,91l-30.77,17.76Zm-84.6,0,30.77-17.76,30.77,17.76v13.32L148.62,91l-30.77,17.76Zm-84.6,0L64,77.71,94.78,95.47v13.32L64,91,33.25,108.79Z"/><path class="cls-1" d="M64,168.74l42.3,24.42,42.3-24.42,42.3,24.42,42.3-24.42,42.3,24.42,42.3-24.42,42.3,24.42,42.3-24.42,42.3,24.42L487,168.74V155.42l-31.93,19.94,1.17-15.5L487,142.1V128.78l-42.3,24.42-42.3-24.42-42.3,24.42-42.3-24.42-42.3,24.42-42.3-24.42-42.3,24.42-42.3-24.42-42.3,24.42L64,128.78,21.72,153.2,0,140.66V154l10.18,5.88v13.32L0,167.31v13.32l21.72,12.54Zm307.65-8.88,30.77-17.76,30.77,17.76v13.32l-30.77-17.76-30.77,17.76Zm-84.6,0,30.77-17.76,30.77,17.76v13.32l-30.77-17.76-30.77,17.76Zm-84.6,0,30.77-17.76L264,159.86v13.32l-30.77-17.76-30.77,17.76Zm-84.6,0,30.77-17.76,30.77,17.76v13.32l-30.77-17.76-30.77,17.76Zm-84.6,0L64,142.1l30.77,17.76v13.32L64,155.42,33.25,173.18Z"/><path class="cls-1" d="M64,233.13h0l42.3,24.42,42.3-24.42h0l42.3,24.42,42.3-24.42h0l42.3,24.42,42.3-24.42h0l42.3,24.42,42.3-24.42h0l42.3,24.42L487,233.13h0V219.81l-30.77,17.76V224.25L487,206.49V193.17h0l-42.3,24.42-42.3-24.42-42.3,24.42-42.3-24.42-42.3,24.42-42.3-24.42-42.3,24.42-42.3-24.42-42.3,24.42L64,193.17h0l-42.3,24.42L0,205.05v13.32l10.18,5.88v13.32L0,231.7V245l21.71,12.54Zm307.65-8.88,30.77-17.76,30.77,17.76v13.32l-30.77-17.76-30.77,17.76Zm-84.6,0,30.77-17.76,30.77,17.76v13.32l-30.77-17.76-30.77,17.76Zm-84.6,0,30.77-17.76L264,224.25v13.32l-30.77-17.76-30.77,17.76Zm-84.6,0,30.77-17.76,30.77,17.76v13.32l-30.77-17.76-30.77,17.76Zm-84.6,0L64,206.49l30.77,17.76v13.32L64,219.81,33.25,237.57Z"/><path class="cls-1" d="M64,297.52h0l42.3,24.42,42.3-24.42h0l42.3,24.42,42.3-24.42h0l42.3,24.42,42.3-24.42h0l42.3,24.42,42.3-24.42h0l42.3,24.42L487,297.52V284.2L456.27,302V288.64L487,270.88V257.55h0L444.74,282l-42.3-24.42L360.13,282l-42.3-24.42L275.53,282l-42.3-24.42L190.92,282l-42.3-24.42L106.32,282,64,257.55h0L21.71,282,0,269.44v13.32l10.18,5.88V302L0,296.08v13.32l21.71,12.54Zm307.65-8.88,30.77-17.76,30.77,17.76V302L402.43,284.2,371.67,302Zm-84.6,0,30.77-17.76,30.77,17.76V302L317.83,284.2,287.07,302Zm-84.6,0,30.77-17.76L264,288.64V302L233.23,284.2,202.46,302Zm-84.6,0,30.77-17.76,30.77,17.76V302L148.62,284.2,117.86,302Zm-84.6,0L64,270.88l30.77,17.76V302L64,284.2,33.25,302Z"/><path class="cls-1" d="M444.74,410.75l-42.3-24.42-42.3,24.42-42.3-24.42-42.3,24.42-42.3-24.42-42.3,24.42-42.3-24.42-42.3,24.42L64,386.33l-42.3,24.42L0,398.22v13.32l10.18,5.88v13.32L0,424.86v13.32l21.71,12.54L64,426.3h0l42.3,24.42,42.3-24.42h0l42.3,24.42,42.3-24.42h0l42.3,24.42,42.3-24.42h0l42.3,24.42,42.3-24.42h0l42.3,24.42L487,426.3h0V413l-30.77,17.76V417.41L487,399.65V386.33Zm-350,20L64,413,33.25,430.74V417.41L64,399.65l30.77,17.76Zm84.6,0L148.62,413l-30.77,17.76V417.41l30.77-17.76,30.77,17.76Zm84.6,0L233.23,413l-30.77,17.76V417.41l30.77-17.76L264,417.41Zm84.6,0L317.83,413l-30.77,17.76V417.41l30.77-17.76,30.77,17.76Zm84.6,0L402.43,413l-30.77,17.76V417.41l30.77-17.76,30.77,17.76Z"/><path class="cls-1" d="M444.74,475.14l-42.3-24.42-42.3,24.42-42.3-24.42-42.3,24.42-42.3-24.42-42.3,24.42-42.3-24.42-42.3,24.42L64,450.72h0l-42.3,24.42L0,462.61v13.32l10.18,5.88v13.32L0,489.25v8.69H51.46L64,490.68h0l12.56,7.25h59.49l12.56-7.25h0l12.56,7.25h59.49l12.56-7.25h0l12.56,7.25h59.49l12.56-7.25h0l12.56,7.25h59.49l12.56-7.25h0L415,497.93h59.49L487,490.68V477.36l-30.77,17.76V481.8L487,464V450.72h0Zm-350,20L64,477.36,33.25,495.13V481.8L64,464,94.78,481.8Zm84.6,0-30.77-17.76-30.77,17.76V481.8L148.62,464l30.77,17.76Zm84.6,0-30.77-17.76-30.77,17.76V481.8L233.23,464,264,481.8Zm84.6,0-30.77-17.76-30.77,17.76V481.8L317.83,464,348.6,481.8Zm84.6,0-30.77-17.76-30.77,17.76V481.8L402.43,464,433.2,481.8Z"/></g></g></svg>