<svg id="Layer_1" data-name="Layer 1" xmlns="http://www.w3.org/2000/svg" xmlns:xlink="http://www.w3.org/1999/xlink" viewBox="0 0 867.42 500"><defs><style>.cls-1{fill:none;}.cls-2{fill:#feeb15;}.cls-3{clip-path:url(#clip-path);}.cls-4{clip-path:url(#clip-path-2);}.cls-5{fill:#010101;}.cls-6{clip-path:url(#clip-path-3);}.cls-7{clip-path:url(#clip-path-4);}</style><clipPath id="clip-path"><rect class="cls-1" x="952.53" width="500" height="500"/></clipPath><clipPath id="clip-path-2"><rect class="cls-1" x="891.56" y="-213.2" width="141.72" height="245.48"/></clipPath><clipPath id="clip-path-3"><rect class="cls-1" x="891.56" y="32.28" width="141.72" height="245.48"/></clipPath><clipPath id="clip-path-4"><rect class="cls-1" x="891.56" y="277.75" width="141.72" height="245.48"/></clipPath></defs><title>pattern3</title><polygon class="cls-2" points="808.92 -22.63 871.42 13.45 892.25 1.42 829.75 -34.66 808.92 -22.63"/><polygon class="cls-2" points="808.92 193.85 871.42 229.93 892.25 217.9 829.75 181.82 808.92 193.85"/><polygon class="cls-2" points="808.92 410.33 871.42 446.42 892.25 434.39 829.75 398.31 808.92 410.33"/><polygon class="cls-2" points="808.92 -22.63 871.42 13.45 892.25 1.42 829.75 -34.66 808.92 -22.63"/><polygon class="cls-2" points="825.59 1.42 871.42 27.88 871.42 71.18 825.59 44.72 825.59 30.29 858.92 49.53 858.92 35.1 825.59 15.85 825.59 1.42"/><polygon class="cls-2" points="683.94 -22.63 746.43 13.45 767.26 1.42 704.77 -34.66 683.94 -22.63"/><polygon class="cls-2" points="808.92 193.85 871.42 229.93 892.25 217.9 829.75 181.82 808.92 193.85"/><polygon class="cls-2" points="825.59 217.9 871.42 244.36 871.42 287.66 825.59 261.2 825.59 246.77 858.92 266.01 858.92 251.58 825.59 232.34 825.59 217.9"/><polygon class="cls-2" points="683.94 193.85 746.43 229.93 767.26 217.9 704.77 181.82 683.94 193.85"/><polygon class="cls-2" points="746.43 157.77 725.6 169.8 788.09 205.88 808.92 193.85 746.43 157.77"/><polygon class="cls-2" points="746.43 85.61 808.92 121.69 829.75 109.66 767.26 73.58 746.43 85.61"/><polygon class="cls-2" points="763.1 109.66 808.92 136.12 808.92 179.42 763.1 152.96 763.1 138.53 796.42 157.77 796.42 143.34 763.1 124.09 763.1 109.66"/><polygon class="cls-2" points="808.92 49.53 788.09 61.55 850.59 97.64 871.42 85.61 808.92 49.53"/><polygon class="cls-2" points="825.59 1.42 871.42 27.88 871.42 71.18 825.59 44.72 825.59 30.29 858.92 49.53 858.92 35.1 825.59 15.85 825.59 1.42"/><polygon class="cls-2" points="808.92 410.33 871.42 446.42 892.25 434.39 829.75 398.31 808.92 410.33"/><polygon class="cls-2" points="825.59 434.39 871.42 460.85 871.42 504.14 825.59 477.68 825.59 463.25 858.92 482.5 858.92 468.06 825.59 448.82 825.59 434.39"/><polygon class="cls-2" points="683.94 410.33 746.43 446.42 767.26 434.39 704.77 398.31 683.94 410.33"/><polygon class="cls-2" points="746.43 374.25 725.6 386.28 788.09 422.36 808.92 410.33 746.43 374.25"/><polygon class="cls-2" points="746.43 302.09 808.92 338.17 829.75 326.15 767.26 290.06 746.43 302.09"/><polygon class="cls-2" points="763.1 326.15 808.92 352.61 808.92 395.9 763.1 369.44 763.1 355.01 796.42 374.25 796.42 359.82 763.1 340.58 763.1 326.15"/><polygon class="cls-2" points="808.92 266.01 788.09 278.04 850.59 314.12 871.42 302.09 808.92 266.01"/><polygon class="cls-2" points="825.59 217.9 871.42 244.36 871.42 287.66 825.59 261.2 825.59 246.77 858.92 266.01 858.92 251.58 825.59 232.34 825.59 217.9"/><polygon class="cls-2" points="808.92 482.5 788.09 494.52 850.59 530.6 871.42 518.58 808.92 482.5"/><polygon class="cls-2" points="825.59 434.39 871.42 460.85 871.42 504.14 825.59 477.68 825.59 463.25 858.92 482.5 858.92 468.06 825.59 448.82 825.59 434.39"/><polygon class="cls-2" points="683.94 -22.63 746.43 13.45 767.26 1.42 704.77 -34.66 683.94 -22.63"/><polygon class="cls-2" points="700.6 1.42 746.43 27.88 746.43 71.18 700.6 44.72 700.6 30.29 733.93 49.53 733.93 35.1 700.6 15.85 700.6 1.42"/><polygon class="cls-2" points="558.95 -22.63 621.44 13.45 642.27 1.42 579.78 -34.66 558.95 -22.63"/><polygon class="cls-2" points="683.94 193.85 746.43 229.93 767.26 217.9 704.77 181.82 683.94 193.85"/><polygon class="cls-2" points="700.6 217.9 746.43 244.36 746.43 287.66 700.6 261.2 700.6 246.77 733.93 266.01 733.93 251.58 700.6 232.34 700.6 217.9"/><polygon class="cls-2" points="746.43 157.77 725.6 169.8 788.09 205.88 808.92 193.85 746.43 157.77"/><polygon class="cls-2" points="558.95 193.85 621.44 229.93 642.27 217.9 579.78 181.82 558.95 193.85"/><polygon class="cls-2" points="621.44 157.77 600.61 169.8 663.11 205.88 683.94 193.85 621.44 157.77"/><polygon class="cls-2" points="621.44 85.61 683.94 121.69 704.77 109.66 642.27 73.58 621.44 85.61"/><polygon class="cls-2" points="638.11 109.66 683.94 136.12 683.94 179.42 638.11 152.96 638.11 138.53 671.44 157.77 671.44 143.34 638.11 124.09 638.11 109.66"/><polygon class="cls-2" points="683.94 49.53 663.11 61.55 725.6 97.64 746.43 85.61 683.94 49.53"/><polygon class="cls-2" points="700.6 1.42 746.43 27.88 746.43 71.18 700.6 44.72 700.6 30.29 733.93 49.53 733.93 35.1 700.6 15.85 700.6 1.42"/><polygon class="cls-2" points="683.94 410.33 746.43 446.42 767.26 434.39 704.77 398.31 683.94 410.33"/><polygon class="cls-2" points="700.6 434.39 746.43 460.85 746.43 504.14 700.6 477.68 700.6 463.25 733.93 482.5 733.93 468.06 700.6 448.82 700.6 434.39"/><polygon class="cls-2" points="746.43 374.25 725.6 386.28 788.09 422.36 808.92 410.33 746.43 374.25"/><polygon class="cls-2" points="558.95 410.33 621.44 446.42 642.27 434.39 579.78 398.31 558.95 410.33"/><polygon class="cls-2" points="621.44 374.25 600.61 386.28 663.11 422.36 683.94 410.33 621.44 374.25"/><polygon class="cls-2" points="621.44 302.09 683.94 338.17 704.77 326.15 642.27 290.06 621.44 302.09"/><polygon class="cls-2" points="638.11 326.15 683.94 352.61 683.94 395.9 638.11 369.44 638.11 355.01 671.44 374.25 671.44 359.82 638.11 340.58 638.11 326.15"/><polygon class="cls-2" points="683.94 266.01 663.11 278.04 725.6 314.12 746.43 302.09 683.94 266.01"/><polygon class="cls-2" points="700.6 217.9 746.43 244.36 746.43 287.66 700.6 261.2 700.6 246.77 733.93 266.01 733.93 251.58 700.6 232.34 700.6 217.9"/><polygon class="cls-2" points="683.94 482.5 663.11 494.52 725.6 530.6 746.43 518.58 683.94 482.5"/><polygon class="cls-2" points="700.6 434.39 746.43 460.85 746.43 504.14 700.6 477.68 700.6 463.25 733.93 482.5 733.93 468.06 700.6 448.82 700.6 434.39"/><polygon class="cls-2" points="558.95 -22.63 621.44 13.45 642.27 1.42 579.78 -34.66 558.95 -22.63"/><polygon class="cls-2" points="575.62 1.42 621.44 27.88 621.44 71.18 575.62 44.72 575.62 30.29 608.95 49.53 608.95 35.1 575.62 15.85 575.62 1.42"/><polygon class="cls-2" points="433.96 -22.63 496.46 13.45 517.29 1.42 454.8 -34.66 433.96 -22.63"/><polygon class="cls-2" points="558.95 193.85 621.44 229.93 642.27 217.9 579.78 181.82 558.95 193.85"/><polygon class="cls-2" points="575.62 217.9 621.44 244.36 621.44 287.66 575.62 261.2 575.62 246.77 608.95 266.01 608.95 251.58 575.62 232.34 575.62 217.9"/><polygon class="cls-2" points="621.44 157.77 600.61 169.8 663.11 205.88 683.94 193.85 621.44 157.77"/><polygon class="cls-2" points="433.96 193.85 496.46 229.93 517.29 217.9 454.8 181.82 433.96 193.85"/><polygon class="cls-2" points="496.46 157.77 475.63 169.8 538.12 205.88 558.95 193.85 496.46 157.77"/><polygon class="cls-2" points="496.46 85.61 558.95 121.69 579.78 109.66 517.29 73.58 496.46 85.61"/><polygon class="cls-2" points="513.12 109.66 558.95 136.12 558.95 179.42 513.12 152.96 513.12 138.53 546.45 157.77 546.45 143.34 513.12 124.09 513.12 109.66"/><polygon class="cls-2" points="558.95 49.53 538.12 61.55 600.61 97.64 621.44 85.61 558.95 49.53"/><polygon class="cls-2" points="575.62 1.42 621.44 27.88 621.44 71.18 575.62 44.72 575.62 30.29 608.95 49.53 608.95 35.1 575.62 15.85 575.62 1.42"/><polygon class="cls-2" points="558.95 410.33 621.44 446.42 642.27 434.39 579.78 398.31 558.95 410.33"/><polygon class="cls-2" points="575.62 434.39 621.44 460.85 621.44 504.14 575.62 477.68 575.62 463.25 608.95 482.5 608.95 468.06 575.62 448.82 575.62 434.39"/><polygon class="cls-2" points="621.44 374.25 600.61 386.28 663.11 422.36 683.94 410.33 621.44 374.25"/><polygon class="cls-2" points="433.96 410.33 496.46 446.42 517.29 434.39 454.8 398.31 433.96 410.33"/><polygon class="cls-2" points="496.46 374.25 475.63 386.28 538.12 422.36 558.95 410.33 496.46 374.25"/><polygon class="cls-2" points="496.46 302.09 558.95 338.17 579.78 326.15 517.29 290.06 496.46 302.09"/><polygon class="cls-2" points="513.12 326.15 558.95 352.61 558.95 395.9 513.12 369.44 513.12 355.01 546.45 374.25 546.45 359.82 513.12 340.58 513.12 326.15"/><polygon class="cls-2" points="558.95 266.01 538.12 278.04 600.61 314.12 621.44 302.09 558.95 266.01"/><polygon class="cls-2" points="575.62 217.9 621.44 244.36 621.44 287.66 575.62 261.2 575.62 246.77 608.95 266.01 608.95 251.58 575.62 232.34 575.62 217.9"/><polygon class="cls-2" points="558.95 482.5 538.12 494.52 600.61 530.6 621.44 518.58 558.95 482.5"/><polygon class="cls-2" points="575.62 434.39 621.44 460.85 621.44 504.14 575.62 477.68 575.62 463.25 608.95 482.5 608.95 468.06 575.62 448.82 575.62 434.39"/><polygon class="cls-2" points="433.96 -22.63 496.46 13.45 517.29 1.42 454.8 -34.66 433.96 -22.63"/><polygon class="cls-2" points="450.63 1.42 496.46 27.88 496.46 71.18 450.63 44.72 450.63 30.29 483.96 49.53 483.96 35.1 450.63 15.85 450.63 1.42"/><polygon class="cls-2" points="308.98 -22.63 371.47 13.45 392.3 1.42 329.81 -34.66 308.98 -22.63"/><polygon class="cls-2" points="433.96 193.85 496.46 229.93 517.29 217.9 454.8 181.82 433.96 193.85"/><polygon class="cls-2" points="450.63 217.9 496.46 244.36 496.46 287.66 450.63 261.2 450.63 246.77 483.96 266.01 483.96 251.58 450.63 232.34 450.63 217.9"/><polygon class="cls-2" points="496.46 157.77 475.63 169.8 538.12 205.88 558.95 193.85 496.46 157.77"/><polygon class="cls-2" points="308.98 193.85 371.47 229.93 392.3 217.9 329.81 181.82 308.98 193.85"/><polygon class="cls-2" points="371.47 157.77 350.64 169.8 413.13 205.88 433.96 193.85 371.47 157.77"/><polygon class="cls-2" points="371.47 85.61 433.96 121.69 454.8 109.66 392.3 73.58 371.47 85.61"/><polygon class="cls-2" points="388.13 109.66 433.96 136.12 433.96 179.42 388.14 152.96 388.13 138.53 421.46 157.77 421.46 143.34 388.13 124.09 388.13 109.66"/><polygon class="cls-2" points="433.96 49.53 413.13 61.55 475.63 97.64 496.46 85.61 433.96 49.53"/><polygon class="cls-2" points="450.63 1.42 496.46 27.88 496.46 71.18 450.63 44.72 450.63 30.29 483.96 49.53 483.96 35.1 450.63 15.85 450.63 1.42"/><polygon class="cls-2" points="433.96 410.33 496.46 446.42 517.29 434.39 454.8 398.31 433.96 410.33"/><polygon class="cls-2" points="450.63 434.39 496.46 460.85 496.46 504.14 450.63 477.68 450.63 463.25 483.96 482.5 483.96 468.06 450.63 448.82 450.63 434.39"/><polygon class="cls-2" points="496.46 374.25 475.63 386.28 538.12 422.36 558.95 410.33 496.46 374.25"/><polygon class="cls-2" points="308.98 410.33 371.47 446.42 392.3 434.39 329.81 398.31 308.98 410.33"/><polygon class="cls-2" points="371.47 374.25 350.64 386.28 413.13 422.36 433.96 410.33 371.47 374.25"/><polygon class="cls-2" points="371.47 302.09 433.96 338.17 454.8 326.15 392.3 290.06 371.47 302.09"/><polygon class="cls-2" points="388.13 326.15 433.96 352.61 433.96 395.9 388.14 369.44 388.13 355.01 421.46 374.25 421.46 359.82 388.13 340.58 388.13 326.15"/><polygon class="cls-2" points="433.96 266.01 413.13 278.04 475.63 314.12 496.46 302.09 433.96 266.01"/><polygon class="cls-2" points="450.63 217.9 496.46 244.36 496.46 287.66 450.63 261.2 450.63 246.77 483.96 266.01 483.96 251.58 450.63 232.34 450.63 217.9"/><polygon class="cls-2" points="433.96 482.5 413.13 494.52 475.63 530.6 496.46 518.58 433.96 482.5"/><polygon class="cls-2" points="450.63 434.39 496.46 460.85 496.46 504.14 450.63 477.68 450.63 463.25 483.96 482.5 483.96 468.06 450.63 448.82 450.63 434.39"/><polygon class="cls-2" points="308.98 -22.63 371.47 13.45 392.3 1.42 329.81 -34.66 308.98 -22.63"/><polygon class="cls-2" points="325.64 1.42 371.47 27.88 371.47 71.18 325.64 44.72 325.64 30.29 358.97 49.53 358.97 35.1 325.64 15.85 325.64 1.42"/><polygon class="cls-2" points="183.99 -22.63 246.48 13.45 267.31 1.42 204.82 -34.66 183.99 -22.63"/><polygon class="cls-2" points="308.98 193.85 371.47 229.93 392.3 217.9 329.81 181.82 308.98 193.85"/><polygon class="cls-2" points="325.64 217.9 371.47 244.36 371.47 287.66 325.64 261.2 325.64 246.77 358.97 266.01 358.97 251.58 325.64 232.34 325.64 217.9"/><polygon class="cls-2" points="371.47 157.77 350.64 169.8 413.13 205.88 433.96 193.85 371.47 157.77"/><polygon class="cls-2" points="183.99 193.85 246.48 229.93 267.31 217.9 204.82 181.82 183.99 193.85"/><polygon class="cls-2" points="246.48 157.77 225.65 169.8 288.15 205.88 308.98 193.85 246.48 157.77"/><polygon class="cls-2" points="246.48 85.61 308.98 121.69 329.81 109.66 267.31 73.58 246.48 85.61"/><polygon class="cls-2" points="263.15 109.66 308.98 136.12 308.98 179.42 263.15 152.96 263.15 138.53 296.48 157.77 296.48 143.34 263.15 124.09 263.15 109.66"/><polygon class="cls-2" points="308.98 49.53 288.15 61.55 350.64 97.64 371.47 85.61 308.98 49.53"/><polygon class="cls-2" points="325.64 1.42 371.47 27.88 371.47 71.18 325.64 44.72 325.64 30.29 358.97 49.53 358.97 35.1 325.64 15.85 325.64 1.42"/><polygon class="cls-2" points="308.98 410.33 371.47 446.42 392.3 434.39 329.81 398.31 308.98 410.33"/><polygon class="cls-2" points="325.64 434.39 371.47 460.85 371.47 504.14 325.64 477.68 325.64 463.25 358.97 482.5 358.97 468.06 325.64 448.82 325.64 434.39"/><polygon class="cls-2" points="371.47 374.25 350.64 386.28 413.13 422.36 433.96 410.33 371.47 374.25"/><polygon class="cls-2" points="183.99 410.33 246.48 446.42 267.31 434.39 204.82 398.31 183.99 410.33"/><polygon class="cls-2" points="246.48 374.25 225.65 386.28 288.15 422.36 308.98 410.33 246.48 374.25"/><polygon class="cls-2" points="246.48 302.09 308.98 338.17 329.81 326.15 267.31 290.06 246.48 302.09"/><polygon class="cls-2" points="263.15 326.15 308.98 352.61 308.98 395.9 263.15 369.44 263.15 355.01 296.48 374.25 296.48 359.82 263.15 340.58 263.15 326.15"/><polygon class="cls-2" points="308.98 266.01 288.15 278.04 350.64 314.12 371.47 302.09 308.98 266.01"/><polygon class="cls-2" points="325.64 217.9 371.47 244.36 371.47 287.66 325.64 261.2 325.64 246.77 358.97 266.01 358.97 251.58 325.64 232.34 325.64 217.9"/><polygon class="cls-2" points="308.98 482.5 288.15 494.52 350.64 530.6 371.47 518.58 308.98 482.5"/><polygon class="cls-2" points="325.64 434.39 371.47 460.85 371.47 504.14 325.64 477.68 325.64 463.25 358.97 482.5 358.97 468.06 325.64 448.82 325.64 434.39"/><polygon class="cls-2" points="183.99 -22.63 246.48 13.45 267.31 1.42 204.82 -34.66 183.99 -22.63"/><polygon class="cls-2" points="200.66 1.42 246.48 27.88 246.48 71.18 200.66 44.72 200.66 30.29 233.99 49.53 233.99 35.1 200.66 15.85 200.66 1.42"/><polygon class="cls-2" points="59 -22.63 121.5 13.45 142.33 1.42 79.83 -34.66 59 -22.63"/><polygon class="cls-2" points="183.99 193.85 246.48 229.93 267.31 217.9 204.82 181.82 183.99 193.85"/><polygon class="cls-2" points="200.66 217.9 246.48 244.36 246.48 287.66 200.66 261.2 200.66 246.77 233.99 266.01 233.99 251.58 200.66 232.34 200.66 217.9"/><polygon class="cls-2" points="246.48 157.77 225.65 169.8 288.15 205.88 308.98 193.85 246.48 157.77"/><polygon class="cls-2" points="59 193.85 121.5 229.93 142.33 217.9 79.83 181.82 59 193.85"/><polygon class="cls-2" points="121.5 157.77 100.67 169.8 163.16 205.88 183.99 193.85 121.5 157.77"/><polygon class="cls-2" points="121.5 85.61 183.99 121.69 204.82 109.66 142.33 73.58 121.5 85.61"/><polygon class="cls-2" points="138.16 109.66 183.99 136.12 183.99 179.42 138.16 152.96 138.16 138.53 171.49 157.77 171.49 143.34 138.16 124.09 138.16 109.66"/><polygon class="cls-2" points="183.99 49.53 163.16 61.55 225.65 97.64 246.48 85.61 183.99 49.53"/><polygon class="cls-2" points="200.66 1.42 246.48 27.88 246.48 71.18 200.66 44.72 200.66 30.29 233.99 49.53 233.99 35.1 200.66 15.85 200.66 1.42"/><polygon class="cls-2" points="183.99 410.33 246.48 446.42 267.31 434.39 204.82 398.31 183.99 410.33"/><polygon class="cls-2" points="200.66 434.39 246.48 460.85 246.48 504.14 200.66 477.68 200.66 463.25 233.99 482.5 233.99 468.06 200.66 448.82 200.66 434.39"/><polygon class="cls-2" points="246.48 374.25 225.65 386.28 288.15 422.36 308.98 410.33 246.48 374.25"/><polygon class="cls-2" points="59 410.33 121.5 446.42 142.33 434.39 79.83 398.31 59 410.33"/><polygon class="cls-2" points="121.5 374.25 100.67 386.28 163.16 422.36 183.99 410.33 121.5 374.25"/><polygon class="cls-2" points="121.5 302.09 183.99 338.17 204.82 326.15 142.33 290.06 121.5 302.09"/><polygon class="cls-2" points="138.16 326.15 183.99 352.61 183.99 395.9 138.16 369.44 138.16 355.01 171.49 374.25 171.49 359.82 138.16 340.58 138.16 326.15"/><polygon class="cls-2" points="183.99 266.01 163.16 278.04 225.65 314.12 246.48 302.09 183.99 266.01"/><polygon class="cls-2" points="200.66 217.9 246.48 244.36 246.48 287.66 200.66 261.2 200.66 246.77 233.99 266.01 233.99 251.58 200.66 232.34 200.66 217.9"/><polygon class="cls-2" points="183.99 482.5 163.16 494.52 225.65 530.6 246.48 518.58 183.99 482.5"/><polygon class="cls-2" points="200.66 434.39 246.48 460.85 246.48 504.14 200.66 477.68 200.66 463.25 233.99 482.5 233.99 468.06 200.66 448.82 200.66 434.39"/><polygon class="cls-2" points="59 -22.63 121.5 13.45 142.33 1.42 79.83 -34.66 59 -22.63"/><polygon class="cls-2" points="75.67 1.42 121.5 27.88 121.5 71.18 75.67 44.72 75.67 30.29 109 49.53 109 35.1 75.67 15.85 75.67 1.42"/><polygon class="cls-2" points="59 193.85 121.5 229.93 142.33 217.9 79.83 181.82 59 193.85"/><polygon class="cls-2" points="75.67 217.9 121.5 244.36 121.5 287.66 75.67 261.2 75.67 246.77 109 266.01 109 251.58 75.67 232.34 75.67 217.9"/><polygon class="cls-2" points="121.5 157.77 100.67 169.8 163.16 205.88 183.99 193.85 121.5 157.77"/><polygon class="cls-2" points="-3.49 157.77 -24.32 169.8 38.17 205.88 59 193.85 -3.49 157.77"/><polygon class="cls-2" points="-3.49 85.61 59 121.69 79.83 109.66 17.34 73.58 -3.49 85.61"/><polygon class="cls-2" points="13.18 109.66 59 136.12 59 179.42 13.18 152.96 13.18 138.53 46.51 157.77 46.51 143.34 13.18 124.09 13.18 109.66"/><polygon class="cls-2" points="59 49.53 38.17 61.55 100.67 97.64 121.5 85.61 59 49.53"/><polygon class="cls-2" points="75.67 1.42 121.5 27.88 121.5 71.18 75.67 44.72 75.67 30.29 109 49.53 109 35.1 75.67 15.85 75.67 1.42"/><polygon class="cls-2" points="59 410.33 121.5 446.42 142.33 434.39 79.83 398.31 59 410.33"/><polygon class="cls-2" points="75.67 434.39 121.5 460.85 121.5 504.14 75.67 477.68 75.67 463.25 109 482.5 109 468.06 75.67 448.82 75.67 434.39"/><polygon class="cls-2" points="121.5 374.25 100.67 386.28 163.16 422.36 183.99 410.33 121.5 374.25"/><polygon class="cls-2" points="-3.49 374.25 -24.32 386.28 38.17 422.36 59 410.33 -3.49 374.25"/><polygon class="cls-2" points="-3.49 302.09 59 338.17 79.83 326.15 17.34 290.06 -3.49 302.09"/><polygon class="cls-2" points="13.18 326.15 59 352.61 59 395.9 13.18 369.44 13.18 355.01 46.51 374.25 46.51 359.82 13.18 340.58 13.18 326.15"/><polygon class="cls-2" points="59 266.01 38.17 278.04 100.67 314.12 121.5 302.09 59 266.01"/><polygon class="cls-2" points="75.67 217.9 121.5 244.36 121.5 287.66 75.67 261.2 75.67 246.77 109 266.01 109 251.58 75.67 232.34 75.67 217.9"/><polygon class="cls-2" points="59 482.5 38.17 494.52 100.67 530.6 121.5 518.58 59 482.5"/><polygon class="cls-2" points="75.67 434.39 121.5 460.85 121.5 504.14 75.67 477.68 75.67 463.25 109 482.5 109 468.06 75.67 448.82 75.67 434.39"/><polygon class="cls-2" points="-3.49 157.77 -24.32 169.8 38.17 205.88 59 193.85 -3.49 157.77"/><polygon class="cls-2" points="-3.49 374.25 -24.32 386.28 38.17 422.36 59 410.33 -3.49 374.25"/><polygon class="cls-2" points="808.92 -22.63 871.42 13.45 892.25 1.42 829.75 -34.66 808.92 -22.63"/><polygon class="cls-2" points="808.92 193.85 871.42 229.93 892.25 217.9 829.75 181.82 808.92 193.85"/><polygon class="cls-2" points="808.92 410.33 871.42 446.42 892.25 434.39 829.75 398.31 808.92 410.33"/><polygon class="cls-2" points="808.92 -22.63 871.42 13.45 892.25 1.42 829.75 -34.66 808.92 -22.63"/><polygon class="cls-2" points="825.59 1.42 871.42 27.88 871.42 71.18 825.59 44.72 825.59 30.29 858.92 49.53 858.92 35.1 825.59 15.85 825.59 1.42"/><polygon class="cls-2" points="683.94 -22.63 746.43 13.45 767.26 1.42 704.77 -34.66 683.94 -22.63"/><polygon class="cls-2" points="808.92 193.85 871.42 229.93 892.25 217.9 829.75 181.82 808.92 193.85"/><polygon class="cls-2" points="825.59 217.9 871.42 244.36 871.42 287.66 825.59 261.2 825.59 246.77 858.92 266.01 858.92 251.58 825.59 232.34 825.59 217.9"/><polygon class="cls-2" points="683.94 193.85 746.43 229.93 767.26 217.9 704.77 181.82 683.94 193.85"/><polygon class="cls-2" points="746.43 157.77 725.6 169.8 788.09 205.88 808.92 193.85 746.43 157.77"/><polygon class="cls-2" points="746.43 85.61 808.92 121.69 829.75 109.66 767.26 73.58 746.43 85.61"/><polygon class="cls-2" points="763.1 109.66 808.92 136.12 808.92 179.42 763.1 152.96 763.1 138.53 796.42 157.77 796.42 143.34 763.1 124.09 763.1 109.66"/><polygon class="cls-2" points="808.92 49.53 788.09 61.55 850.59 97.64 871.42 85.61 808.92 49.53"/><polygon class="cls-2" points="825.59 1.42 871.42 27.88 871.42 71.18 825.59 44.72 825.59 30.29 858.92 49.53 858.92 35.1 825.59 15.85 825.59 1.42"/><polygon class="cls-2" points="808.92 410.33 871.42 446.42 892.25 434.39 829.75 398.31 808.92 410.33"/><polygon class="cls-2" points="825.59 434.39 871.42 460.85 871.42 504.14 825.59 477.68 825.59 463.25 858.92 482.5 858.92 468.06 825.59 448.82 825.59 434.39"/><polygon class="cls-2" points="683.94 410.33 746.43 446.42 767.26 434.39 704.77 398.31 683.94 410.33"/><polygon class="cls-2" points="746.43 374.25 725.6 386.28 788.09 422.36 808.92 410.33 746.43 374.25"/><polygon class="cls-2" points="746.43 302.09 808.92 338.17 829.75 326.15 767.26 290.06 746.43 302.09"/><polygon class="cls-2" points="763.1 326.15 808.92 352.61 808.92 395.9 763.1 369.44 763.1 355.01 796.42 374.25 796.42 359.82 763.1 340.58 763.1 326.15"/><polygon class="cls-2" points="808.92 266.01 788.09 278.04 850.59 314.12 871.42 302.09 808.92 266.01"/><polygon class="cls-2" points="825.59 217.9 871.42 244.36 871.42 287.66 825.59 261.2 825.59 246.77 858.92 266.01 858.92 251.58 825.59 232.34 825.59 217.9"/><polygon class="cls-2" points="808.92 482.5 788.09 494.52 850.59 530.6 871.42 518.58 808.92 482.5"/><polygon class="cls-2" points="825.59 434.39 871.42 460.85 871.42 504.14 825.59 477.68 825.59 463.25 858.92 482.5 858.92 468.06 825.59 448.82 825.59 434.39"/><polygon class="cls-2" points="683.94 -22.63 746.43 13.45 767.26 1.42 704.77 -34.66 683.94 -22.63"/><polygon class="cls-2" points="700.6 1.42 746.43 27.88 746.43 71.18 700.6 44.72 700.6 30.29 733.93 49.53 733.93 35.1 700.6 15.85 700.6 1.42"/><polygon class="cls-2" points="558.95 -22.63 621.44 13.45 642.27 1.42 579.78 -34.66 558.95 -22.63"/><polygon class="cls-2" points="683.94 193.85 746.43 229.93 767.26 217.9 704.77 181.82 683.94 193.85"/><polygon class="cls-2" points="700.6 217.9 746.43 244.36 746.43 287.66 700.6 261.2 700.6 246.77 733.93 266.01 733.93 251.58 700.6 232.34 700.6 217.9"/><polygon class="cls-2" points="746.43 157.77 725.6 169.8 788.09 205.88 808.92 193.85 746.43 157.77"/><polygon class="cls-2" points="558.95 193.85 621.44 229.93 642.27 217.9 579.78 181.82 558.95 193.85"/><polygon class="cls-2" points="621.44 157.77 600.61 169.8 663.11 205.88 683.94 193.85 621.44 157.77"/><polygon class="cls-2" points="621.44 85.61 683.94 121.69 704.77 109.66 642.27 73.58 621.44 85.61"/><polygon class="cls-2" points="638.11 109.66 683.94 136.12 683.94 179.42 638.11 152.96 638.11 138.53 671.44 157.77 671.44 143.34 638.11 124.09 638.11 109.66"/><polygon class="cls-2" points="683.94 49.53 663.11 61.55 725.6 97.64 746.43 85.61 683.94 49.53"/><polygon class="cls-2" points="700.6 1.42 746.43 27.88 746.43 71.18 700.6 44.72 700.6 30.29 733.93 49.53 733.93 35.1 700.6 15.85 700.6 1.42"/><polygon class="cls-2" points="683.94 410.33 746.43 446.42 767.26 434.39 704.77 398.31 683.94 410.33"/><polygon class="cls-2" points="700.6 434.39 746.43 460.85 746.43 504.14 700.6 477.68 700.6 463.25 733.93 482.5 733.93 468.06 700.6 448.82 700.6 434.39"/><polygon class="cls-2" points="746.43 374.25 725.6 386.28 788.09 422.36 808.92 410.33 746.43 374.25"/><polygon class="cls-2" points="558.95 410.33 621.44 446.42 642.27 434.39 579.78 398.31 558.95 410.33"/><polygon class="cls-2" points="621.44 374.25 600.61 386.28 663.11 422.36 683.94 410.33 621.44 374.25"/><polygon class="cls-2" points="621.44 302.09 683.94 338.17 704.77 326.15 642.27 290.06 621.44 302.09"/><polygon class="cls-2" points="638.11 326.15 683.94 352.61 683.94 395.9 638.11 369.44 638.11 355.01 671.44 374.25 671.44 359.82 638.11 340.58 638.11 326.15"/><polygon class="cls-2" points="683.94 266.01 663.11 278.04 725.6 314.12 746.43 302.09 683.94 266.01"/><polygon class="cls-2" points="700.6 217.9 746.43 244.36 746.43 287.66 700.6 261.2 700.6 246.77 733.93 266.01 733.93 251.58 700.6 232.34 700.6 217.9"/><polygon class="cls-2" points="683.94 482.5 663.11 494.52 725.6 530.6 746.43 518.58 683.94 482.5"/><polygon class="cls-2" points="700.6 434.39 746.43 460.85 746.43 504.14 700.6 477.68 700.6 463.25 733.93 482.5 733.93 468.06 700.6 448.82 700.6 434.39"/><polygon class="cls-2" points="558.95 -22.63 621.44 13.45 642.27 1.42 579.78 -34.66 558.95 -22.63"/><polygon class="cls-2" points="575.62 1.42 621.44 27.88 621.44 71.18 575.62 44.72 575.62 30.29 608.95 49.53 608.95 35.1 575.62 15.85 575.62 1.42"/><polygon class="cls-2" points="433.96 -22.63 496.46 13.45 517.29 1.42 454.8 -34.66 433.96 -22.63"/><polygon class="cls-2" points="558.95 193.85 621.44 229.93 642.27 217.9 579.78 181.82 558.95 193.85"/><polygon class="cls-2" points="575.62 217.9 621.44 244.36 621.44 287.66 575.62 261.2 575.62 246.77 608.95 266.01 608.95 251.58 575.62 232.34 575.62 217.9"/><polygon class="cls-2" points="621.44 157.77 600.61 169.8 663.11 205.88 683.94 193.85 621.44 157.77"/><polygon class="cls-2" points="433.96 193.85 496.46 229.93 517.29 217.9 454.8 181.82 433.96 193.85"/><polygon class="cls-2" points="496.46 157.77 475.63 169.8 538.12 205.88 558.95 193.85 496.46 157.77"/><polygon class="cls-2" points="496.46 85.61 558.95 121.69 579.78 109.66 517.29 73.58 496.46 85.61"/><polygon class="cls-2" points="513.12 109.66 558.95 136.12 558.95 179.42 513.12 152.96 513.12 138.53 546.45 157.77 546.45 143.34 513.12 124.09 513.12 109.66"/><polygon class="cls-2" points="558.95 49.53 538.12 61.55 600.61 97.64 621.44 85.61 558.95 49.53"/><polygon class="cls-2" points="575.62 1.42 621.44 27.88 621.44 71.18 575.62 44.72 575.62 30.29 608.95 49.53 608.95 35.1 575.62 15.85 575.62 1.42"/><polygon class="cls-2" points="558.95 410.33 621.44 446.42 642.27 434.39 579.78 398.31 558.95 410.33"/><polygon class="cls-2" points="575.62 434.39 621.44 460.85 621.44 504.14 575.62 477.68 575.62 463.25 608.95 482.5 608.95 468.06 575.62 448.82 575.62 434.39"/><polygon class="cls-2" points="621.44 374.25 600.61 386.28 663.11 422.36 683.94 410.33 621.44 374.25"/><polygon class="cls-2" points="433.96 410.33 496.46 446.42 517.29 434.39 454.8 398.31 433.96 410.33"/><polygon class="cls-2" points="496.46 374.25 475.63 386.28 538.12 422.36 558.95 410.33 496.46 374.25"/><polygon class="cls-2" points="496.46 302.09 558.95 338.17 579.78 326.15 517.29 290.06 496.46 302.09"/><polygon class="cls-2" points="513.12 326.15 558.95 352.61 558.95 395.9 513.12 369.44 513.12 355.01 546.45 374.25 546.45 359.82 513.12 340.58 513.12 326.15"/><polygon class="cls-2" points="558.95 266.01 538.12 278.04 600.61 314.12 621.44 302.09 558.95 266.01"/><polygon class="cls-2" points="575.62 217.9 621.44 244.36 621.44 287.66 575.62 261.2 575.62 246.77 608.95 266.01 608.95 251.58 575.62 232.34 575.62 217.9"/><polygon class="cls-2" points="558.95 482.5 538.12 494.52 600.61 530.6 621.44 518.58 558.95 482.5"/><polygon class="cls-2" points="575.62 434.39 621.44 460.85 621.44 504.14 575.62 477.68 575.62 463.25 608.95 482.5 608.95 468.06 575.62 448.82 575.62 434.39"/><polygon class="cls-2" points="433.96 -22.63 496.46 13.45 517.29 1.42 454.8 -34.66 433.96 -22.63"/><polygon class="cls-2" points="450.63 1.42 496.46 27.88 496.46 71.18 450.63 44.72 450.63 30.29 483.96 49.53 483.96 35.1 450.63 15.85 450.63 1.42"/><polygon class="cls-2" points="308.98 -22.63 371.47 13.45 392.3 1.42 329.81 -34.66 308.98 -22.63"/><polygon class="cls-2" points="433.96 193.85 496.46 229.93 517.29 217.9 454.8 181.82 433.96 193.85"/><polygon class="cls-2" points="450.63 217.9 496.46 244.36 496.46 287.66 450.63 261.2 450.63 246.77 483.96 266.01 483.96 251.58 450.63 232.34 450.63 217.9"/><polygon class="cls-2" points="496.46 157.77 475.63 169.8 538.12 205.88 558.95 193.85 496.46 157.77"/><polygon class="cls-2" points="308.98 193.85 371.47 229.93 392.3 217.9 329.81 181.82 308.98 193.85"/><polygon class="cls-2" points="371.47 157.77 350.64 169.8 413.13 205.88 433.96 193.85 371.47 157.77"/><polygon class="cls-2" points="371.47 85.61 433.96 121.69 454.8 109.66 392.3 73.58 371.47 85.61"/><polygon class="cls-2" points="388.13 109.66 433.96 136.12 433.96 179.42 388.14 152.96 388.13 138.53 421.46 157.77 421.46 143.34 388.13 124.09 388.13 109.66"/><polygon class="cls-2" points="433.96 49.53 413.13 61.55 475.63 97.64 496.46 85.61 433.96 49.53"/><polygon class="cls-2" points="450.63 1.42 496.46 27.88 496.46 71.18 450.63 44.72 450.63 30.29 483.96 49.53 483.96 35.1 450.63 15.85 450.63 1.42"/><polygon class="cls-2" points="433.96 410.33 496.46 446.42 517.29 434.39 454.8 398.31 433.96 410.33"/><polygon class="cls-2" points="450.63 434.39 496.46 460.85 496.46 504.14 450.63 477.68 450.63 463.25 483.96 482.5 483.96 468.06 450.63 448.82 450.63 434.39"/><polygon class="cls-2" points="496.46 374.25 475.63 386.28 538.12 422.36 558.95 410.33 496.46 374.25"/><polygon class="cls-2" points="308.98 410.33 371.47 446.42 392.3 434.39 329.81 398.31 308.98 410.33"/><polygon class="cls-2" points="371.47 374.25 350.64 386.28 413.13 422.36 433.96 410.33 371.47 374.25"/><polygon class="cls-2" points="371.47 302.09 433.96 338.17 454.8 326.15 392.3 290.06 371.47 302.09"/><polygon class="cls-2" points="388.13 326.15 433.96 352.61 433.96 395.9 388.14 369.44 388.13 355.01 421.46 374.25 421.46 359.82 388.13 340.58 388.13 326.15"/><polygon class="cls-2" points="433.96 266.01 413.13 278.04 475.63 314.12 496.46 302.09 433.96 266.01"/><polygon class="cls-2" points="450.63 217.9 496.46 244.36 496.46 287.66 450.63 261.2 450.63 246.77 483.96 266.01 483.96 251.58 450.63 232.34 450.63 217.9"/><polygon class="cls-2" points="433.96 482.5 413.13 494.52 475.63 530.6 496.46 518.58 433.96 482.5"/><polygon class="cls-2" points="450.63 434.39 496.46 460.85 496.46 504.14 450.63 477.68 450.63 463.25 483.96 482.5 483.96 468.06 450.63 448.82 450.63 434.39"/><polygon class="cls-2" points="308.98 -22.63 371.47 13.45 392.3 1.42 329.81 -34.66 308.98 -22.63"/><polygon class="cls-2" points="325.64 1.42 371.47 27.88 371.47 71.18 325.64 44.72 325.64 30.29 358.97 49.53 358.97 35.1 325.64 15.85 325.64 1.42"/><polygon class="cls-2" points="183.99 -22.63 246.48 13.45 267.31 1.42 204.82 -34.66 183.99 -22.63"/><polygon class="cls-2" points="308.98 193.85 371.47 229.93 392.3 217.9 329.81 181.82 308.98 193.85"/><polygon class="cls-2" points="325.64 217.9 371.47 244.36 371.47 287.66 325.64 261.2 325.64 246.77 358.97 266.01 358.97 251.58 325.64 232.34 325.64 217.9"/><polygon class="cls-2" points="371.47 157.77 350.64 169.8 413.13 205.88 433.96 193.85 371.47 157.77"/><polygon class="cls-2" points="183.99 193.85 246.48 229.93 267.31 217.9 204.82 181.82 183.99 193.85"/><polygon class="cls-2" points="246.48 157.77 225.65 169.8 288.15 205.88 308.98 193.85 246.48 157.77"/><polygon class="cls-2" points="246.48 85.61 308.98 121.69 329.81 109.66 267.31 73.58 246.48 85.61"/><polygon class="cls-2" points="263.15 109.66 308.98 136.12 308.98 179.42 263.15 152.96 263.15 138.53 296.48 157.77 296.48 143.34 263.15 124.09 263.15 109.66"/><polygon class="cls-2" points="308.98 49.53 288.15 61.55 350.64 97.64 371.47 85.61 308.98 49.53"/><polygon class="cls-2" points="325.64 1.42 371.47 27.88 371.47 71.18 325.64 44.72 325.64 30.29 358.97 49.53 358.97 35.1 325.64 15.85 325.64 1.42"/><polygon class="cls-2" points="308.98 410.33 371.47 446.42 392.3 434.39 329.81 398.31 308.98 410.33"/><polygon class="cls-2" points="325.64 434.39 371.47 460.85 371.47 504.14 325.64 477.68 325.64 463.25 358.97 482.5 358.97 468.06 325.64 448.82 325.64 434.39"/><polygon class="cls-2" points="371.47 374.25 350.64 386.28 413.13 422.36 433.96 410.33 371.47 374.25"/><polygon class="cls-2" points="183.99 410.33 246.48 446.42 267.31 434.39 204.82 398.31 183.99 410.33"/><polygon class="cls-2" points="246.48 374.25 225.65 386.28 288.15 422.36 308.98 410.33 246.48 374.25"/><polygon class="cls-2" points="246.48 302.09 308.98 338.17 329.81 326.15 267.31 290.06 246.48 302.09"/><polygon class="cls-2" points="263.15 326.15 308.98 352.61 308.98 395.9 263.15 369.44 263.15 355.01 296.48 374.25 296.48 359.82 263.15 340.58 263.15 326.15"/><polygon class="cls-2" points="308.98 266.01 288.15 278.04 350.64 314.12 371.47 302.09 308.98 266.01"/><polygon class="cls-2" points="325.64 217.9 371.47 244.36 371.47 287.66 325.64 261.2 325.64 246.77 358.97 266.01 358.97 251.58 325.64 232.34 325.64 217.9"/><polygon class="cls-2" points="308.98 482.5 288.15 494.52 350.64 530.6 371.47 518.58 308.98 482.5"/><polygon class="cls-2" points="325.64 434.39 371.47 460.85 371.47 504.14 325.64 477.68 325.64 463.25 358.97 482.5 358.97 468.06 325.64 448.82 325.64 434.39"/><polygon class="cls-2" points="183.99 -22.63 246.48 13.45 267.31 1.42 204.82 -34.66 183.99 -22.63"/><polygon class="cls-2" points="200.66 1.42 246.48 27.88 246.48 71.18 200.66 44.72 200.66 30.29 233.99 49.53 233.99 35.1 200.66 15.85 200.66 1.42"/><polygon class="cls-2" points="59 -22.63 121.5 13.45 142.33 1.42 79.83 -34.66 59 -22.63"/><polygon class="cls-2" points="183.99 193.85 246.48 229.93 267.31 217.9 204.82 181.82 183.99 193.85"/><polygon class="cls-2" points="200.66 217.9 246.48 244.36 246.48 287.66 200.66 261.2 200.66 246.77 233.99 266.01 233.99 251.58 200.66 232.34 200.66 217.9"/><polygon class="cls-2" points="246.48 157.77 225.65 169.8 288.15 205.88 308.98 193.85 246.48 157.77"/><polygon class="cls-2" points="59 193.85 121.5 229.93 142.33 217.9 79.83 181.82 59 193.85"/><polygon class="cls-2" points="121.5 157.77 100.67 169.8 163.16 205.88 183.99 193.85 121.5 157.77"/><polygon class="cls-2" points="121.5 85.61 183.99 121.69 204.82 109.66 142.33 73.58 121.5 85.61"/><polygon class="cls-2" points="138.16 109.66 183.99 136.12 183.99 179.42 138.16 152.96 138.16 138.53 171.49 157.77 171.49 143.34 138.16 124.09 138.16 109.66"/><polygon class="cls-2" points="183.99 49.53 163.16 61.55 225.65 97.64 246.48 85.61 183.99 49.53"/><polygon class="cls-2" points="200.66 1.42 246.48 27.88 246.48 71.18 200.66 44.72 200.66 30.29 233.99 49.53 233.99 35.1 200.66 15.85 200.66 1.42"/><polygon class="cls-2" points="183.99 410.33 246.48 446.42 267.31 434.39 204.82 398.31 183.99 410.33"/><polygon class="cls-2" points="200.66 434.39 246.48 460.85 246.48 504.14 200.66 477.68 200.66 463.25 233.99 482.5 233.99 468.06 200.66 448.82 200.66 434.39"/><polygon class="cls-2" points="246.48 374.25 225.65 386.28 288.15 422.36 308.98 410.33 246.48 374.25"/><polygon class="cls-2" points="59 410.33 121.5 446.42 142.33 434.39 79.83 398.31 59 410.33"/><polygon class="cls-2" points="121.5 374.25 100.67 386.28 163.16 422.36 183.99 410.33 121.5 374.25"/><polygon class="cls-2" points="121.5 302.09 183.99 338.17 204.82 326.15 142.33 290.06 121.5 302.09"/><polygon class="cls-2" points="138.16 326.15 183.99 352.61 183.99 395.9 138.16 369.44 138.16 355.01 171.49 374.25 171.49 359.82 138.16 340.58 138.16 326.15"/><polygon class="cls-2" points="183.99 266.01 163.16 278.04 225.65 314.12 246.48 302.09 183.99 266.01"/><polygon class="cls-2" points="200.66 217.9 246.48 244.36 246.48 287.66 200.66 261.2 200.66 246.77 233.99 266.01 233.99 251.58 200.66 232.34 200.66 217.9"/><polygon class="cls-2" points="183.99 482.5 163.16 494.52 225.65 530.6 246.48 518.58 183.99 482.5"/><polygon class="cls-2" points="200.66 434.39 246.48 460.85 246.48 504.14 200.66 477.68 200.66 463.25 233.99 482.5 233.99 468.06 200.66 448.82 200.66 434.39"/><polygon class="cls-2" points="59 -22.63 121.5 13.45 142.33 1.42 79.83 -34.66 59 -22.63"/><polygon class="cls-2" points="75.67 1.42 121.5 27.88 121.5 71.18 75.67 44.72 75.67 30.29 109 49.53 109 35.1 75.67 15.85 75.67 1.42"/><polygon class="cls-2" points="59 193.85 121.5 229.93 142.33 217.9 79.83 181.82 59 193.85"/><polygon class="cls-2" points="75.67 217.9 121.5 244.36 121.5 287.66 75.67 261.2 75.67 246.77 109 266.01 109 251.58 75.67 232.34 75.67 217.9"/><polygon class="cls-2" points="121.5 157.77 100.67 169.8 163.16 205.88 183.99 193.85 121.5 157.77"/><polygon class="cls-2" points="-3.49 157.77 -24.32 169.8 38.17 205.88 59 193.85 -3.49 157.77"/><polygon class="cls-2" points="-3.49 85.61 59 121.69 79.83 109.66 17.34 73.58 -3.49 85.61"/><polygon class="cls-2" points="13.18 109.66 59 136.12 59 179.42 13.18 152.96 13.18 138.53 46.51 157.77 46.51 143.34 13.18 124.09 13.18 109.66"/><polygon class="cls-2" points="59 49.53 38.17 61.55 100.67 97.64 121.5 85.61 59 49.53"/><polygon class="cls-2" points="75.67 1.42 121.5 27.88 121.5 71.18 75.67 44.72 75.67 30.29 109 49.53 109 35.1 75.67 15.85 75.67 1.42"/><polygon class="cls-2" points="59 410.33 121.5 446.42 142.33 434.39 79.83 398.31 59 410.33"/><polygon class="cls-2" points="75.67 434.39 121.5 460.85 121.5 504.14 75.67 477.68 75.67 463.25 109 482.5 109 468.06 75.67 448.82 75.67 434.39"/><polygon class="cls-2" points="121.5 374.25 100.67 386.28 163.16 422.36 183.99 410.33 121.5 374.25"/><polygon class="cls-2" points="-3.49 374.25 -24.32 386.28 38.17 422.36 59 410.33 -3.49 374.25"/><polygon class="cls-2" points="-3.49 302.09 59 338.17 79.83 326.15 17.34 290.06 -3.49 302.09"/><polygon class="cls-2" points="13.18 326.15 59 352.61 59 395.9 13.18 369.44 13.18 355.01 46.51 374.25 46.51 359.82 13.18 340.58 13.18 326.15"/><polygon class="cls-2" points="59 266.01 38.17 278.04 100.67 314.12 121.5 302.09 59 266.01"/><polygon class="cls-2" points="75.67 217.9 121.5 244.36 121.5 287.66 75.67 261.2 75.67 246.77 109 266.01 109 251.58 75.67 232.34 75.67 217.9"/><polygon class="cls-2" points="59 482.5 38.17 494.52 100.67 530.6 121.5 518.58 59 482.5"/><polygon class="cls-2" points="75.67 434.39 121.5 460.85 121.5 504.14 75.67 477.68 75.67 463.25 109 482.5 109 468.06 75.67 448.82 75.67 434.39"/><polygon class="cls-2" points="-3.49 157.77 -24.32 169.8 38.17 205.88 59 193.85 -3.49 157.77"/><polygon class="cls-2" points="-3.49 374.25 -24.32 386.28 38.17 422.36 59 410.33 -3.49 374.25"/><polygon class="cls-2" points="808.92 -22.63 871.42 13.45 892.25 1.42 829.75 -34.66 808.92 -22.63"/><polygon class="cls-2" points="808.92 193.85 871.42 229.93 892.25 217.9 829.75 181.82 808.92 193.85"/><polygon class="cls-2" points="808.92 410.33 871.42 446.42 892.25 434.39 829.75 398.31 808.92 410.33"/><polygon class="cls-2" points="808.92 -22.63 871.42 13.45 892.25 1.42 829.75 -34.66 808.92 -22.63"/><polygon class="cls-2" points="825.59 1.42 871.42 27.88 871.42 71.18 825.59 44.72 825.59 30.29 858.92 49.53 858.92 35.1 825.59 15.85 825.59 1.42"/><polygon class="cls-2" points="683.94 -22.63 746.43 13.45 767.26 1.42 704.77 -34.66 683.94 -22.63"/><polygon class="cls-2" points="808.92 193.85 871.42 229.93 892.25 217.9 829.75 181.82 808.92 193.85"/><polygon class="cls-2" points="825.59 217.9 871.42 244.36 871.42 287.66 825.59 261.2 825.59 246.77 858.92 266.01 858.92 251.58 825.59 232.34 825.59 217.9"/><polygon class="cls-2" points="683.94 193.85 746.43 229.93 767.26 217.9 704.77 181.82 683.94 193.85"/><polygon class="cls-2" points="746.43 157.77 725.6 169.8 788.09 205.88 808.92 193.85 746.43 157.77"/><polygon class="cls-2" points="746.43 85.61 808.92 121.69 829.75 109.66 767.26 73.58 746.43 85.61"/><polygon class="cls-2" points="763.1 109.66 808.92 136.12 808.92 179.42 763.1 152.96 763.1 138.53 796.42 157.77 796.42 143.34 763.1 124.09 763.1 109.66"/><polygon class="cls-2" points="808.92 49.53 788.09 61.55 850.59 97.64 871.42 85.61 808.92 49.53"/><polygon class="cls-2" points="825.59 1.42 871.42 27.88 871.42 71.18 825.59 44.72 825.59 30.29 858.92 49.53 858.92 35.1 825.59 15.85 825.59 1.42"/><polygon class="cls-2" points="808.92 410.33 871.42 446.42 892.25 434.39 829.75 398.31 808.92 410.33"/><polygon class="cls-2" points="825.59 434.39 871.42 460.85 871.42 504.14 825.59 477.68 825.59 463.25 858.92 482.5 858.92 468.06 825.59 448.82 825.59 434.39"/><polygon class="cls-2" points="683.94 410.33 746.43 446.42 767.26 434.39 704.77 398.31 683.94 410.33"/><polygon class="cls-2" points="746.43 374.25 725.6 386.28 788.09 422.36 808.92 410.33 746.43 374.25"/><polygon class="cls-2" points="746.43 302.09 808.92 338.17 829.75 326.15 767.26 290.06 746.43 302.09"/><polygon class="cls-2" points="763.1 326.15 808.92 352.61 808.92 395.9 763.1 369.44 763.1 355.01 796.42 374.25 796.42 359.82 763.1 340.58 763.1 326.15"/><polygon class="cls-2" points="808.92 266.01 788.09 278.04 850.59 314.12 871.42 302.09 808.92 266.01"/><polygon class="cls-2" points="825.59 217.9 871.42 244.36 871.42 287.66 825.59 261.2 825.59 246.77 858.92 266.01 858.92 251.58 825.59 232.34 825.59 217.9"/><polygon class="cls-2" points="808.92 482.5 788.09 494.52 850.59 530.6 871.42 518.58 808.92 482.5"/><polygon class="cls-2" points="825.59 434.39 871.42 460.85 871.42 504.14 825.59 477.68 825.59 463.25 858.92 482.5 858.92 468.06 825.59 448.82 825.59 434.39"/><polygon class="cls-2" points="683.94 -22.63 746.43 13.45 767.26 1.42 704.77 -34.66 683.94 -22.63"/><polygon class="cls-2" points="700.6 1.42 746.43 27.88 746.43 71.18 700.6 44.72 700.6 30.29 733.93 49.53 733.93 35.1 700.6 15.85 700.6 1.42"/><polygon class="cls-2" points="558.95 -22.63 621.44 13.45 642.27 1.42 579.78 -34.66 558.95 -22.63"/><polygon class="cls-2" points="683.94 193.85 746.43 229.93 767.26 217.9 704.77 181.82 683.94 193.85"/><polygon class="cls-2" points="700.6 217.9 746.43 244.36 746.43 287.66 700.6 261.2 700.6 246.77 733.93 266.01 733.93 251.58 700.6 232.34 700.6 217.9"/><polygon class="cls-2" points="746.43 157.77 725.6 169.8 788.09 205.88 808.92 193.85 746.43 157.77"/><polygon class="cls-2" points="558.95 193.85 621.44 229.93 642.27 217.9 579.78 181.82 558.95 193.85"/><polygon class="cls-2" points="621.44 157.77 600.61 169.8 663.11 205.88 683.94 193.85 621.44 157.77"/><polygon class="cls-2" points="621.44 85.61 683.94 121.69 704.77 109.66 642.27 73.58 621.44 85.61"/><polygon class="cls-2" points="638.11 109.66 683.94 136.12 683.94 179.42 638.11 152.96 638.11 138.53 671.44 157.77 671.44 143.34 638.11 124.09 638.11 109.66"/><polygon class="cls-2" points="683.94 49.53 663.11 61.55 725.6 97.64 746.43 85.61 683.94 49.53"/><polygon class="cls-2" points="700.6 1.42 746.43 27.88 746.43 71.18 700.6 44.72 700.6 30.29 733.93 49.53 733.93 35.1 700.6 15.85 700.6 1.42"/><polygon class="cls-2" points="683.94 410.33 746.43 446.42 767.26 434.39 704.77 398.31 683.94 410.33"/><polygon class="cls-2" points="700.6 434.39 746.43 460.85 746.43 504.14 700.6 477.68 700.6 463.25 733.93 482.5 733.93 468.06 700.6 448.82 700.6 434.39"/><polygon class="cls-2" points="746.43 374.25 725.6 386.28 788.09 422.36 808.92 410.33 746.43 374.25"/><polygon class="cls-2" points="558.95 410.33 621.44 446.42 642.27 434.39 579.78 398.31 558.95 410.33"/><polygon class="cls-2" points="621.44 374.25 600.61 386.28 663.11 422.36 683.94 410.33 621.44 374.25"/><polygon class="cls-2" points="621.44 302.09 683.94 338.17 704.77 326.15 642.27 290.06 621.44 302.09"/><polygon class="cls-2" points="638.11 326.15 683.94 352.61 683.94 395.9 638.11 369.44 638.11 355.01 671.44 374.25 671.44 359.82 638.11 340.58 638.11 326.15"/><polygon class="cls-2" points="683.94 266.01 663.11 278.04 725.6 314.12 746.43 302.09 683.94 266.01"/><polygon class="cls-2" points="700.6 217.9 746.43 244.36 746.43 287.66 700.6 261.2 700.6 246.77 733.93 266.01 733.93 251.58 700.6 232.34 700.6 217.9"/><polygon class="cls-2" points="683.94 482.5 663.11 494.52 725.6 530.6 746.43 518.58 683.94 482.5"/><polygon class="cls-2" points="700.6 434.39 746.43 460.85 746.43 504.14 700.6 477.68 700.6 463.25 733.93 482.5 733.93 468.06 700.6 448.82 700.6 434.39"/><polygon class="cls-2" points="558.95 -22.63 621.44 13.45 642.27 1.42 579.78 -34.66 558.95 -22.63"/><polygon class="cls-2" points="575.62 1.42 621.44 27.88 621.44 71.18 575.62 44.72 575.62 30.29 608.95 49.53 608.95 35.1 575.62 15.85 575.62 1.42"/><polygon class="cls-2" points="433.96 -22.63 496.46 13.45 517.29 1.42 454.8 -34.66 433.96 -22.63"/><polygon class="cls-2" points="558.95 193.85 621.44 229.93 642.27 217.9 579.78 181.82 558.95 193.85"/><polygon class="cls-2" points="575.62 217.9 621.44 244.36 621.44 287.66 575.62 261.2 575.62 246.77 608.95 266.01 608.95 251.58 575.62 232.34 575.62 217.9"/><polygon class="cls-2" points="621.44 157.77 600.61 169.8 663.11 205.88 683.94 193.85 621.44 157.77"/><polygon class="cls-2" points="433.96 193.85 496.46 229.93 517.29 217.9 454.8 181.82 433.96 193.85"/><polygon class="cls-2" points="496.46 157.77 475.63 169.8 538.12 205.88 558.95 193.85 496.46 157.77"/><polygon class="cls-2" points="496.46 85.61 558.95 121.69 579.78 109.66 517.29 73.58 496.46 85.61"/><polygon class="cls-2" points="513.12 109.66 558.95 136.12 558.95 179.42 513.12 152.96 513.12 138.53 546.45 157.77 546.45 143.34 513.12 124.09 513.12 109.66"/><polygon class="cls-2" points="558.95 49.53 538.12 61.55 600.61 97.64 621.44 85.61 558.95 49.53"/><polygon class="cls-2" points="575.62 1.42 621.44 27.88 621.44 71.18 575.62 44.72 575.62 30.29 608.95 49.53 608.95 35.1 575.62 15.85 575.62 1.42"/><polygon class="cls-2" points="558.95 410.33 621.44 446.42 642.27 434.39 579.78 398.31 558.95 410.33"/><polygon class="cls-2" points="575.62 434.39 621.44 460.85 621.44 504.14 575.62 477.68 575.62 463.25 608.95 482.5 608.95 468.06 575.62 448.82 575.62 434.39"/><polygon class="cls-2" points="621.44 374.25 600.61 386.28 663.11 422.36 683.94 410.33 621.44 374.25"/><polygon class="cls-2" points="433.96 410.33 496.46 446.42 517.29 434.39 454.8 398.31 433.96 410.33"/><polygon class="cls-2" points="496.46 374.25 475.63 386.28 538.12 422.36 558.95 410.33 496.46 374.25"/><polygon class="cls-2" points="496.46 302.09 558.95 338.17 579.78 326.15 517.29 290.06 496.46 302.09"/><polygon class="cls-2" points="513.12 326.15 558.95 352.61 558.95 395.9 513.12 369.44 513.12 355.01 546.45 374.25 546.45 359.82 513.12 340.58 513.12 326.15"/><polygon class="cls-2" points="558.95 266.01 538.12 278.04 600.61 314.12 621.44 302.09 558.95 266.01"/><polygon class="cls-2" points="575.62 217.9 621.44 244.36 621.44 287.66 575.62 261.2 575.62 246.77 608.95 266.01 608.95 251.58 575.62 232.34 575.62 217.9"/><polygon class="cls-2" points="558.95 482.5 538.12 494.52 600.61 530.6 621.44 518.58 558.95 482.5"/><polygon class="cls-2" points="575.62 434.39 621.44 460.85 621.44 504.14 575.62 477.68 575.62 463.25 608.95 482.5 608.95 468.06 575.62 448.82 575.62 434.39"/><polygon class="cls-2" points="433.96 -22.63 496.46 13.45 517.29 1.42 454.8 -34.66 433.96 -22.63"/><polygon class="cls-2" points="450.63 1.42 496.46 27.88 496.46 71.18 450.63 44.72 450.63 30.29 483.96 49.53 483.96 35.1 450.63 15.85 450.63 1.42"/><polygon class="cls-2" points="308.98 -22.63 371.47 13.45 392.3 1.42 329.81 -34.66 308.98 -22.63"/><polygon class="cls-2" points="433.96 193.85 496.46 229.93 517.29 217.9 454.8 181.82 433.96 193.85"/><polygon class="cls-2" points="450.63 217.9 496.46 244.36 496.46 287.66 450.63 261.2 450.63 246.77 483.96 266.01 483.96 251.58 450.63 232.34 450.63 217.9"/><polygon class="cls-2" points="496.46 157.77 475.63 169.8 538.12 205.88 558.95 193.85 496.46 157.77"/><polygon class="cls-2" points="308.98 193.85 371.47 229.93 392.3 217.9 329.81 181.82 308.98 193.85"/><polygon class="cls-2" points="371.47 157.77 350.64 169.8 413.13 205.88 433.96 193.85 371.47 157.77"/><polygon class="cls-2" points="371.47 85.61 433.96 121.69 454.8 109.66 392.3 73.58 371.47 85.61"/><polygon class="cls-2" points="388.13 109.66 433.96 136.12 433.96 179.42 388.14 152.96 388.13 138.53 421.46 157.77 421.46 143.34 388.13 124.09 388.13 109.66"/><polygon class="cls-2" points="433.96 49.53 413.13 61.55 475.63 97.64 496.46 85.61 433.96 49.53"/><polygon class="cls-2" points="450.63 1.42 496.46 27.88 496.46 71.18 450.63 44.72 450.63 30.29 483.96 49.53 483.96 35.1 450.63 15.85 450.63 1.42"/><polygon class="cls-2" points="433.96 410.33 496.46 446.42 517.29 434.39 454.8 398.31 433.96 410.33"/><polygon class="cls-2" points="450.63 434.39 496.46 460.85 496.46 504.14 450.63 477.68 450.63 463.25 483.96 482.5 483.96 468.06 450.63 448.82 450.63 434.39"/><polygon class="cls-2" points="496.46 374.25 475.63 386.28 538.12 422.36 558.95 410.33 496.46 374.25"/><polygon class="cls-2" points="308.98 410.33 371.47 446.42 392.3 434.39 329.81 398.31 308.98 410.33"/><polygon class="cls-2" points="371.47 374.25 350.64 386.28 413.13 422.36 433.96 410.33 371.47 374.25"/><polygon class="cls-2" points="371.47 302.09 433.96 338.17 454.8 326.15 392.3 290.06 371.47 302.09"/><polygon class="cls-2" points="388.13 326.15 433.96 352.61 433.96 395.9 388.14 369.44 388.13 355.01 421.46 374.25 421.46 359.82 388.13 340.58 388.13 326.15"/><polygon class="cls-2" points="433.96 266.01 413.13 278.04 475.63 314.12 496.46 302.09 433.96 266.01"/><polygon class="cls-2" points="450.63 217.9 496.46 244.36 496.46 287.66 450.63 261.2 450.63 246.77 483.96 266.01 483.96 251.58 450.63 232.34 450.63 217.9"/><polygon class="cls-2" points="433.96 482.5 413.13 494.52 475.63 530.6 496.46 518.58 433.96 482.5"/><polygon class="cls-2" points="450.63 434.39 496.46 460.85 496.46 504.14 450.63 477.68 450.63 463.25 483.96 482.5 483.96 468.06 450.63 448.82 450.63 434.39"/><polygon class="cls-2" points="308.98 -22.63 371.47 13.45 392.3 1.42 329.81 -34.66 308.98 -22.63"/><polygon class="cls-2" points="325.64 1.42 371.47 27.88 371.47 71.18 325.64 44.72 325.64 30.29 358.97 49.53 358.97 35.1 325.64 15.85 325.64 1.42"/><polygon class="cls-2" points="183.99 -22.63 246.48 13.45 267.31 1.42 204.82 -34.66 183.99 -22.63"/><polygon class="cls-2" points="308.98 193.85 371.47 229.93 392.3 217.9 329.81 181.82 308.98 193.85"/><polygon class="cls-2" points="325.64 217.9 371.47 244.36 371.47 287.66 325.64 261.2 325.64 246.77 358.97 266.01 358.97 251.58 325.64 232.34 325.64 217.9"/><polygon class="cls-2" points="371.47 157.77 350.64 169.8 413.13 205.88 433.96 193.85 371.47 157.77"/><polygon class="cls-2" points="183.99 193.85 246.48 229.93 267.31 217.9 204.82 181.82 183.99 193.85"/><polygon class="cls-2" points="246.48 157.77 225.65 169.8 288.15 205.88 308.98 193.85 246.48 157.77"/><polygon class="cls-2" points="246.48 85.61 308.98 121.69 329.81 109.66 267.31 73.58 246.48 85.61"/><polygon class="cls-2" points="263.15 109.66 308.98 136.12 308.98 179.42 263.15 152.96 263.15 138.53 296.48 157.77 296.48 143.34 263.15 124.09 263.15 109.66"/><polygon class="cls-2" points="308.98 49.53 288.15 61.55 350.64 97.64 371.47 85.61 308.98 49.53"/><polygon class="cls-2" points="325.64 1.42 371.47 27.88 371.47 71.18 325.64 44.72 325.64 30.29 358.97 49.53 358.97 35.1 325.64 15.85 325.64 1.42"/><polygon class="cls-2" points="308.98 410.33 371.47 446.42 392.3 434.39 329.81 398.31 308.98 410.33"/><polygon class="cls-2" points="325.64 434.39 371.47 460.85 371.47 504.14 325.64 477.68 325.64 463.25 358.97 482.5 358.97 468.06 325.64 448.82 325.64 434.39"/><polygon class="cls-2" points="371.47 374.25 350.64 386.28 413.13 422.36 433.96 410.33 371.47 374.25"/><polygon class="cls-2" points="183.99 410.33 246.48 446.42 267.31 434.39 204.82 398.31 183.99 410.33"/><polygon class="cls-2" points="246.48 374.25 225.65 386.28 288.15 422.36 308.98 410.33 246.48 374.25"/><polygon class="cls-2" points="246.48 302.09 308.98 338.17 329.81 326.15 267.31 290.06 246.48 302.09"/><polygon class="cls-2" points="263.15 326.15 308.98 352.61 308.98 395.9 263.15 369.44 263.15 355.01 296.48 374.25 296.48 359.82 263.15 340.58 263.15 326.15"/><polygon class="cls-2" points="308.98 266.01 288.15 278.04 350.64 314.12 371.47 302.09 308.98 266.01"/><polygon class="cls-2" points="325.64 217.9 371.47 244.36 371.47 287.66 325.64 261.2 325.64 246.77 358.97 266.01 358.97 251.58 325.64 232.34 325.64 217.9"/><polygon class="cls-2" points="308.98 482.5 288.15 494.52 350.64 530.6 371.47 518.58 308.98 482.5"/><polygon class="cls-2" points="325.64 434.39 371.47 460.85 371.47 504.14 325.64 477.68 325.64 463.25 358.97 482.5 358.97 468.06 325.64 448.82 325.64 434.39"/><polygon class="cls-2" points="183.99 -22.63 246.48 13.45 267.31 1.42 204.82 -34.66 183.99 -22.63"/><polygon class="cls-2" points="200.66 1.42 246.48 27.88 246.48 71.18 200.66 44.72 200.66 30.29 233.99 49.53 233.99 35.1 200.66 15.85 200.66 1.42"/><polygon class="cls-2" points="59 -22.63 121.5 13.45 142.33 1.42 79.83 -34.66 59 -22.63"/><polygon class="cls-2" points="183.99 193.85 246.48 229.93 267.31 217.9 204.82 181.82 183.99 193.85"/><polygon class="cls-2" points="200.66 217.9 246.48 244.36 246.48 287.66 200.66 261.2 200.66 246.77 233.99 266.01 233.99 251.58 200.66 232.34 200.66 217.9"/><polygon class="cls-2" points="246.48 157.77 225.65 169.8 288.15 205.88 308.98 193.85 246.48 157.77"/><polygon class="cls-2" points="59 193.85 121.5 229.93 142.33 217.9 79.83 181.82 59 193.85"/><polygon class="cls-2" points="121.5 157.77 100.67 169.8 163.16 205.88 183.99 193.85 121.5 157.77"/><polygon class="cls-2" points="121.5 85.61 183.99 121.69 204.82 109.66 142.33 73.58 121.5 85.61"/><polygon class="cls-2" points="138.16 109.66 183.99 136.12 183.99 179.42 138.16 152.96 138.16 138.53 171.49 157.77 171.49 143.34 138.16 124.09 138.16 109.66"/><polygon class="cls-2" points="183.99 49.53 163.16 61.55 225.65 97.64 246.48 85.61 183.99 49.53"/><polygon class="cls-2" points="200.66 1.42 246.48 27.88 246.48 71.18 200.66 44.72 200.66 30.29 233.99 49.53 233.99 35.1 200.66 15.85 200.66 1.42"/><polygon class="cls-2" points="183.99 410.33 246.48 446.42 267.31 434.39 204.82 398.31 183.99 410.33"/><polygon class="cls-2" points="200.66 434.39 246.48 460.85 246.48 504.14 200.66 477.68 200.66 463.25 233.99 482.5 233.99 468.06 200.66 448.82 200.66 434.39"/><polygon class="cls-2" points="246.48 374.25 225.65 386.28 288.15 422.36 308.98 410.33 246.48 374.25"/><polygon class="cls-2" points="59 410.33 121.5 446.42 142.33 434.39 79.83 398.31 59 410.33"/><polygon class="cls-2" points="121.5 374.25 100.67 386.28 163.16 422.36 183.99 410.33 121.5 374.25"/><polygon class="cls-2" points="121.5 302.09 183.99 338.17 204.82 326.15 142.33 290.06 121.5 302.09"/><polygon class="cls-2" points="138.16 326.15 183.99 352.61 183.99 395.9 138.16 369.44 138.16 355.01 171.49 374.25 171.49 359.82 138.16 340.58 138.16 326.15"/><polygon class="cls-2" points="183.99 266.01 163.16 278.04 225.65 314.12 246.48 302.09 183.99 266.01"/><polygon class="cls-2" points="200.66 217.9 246.48 244.36 246.48 287.66 200.66 261.2 200.66 246.77 233.99 266.01 233.99 251.58 200.66 232.34 200.66 217.9"/><polygon class="cls-2" points="183.99 482.5 163.16 494.52 225.65 530.6 246.48 518.58 183.99 482.5"/><polygon class="cls-2" points="200.66 434.39 246.48 460.85 246.48 504.14 200.66 477.68 200.66 463.25 233.99 482.5 233.99 468.06 200.66 448.82 200.66 434.39"/><polygon class="cls-2" points="59 -22.63 121.5 13.45 142.33 1.42 79.83 -34.66 59 -22.63"/><polygon class="cls-2" points="75.67 1.42 121.5 27.88 121.5 71.18 75.67 44.72 75.67 30.29 109 49.53 109 35.1 75.67 15.85 75.67 1.42"/><polygon class="cls-2" points="59 193.85 121.5 229.93 142.33 217.9 79.83 181.82 59 193.85"/><polygon class="cls-2" points="75.67 217.9 121.5 244.36 121.5 287.66 75.67 261.2 75.67 246.77 109 266.01 109 251.58 75.67 232.34 75.67 217.9"/><polygon class="cls-2" points="121.5 157.77 100.67 169.8 163.16 205.88 183.99 193.85 121.5 157.77"/><polygon class="cls-2" points="-3.49 157.77 -24.32 169.8 38.17 205.88 59 193.85 -3.49 157.77"/><polygon class="cls-2" points="-3.49 85.61 59 121.69 79.83 109.66 17.34 73.58 -3.49 85.61"/><polygon class="cls-2" points="13.18 109.66 59 136.12 59 179.42 13.18 152.96 13.18 138.53 46.51 157.77 46.51 143.34 13.18 124.09 13.18 109.66"/><polygon class="cls-2" points="59 49.53 38.17 61.55 100.67 97.64 121.5 85.61 59 49.53"/><polygon class="cls-2" points="75.67 1.42 121.5 27.88 121.5 71.18 75.67 44.72 75.67 30.29 109 49.53 109 35.1 75.67 15.85 75.67 1.42"/><polygon class="cls-2" points="59 410.33 121.5 446.42 142.33 434.39 79.83 398.31 59 410.33"/><polygon class="cls-2" points="75.67 434.39 121.5 460.85 121.5 504.14 75.67 477.68 75.67 463.25 109 482.5 109 468.06 75.67 448.82 75.67 434.39"/><polygon class="cls-2" points="121.5 374.25 100.67 386.28 163.16 422.36 183.99 410.33 121.5 374.25"/><polygon class="cls-2" points="-3.49 374.25 -24.32 386.28 38.17 422.36 59 410.33 -3.49 374.25"/><polygon class="cls-2" points="-3.49 302.09 59 338.17 79.83 326.15 17.34 290.06 -3.49 302.09"/><polygon class="cls-2" points="13.18 326.15 59 352.61 59 395.9 13.18 369.44 13.18 355.01 46.51 374.25 46.51 359.82 13.18 340.58 13.18 326.15"/><polygon class="cls-2" points="59 266.01 38.17 278.04 100.67 314.12 121.5 302.09 59 266.01"/><polygon class="cls-2" points="75.67 217.9 121.5 244.36 121.5 287.66 75.67 261.2 75.67 246.77 109 266.01 109 251.58 75.67 232.34 75.67 217.9"/><polygon class="cls-2" points="59 482.5 38.17 494.52 100.67 530.6 121.5 518.58 59 482.5"/><polygon class="cls-2" points="75.67 434.39 121.5 460.85 121.5 504.14 75.67 477.68 75.67 463.25 109 482.5 109 468.06 75.67 448.82 75.67 434.39"/><polygon class="cls-2" points="-3.49 157.77 -24.32 169.8 38.17 205.88 59 193.85 -3.49 157.77"/><polygon class="cls-2" points="-3.49 374.25 -24.32 386.28 38.17 422.36 59 410.33 -3.49 374.25"/><g class="cls-3"><g class="cls-4"><polygon class="cls-5" points="833.69 -44.37 904.56 -85.28 928.18 -71.64 857.32 -30.73 869.13 -3.46 880.94 -17.09 951.8 -58.01 975.42 -44.37 904.56 -3.46 880.94 23.82 904.56 78.37 880.94 64.73 869.13 37.46 857.32 51.09 833.69 37.46 857.32 10.18 833.69 -44.37"/><polygon class="cls-5" points="975.42 -44.37 904.56 -85.28 880.94 -71.64 951.8 -30.73 939.99 -3.46 928.18 -17.09 857.32 -58.01 833.69 -44.37 904.56 -3.46 928.18 23.82 904.56 78.37 928.18 64.73 939.99 37.46 951.8 51.09 975.42 37.46 951.8 10.18 975.42 -44.37"/></g><g class="cls-6"><polygon class="cls-5" points="833.69 201.11 904.56 160.19 928.18 173.83 857.32 214.75 869.13 242.02 880.94 228.38 951.8 187.47 975.42 201.11 904.56 242.02 880.94 269.3 904.56 323.85 880.94 310.21 869.13 282.93 857.32 296.57 833.69 282.93 857.32 255.66 833.69 201.11"/><polygon class="cls-5" points="975.42 201.11 904.56 160.19 880.94 173.83 951.8 214.75 939.99 242.02 928.18 228.38 857.32 187.47 833.69 201.11 904.56 242.02 928.18 269.3 904.56 323.85 928.18 310.21 939.99 282.93 951.8 296.57 975.42 282.93 951.8 255.66 975.42 201.11"/><polygon class="cls-5" points="762.83 78.37 833.7 37.46 857.32 51.09 786.45 92.01 798.26 119.28 810.07 105.64 880.94 64.73 904.56 78.37 833.69 119.28 810.07 146.56 833.69 201.11 810.07 187.47 798.26 160.19 786.45 173.83 762.83 160.19 786.45 132.92 762.83 78.37"/><polygon class="cls-5" points="904.56 78.37 833.69 37.46 810.07 51.09 880.94 92.01 869.13 119.28 857.32 105.64 786.45 64.73 762.83 78.37 833.69 119.28 857.32 146.56 833.69 201.11 857.32 187.47 869.13 160.19 880.94 173.83 904.56 160.19 880.94 132.92 904.56 78.37"/><polygon class="cls-5" points="833.69 -44.37 904.56 -85.28 928.18 -71.64 857.32 -30.73 869.13 -3.46 880.94 -17.09 951.8 -58.01 975.42 -44.37 904.56 -3.46 880.94 23.82 904.56 78.37 880.94 64.73 869.13 37.46 857.32 51.09 833.69 37.46 857.32 10.18 833.69 -44.37"/><polygon class="cls-5" points="975.42 -44.37 904.56 -85.28 880.94 -71.64 951.8 -30.73 939.99 -3.46 928.18 -17.09 857.32 -58.01 833.69 -44.37 904.56 -3.46 928.18 23.82 904.56 78.37 928.18 64.73 939.99 37.46 951.8 51.09 975.42 37.46 951.8 10.18 975.42 -44.37"/></g><g class="cls-7"><polygon class="cls-5" points="833.69 446.58 904.56 405.67 928.18 419.31 857.32 460.22 869.13 487.5 880.94 473.86 951.8 432.94 975.42 446.58 904.56 487.5 880.94 514.77 904.56 569.32 880.94 555.68 869.13 528.41 857.32 542.04 833.69 528.41 857.32 501.13 833.69 446.58"/><polygon class="cls-5" points="975.42 446.58 904.56 405.67 880.94 419.31 951.8 460.22 939.99 487.5 928.18 473.86 857.32 432.94 833.69 446.58 904.56 487.5 928.18 514.77 904.56 569.32 928.18 555.68 939.99 528.41 951.8 542.04 975.42 528.41 951.8 501.13 975.42 446.58"/><polygon class="cls-5" points="762.83 323.85 833.7 282.93 857.32 296.57 786.45 337.48 798.26 364.76 810.07 351.12 880.94 310.21 904.56 323.85 833.69 364.76 810.07 392.03 833.69 446.58 810.07 432.94 798.26 405.67 786.45 419.31 762.83 405.67 786.45 378.39 762.83 323.85"/><polygon class="cls-5" points="904.56 323.85 833.69 282.93 810.07 296.57 880.94 337.48 869.13 364.76 857.32 351.12 786.45 310.21 762.83 323.85 833.69 364.76 857.32 392.03 833.69 446.58 857.32 432.94 869.13 405.67 880.94 419.31 904.56 405.67 880.94 378.39 904.56 323.85"/><polygon class="cls-5" points="833.69 201.11 904.56 160.19 928.18 173.83 857.32 214.75 869.13 242.02 880.94 228.38 951.8 187.47 975.42 201.11 904.56 242.02 880.94 269.3 904.56 323.85 880.94 310.21 869.13 282.93 857.32 296.57 833.69 282.93 857.32 255.66 833.69 201.11"/><polygon class="cls-5" points="975.42 201.11 904.56 160.19 880.94 173.83 951.8 214.75 939.99 242.02 928.18 228.38 857.32 187.47 833.69 201.11 904.56 242.02 928.18 269.3 904.56 323.85 928.18 310.21 939.99 282.93 951.8 296.57 975.42 282.93 951.8 255.66 975.42 201.11"/></g></g></svg>
