<svg id="Layer_1" data-name="Layer 1" xmlns="http://www.w3.org/2000/svg" xmlns:xlink="http://www.w3.org/1999/xlink" viewBox="0 0 1267.75 2139.01"><defs><style>.cls-1{fill:none;}.cls-2{fill:#010101;}.cls-3{fill:url(#New_Pattern_6);}</style><pattern id="New_Pattern_6" data-name="New Pattern 6" width="115.37" height="199.51" patternTransform="translate(-14.08 -242.04)" patternUnits="userSpaceOnUse" viewBox="0 0 115.37 199.51"><rect class="cls-1" width="115.37" height="199.51"/><polyline class="cls-2" points="134.6 188.52 134.6 188.52 76.91 155.21 57.69 166.31 115.37 199.62"/><polyline class="cls-2" points="173.06 166.31 115.37 133.01 96.14 144.11 153.83 177.41"/><polyline class="cls-2" points="19.23 188.52 19.23 188.52 -38.46 155.21 -57.69 166.31 0 199.62"/><polyline class="cls-2" points="57.69 166.31 0 133.01 -19.23 144.11 38.46 177.41"/><polyline class="cls-2" points="38.46 243.81 38.46 243.81 38.46 177.2 57.69 166.1 57.69 232.71"/><polyline class="cls-2" points="0 266.02 0 199.41 19.23 188.31 19.23 254.91"/><polyline class="cls-2" points="76.91 88.76 76.91 88.76 19.23 55.45 0 66.56 57.69 99.86"/><polyline class="cls-2" points="115.37 66.56 57.68 33.25 38.46 44.35 96.14 77.66"/><polyline class="cls-2" points="96.14 144.06 96.14 144.06 96.14 77.45 115.37 66.35 115.37 132.96"/><polyline class="cls-2" points="57.69 166.26 57.69 99.65 76.91 88.55 76.91 155.16"/><polyline class="cls-2" points="134.6 -11 134.6 -11 76.91 -44.3 57.69 -33.2 115.37 0.1"/><polyline class="cls-2" points="19.23 -11 19.23 -11 -38.46 -44.3 -57.69 -33.2 0 0.1"/><polyline class="cls-2" points="38.46 44.3 38.46 44.3 38.46 -22.31 57.69 -33.41 57.69 33.2"/><polyline class="cls-2" points="0 66.5 0 -0.1 19.23 -11.21 19.23 55.4"/></pattern></defs><title>pattern1</title><polygon class="cls-3" points="159.51 0 162.51 37.98 196.5 135.57 242.51 176.98 302.51 289.98 359.25 391.49 414.51 483.98 484.51 602.98 657.51 901.98 728.16 1030.03 968.51 1441.98 1266.97 1956.4 1479.2 1030.03 1479.2 0 159.51 0"/></svg>