<svg id="Layer_1" data-name="Layer 1" xmlns="http://www.w3.org/2000/svg" xmlns:xlink="http://www.w3.org/1999/xlink" viewBox="0 0 500 500"><defs><style>.cls-1{fill:none;}.cls-2{clip-path:url(#clip-path);}.cls-3{clip-path:url(#clip-path-2);}.cls-4{fill:#010101;}.cls-5{clip-path:url(#clip-path-3);}.cls-6{clip-path:url(#clip-path-4);}.cls-7{clip-path:url(#clip-path-5);}.cls-8{clip-path:url(#clip-path-6);}.cls-9{clip-path:url(#clip-path-7);}.cls-10{clip-path:url(#clip-path-8);}.cls-11{clip-path:url(#clip-path-9);}.cls-12{clip-path:url(#clip-path-10);}.cls-13{clip-path:url(#clip-path-11);}.cls-14{clip-path:url(#clip-path-12);}.cls-15{clip-path:url(#clip-path-13);}.cls-16{clip-path:url(#clip-path-14);}.cls-17{clip-path:url(#clip-path-15);}.cls-18{clip-path:url(#clip-path-16);}.cls-19{clip-path:url(#clip-path-17);}.cls-20{clip-path:url(#clip-path-18);}.cls-21{clip-path:url(#clip-path-19);}.cls-22{clip-path:url(#clip-path-20);}.cls-23{clip-path:url(#clip-path-21);}.cls-24{clip-path:url(#clip-path-22);}.cls-25{clip-path:url(#clip-path-23);}.cls-26{clip-path:url(#clip-path-24);}.cls-27{clip-path:url(#clip-path-25);}.cls-28{clip-path:url(#clip-path-26);}.cls-29{clip-path:url(#clip-path-27);}.cls-30{clip-path:url(#clip-path-28);}.cls-31{clip-path:url(#clip-path-29);}.cls-32{clip-path:url(#clip-path-30);}</style><clipPath id="clip-path"><rect class="cls-1" y="-592.57" width="500" height="500"/></clipPath><clipPath id="clip-path-2"><rect class="cls-1" x="412.43" y="-235.11" width="115.37" height="199.83"/></clipPath><clipPath id="clip-path-3"><rect class="cls-1" x="297.07" y="-235.11" width="115.37" height="199.83"/></clipPath><clipPath id="clip-path-4"><rect class="cls-1" x="181.7" y="-235.11" width="115.37" height="199.83"/></clipPath><clipPath id="clip-path-5"><rect class="cls-1" x="66.33" y="-235.11" width="115.37" height="199.83"/></clipPath><clipPath id="clip-path-6"><rect class="cls-1" x="-49.04" y="-235.11" width="115.37" height="199.83"/></clipPath><clipPath id="clip-path-7"><rect class="cls-1" x="-570.16" width="500" height="500"/></clipPath><clipPath id="clip-path-8"><rect class="cls-1" width="500" height="500"/></clipPath><clipPath id="clip-path-9"><rect class="cls-1" x="339.9" y="-71.17" width="169.21" height="156.55"/></clipPath><clipPath id="clip-path-10"><rect class="cls-1" x="339.9" y="85.38" width="169.21" height="156.55"/></clipPath><clipPath id="clip-path-11"><rect class="cls-1" x="339.9" y="241.93" width="169.21" height="156.55"/></clipPath><clipPath id="clip-path-12"><rect class="cls-1" x="339.9" y="398.48" width="169.21" height="156.55"/></clipPath><clipPath id="clip-path-13"><rect class="cls-1" x="170.69" y="-71.17" width="169.21" height="156.55"/></clipPath><clipPath id="clip-path-14"><rect class="cls-1" x="170.69" y="85.38" width="169.21" height="156.55"/></clipPath><clipPath id="clip-path-15"><rect class="cls-1" x="170.69" y="241.93" width="169.21" height="156.55"/></clipPath><clipPath id="clip-path-16"><rect class="cls-1" x="170.69" y="398.48" width="169.21" height="156.55"/></clipPath><clipPath id="clip-path-17"><rect class="cls-1" x="1.48" y="-71.17" width="169.21" height="156.55"/></clipPath><clipPath id="clip-path-18"><rect class="cls-1" x="1.48" y="85.38" width="169.21" height="156.55"/></clipPath><clipPath id="clip-path-19"><rect class="cls-1" x="1.48" y="241.93" width="169.21" height="156.55"/></clipPath><clipPath id="clip-path-20"><rect class="cls-1" x="1.48" y="398.48" width="169.21" height="156.55"/></clipPath><clipPath id="clip-path-21"><rect class="cls-1" x="-167.73" y="-71.17" width="169.21" height="156.55"/></clipPath><clipPath id="clip-path-22"><rect class="cls-1" x="-167.73" y="85.38" width="169.21" height="156.55"/></clipPath><clipPath id="clip-path-23"><rect class="cls-1" x="-167.73" y="241.93" width="169.21" height="156.55"/></clipPath><clipPath id="clip-path-24"><rect class="cls-1" x="-167.73" y="398.48" width="169.21" height="156.55"/></clipPath><clipPath id="clip-path-25"><rect class="cls-1" x="-570.16" y="613" width="502.19" height="498.26"/></clipPath><clipPath id="clip-path-26"><rect class="cls-1" y="595.97" width="500" height="500"/></clipPath><clipPath id="clip-path-27"><rect class="cls-1" x="400.02" y="564.65" width="197.87" height="158.15"/></clipPath><clipPath id="clip-path-28"><rect class="cls-1" x="202.14" y="564.65" width="197.87" height="158.15"/></clipPath><clipPath id="clip-path-29"><rect class="cls-1" x="4.27" y="564.65" width="197.87" height="158.15"/></clipPath><clipPath id="clip-path-30"><rect class="cls-1" x="-193.61" y="564.65" width="197.87" height="158.15"/></clipPath></defs><title>pattern2</title><g class="cls-2"><g class="cls-3"><polygon class="cls-4" points="527.8 -21.96 485.5 -46.39 485.5 -33.06 516.27 -15.3 516.27 -1.98 485.5 -19.74 485.5 -6.42 527.8 18 527.8 -21.96"/><polygon class="cls-4" points="585.49 -68.59 527.8 -101.89 508.58 -90.79 566.26 -57.49 556.65 -35.28 547.03 -46.39 489.35 -79.69 470.12 -68.59 527.8 -35.28 547.03 -13.08 527.8 31.32 547.03 20.22 556.65 -1.98 566.26 9.12 585.49 -1.98 566.26 -24.18 585.49 -68.59"/><polygon class="cls-4" points="470.12 -68.59 412.43 -101.89 393.21 -90.79 450.89 -57.49 441.28 -35.28 431.66 -46.39 373.98 -79.69 354.75 -68.59 412.44 -35.28 431.66 -13.08 412.44 31.32 431.66 20.22 441.28 -1.98 450.89 9.12 470.12 -1.98 450.89 -24.18 470.12 -68.59"/></g><g class="cls-5"><polygon class="cls-4" points="412.44 -21.96 370.13 -46.39 370.13 -33.06 400.9 -15.3 400.9 -1.98 370.13 -19.74 370.13 -6.42 412.44 18 412.44 -21.96"/><polygon class="cls-4" points="470.12 -68.59 412.43 -101.89 393.21 -90.79 450.89 -57.49 441.28 -35.28 431.66 -46.39 373.98 -79.69 354.75 -68.59 412.44 -35.28 431.66 -13.08 412.44 31.32 431.66 20.22 441.28 -1.98 450.89 9.12 470.12 -1.98 450.89 -24.18 470.12 -68.59"/><polygon class="cls-4" points="354.75 -68.59 297.06 -101.89 277.84 -90.79 335.52 -57.49 325.91 -35.28 316.29 -46.39 258.61 -79.69 239.38 -68.59 297.06 -35.28 316.29 -13.08 297.06 31.32 316.29 20.22 325.91 -1.98 335.52 9.12 354.75 -1.98 335.52 -24.18 354.75 -68.59"/></g><g class="cls-6"><polygon class="cls-4" points="297.06 -21.96 254.76 -46.39 254.76 -33.06 285.53 -15.3 285.53 -1.98 254.76 -19.74 254.76 -6.42 297.06 18 297.06 -21.96"/><polygon class="cls-4" points="354.75 -68.59 297.06 -101.89 277.84 -90.79 335.52 -57.49 325.91 -35.28 316.29 -46.39 258.61 -79.69 239.38 -68.59 297.06 -35.28 316.29 -13.08 297.06 31.32 316.29 20.22 325.91 -1.98 335.52 9.12 354.75 -1.98 335.52 -24.18 354.75 -68.59"/><polygon class="cls-4" points="239.38 -68.59 181.69 -101.89 162.47 -90.79 220.15 -57.49 210.54 -35.28 200.92 -46.39 143.24 -79.69 124.01 -68.59 181.69 -35.28 200.92 -13.08 181.69 31.32 200.92 20.22 210.54 -1.98 220.15 9.12 239.38 -1.98 220.15 -24.18 239.38 -68.59"/></g><g class="cls-7"><polygon class="cls-4" points="181.69 -21.96 139.39 -46.39 139.39 -33.06 170.16 -15.3 170.16 -1.98 139.39 -19.74 139.39 -6.42 181.69 18 181.69 -21.96"/><polygon class="cls-4" points="239.38 -68.59 181.69 -101.89 162.47 -90.79 220.15 -57.49 210.54 -35.28 200.92 -46.39 143.24 -79.69 124.01 -68.59 181.69 -35.28 200.92 -13.08 181.69 31.32 200.92 20.22 210.54 -1.98 220.15 9.12 239.38 -1.98 220.15 -24.18 239.38 -68.59"/><polygon class="cls-4" points="124.01 -68.59 66.33 -101.89 47.1 -90.79 104.78 -57.49 95.17 -35.28 85.55 -46.39 27.87 -79.69 8.64 -68.59 66.33 -35.28 85.55 -13.08 66.33 31.32 85.55 20.22 95.17 -1.98 104.78 9.12 124.01 -1.98 104.78 -24.18 124.01 -68.59"/></g><g class="cls-8"><polygon class="cls-4" points="66.33 -21.96 24.02 -46.39 24.02 -33.06 54.79 -15.3 54.79 -1.98 24.02 -19.74 24.02 -6.42 66.33 18 66.33 -21.96"/><polygon class="cls-4" points="124.01 -68.59 66.33 -101.89 47.1 -90.79 104.78 -57.49 95.17 -35.28 85.55 -46.39 27.87 -79.69 8.64 -68.59 66.33 -35.28 85.55 -13.08 66.33 31.32 85.55 20.22 95.17 -1.98 104.78 9.12 124.01 -1.98 104.78 -24.18 124.01 -68.59"/><polygon class="cls-4" points="8.64 -68.59 -49.05 -101.89 -68.27 -90.79 -10.59 -57.49 -20.2 -35.28 -29.82 -46.39 -87.5 -79.69 -106.73 -68.59 -49.04 -35.28 -29.82 -13.08 -49.04 31.32 -29.82 20.22 -20.2 -1.98 -10.59 9.12 8.64 -1.98 -10.59 -24.18 8.64 -68.59"/></g></g><g class="cls-9"><rect class="cls-1" x="-83.12" y="-62.32" width="84.6" height="64.39"/><polygon class="cls-4" points="-40.82 -37.9 1.48 -62.32 1.48 -49 -29.28 -31.24 -29.28 -17.92 1.48 -35.68 1.48 -22.36 -40.82 2.06 -40.82 -37.9"/><rect class="cls-1" x="-83.12" y="2.07" width="84.6" height="64.39"/><polygon class="cls-4" points="-40.82 26.49 1.48 2.06 1.48 15.39 -29.28 33.15 -29.28 46.47 1.48 28.71 1.48 42.03 -40.82 66.45 -40.82 26.49"/><rect class="cls-1" x="-83.12" y="66.45" width="84.6" height="64.39"/><polygon class="cls-4" points="-40.82 90.88 1.48 66.45 1.48 79.78 -29.28 97.54 -29.28 110.86 1.48 93.1 1.48 106.42 -40.82 130.84 -40.82 90.88"/><rect class="cls-1" x="-83.12" y="130.84" width="84.6" height="64.39"/><polygon class="cls-4" points="-40.82 155.26 1.48 130.84 1.48 144.16 -29.28 161.93 -29.28 175.25 1.48 157.49 1.48 170.81 -40.82 195.23 -40.82 155.26"/><rect class="cls-1" x="-83.12" y="195.23" width="84.6" height="64.39"/><polygon class="cls-4" points="-40.82 219.65 1.48 195.23 1.48 208.55 -29.28 226.31 -29.28 239.64 1.48 221.87 1.48 235.2 -40.82 259.62 -40.82 219.65"/><rect class="cls-1" x="-83.12" y="259.62" width="84.6" height="64.39"/><polygon class="cls-4" points="-40.82 284.04 1.48 259.62 1.48 272.94 -29.28 290.7 -29.28 304.02 1.48 286.26 1.48 299.58 -40.82 324.01 -40.82 284.04"/><rect class="cls-1" x="-83.12" y="324.01" width="84.6" height="64.39"/><polygon class="cls-4" points="-40.82 348.43 1.48 324.01 1.48 337.33 -29.28 355.09 -29.28 368.41 1.48 350.65 1.48 363.97 -40.82 388.4 -40.82 348.43"/><rect class="cls-1" x="-83.12" y="388.4" width="84.6" height="64.39"/><polygon class="cls-4" points="-40.82 412.82 1.48 388.4 1.48 401.72 -29.28 419.48 -29.28 432.8 1.48 415.04 1.48 428.36 -40.82 452.78 -40.82 412.82"/><rect class="cls-1" x="-83.12" y="452.78" width="84.6" height="64.39"/><polygon class="cls-4" points="-40.82 477.21 1.48 452.78 1.48 466.11 -29.28 483.87 -29.28 497.19 1.48 479.43 1.48 492.75 -40.82 517.17 -40.82 477.21"/></g><g class="cls-10"><g class="cls-11"><polyline class="cls-4" points="455.27 64.28 455.27 77.61 424.5 59.84 424.5 73.17 466.81 97.59 466.81 57.62 424.5 33.2 424.5 46.52 455.27 64.28"/><polygon class="cls-4" points="466.81 97.6 509.11 73.18 509.11 86.5 478.34 104.26 478.34 117.58 509.11 99.82 509.11 113.14 466.81 137.57 466.81 97.6"/><polyline class="cls-4" points="370.67 64.28 370.67 77.61 339.9 59.84 339.9 73.17 382.2 97.59 382.2 57.62 339.9 33.2 339.9 46.52 370.67 64.28"/><polygon class="cls-4" points="382.2 97.6 424.5 73.18 424.5 86.5 393.74 104.26 393.74 117.58 424.5 99.82 424.5 113.14 382.2 137.57 382.2 97.6"/><polyline class="cls-4" points="497.57 -13.99 497.57 -0.67 466.81 -18.43 466.81 -5.11 509.11 19.31 509.11 -20.65 466.81 -45.08 466.81 -31.75 497.57 -13.99"/><polyline class="cls-4" points="412.97 -13.99 412.97 -0.67 382.2 -18.43 382.2 -5.11 424.5 19.31 424.5 -20.65 382.2 -45.08 382.2 -31.75 412.97 -13.99"/><polygon class="cls-4" points="424.5 19.33 466.81 -5.1 466.81 8.22 436.04 25.99 436.04 39.31 466.81 21.55 466.81 34.87 424.5 59.29 424.5 19.33"/><polygon class="cls-4" points="339.9 19.33 382.2 -5.1 382.2 8.22 351.44 25.99 351.44 39.31 382.2 21.55 382.2 34.87 339.9 59.29 339.9 19.33"/></g><g class="cls-12"><polyline class="cls-4" points="455.27 220.83 455.27 234.16 424.5 216.39 424.5 229.72 466.81 254.14 466.81 214.17 424.5 189.75 424.5 203.07 455.27 220.83"/><polygon class="cls-4" points="466.81 254.15 509.11 229.73 509.11 243.05 478.34 260.81 478.34 274.13 509.11 256.37 509.11 269.69 466.81 294.12 466.81 254.15"/><polyline class="cls-4" points="370.67 220.83 370.67 234.16 339.9 216.39 339.9 229.72 382.2 254.14 382.2 214.17 339.9 189.75 339.9 203.07 370.67 220.83"/><polygon class="cls-4" points="382.2 254.15 424.5 229.73 424.5 243.05 393.74 260.81 393.74 274.13 424.5 256.37 424.5 269.69 382.2 294.12 382.2 254.15"/><polyline class="cls-4" points="497.57 142.56 497.57 155.88 466.81 138.12 466.81 151.44 509.11 175.86 509.11 135.9 466.81 111.47 466.81 124.8 497.57 142.56"/><polyline class="cls-4" points="412.97 142.56 412.97 155.88 382.2 138.12 382.2 151.44 424.5 175.86 424.5 135.9 382.2 111.47 382.2 124.8 412.97 142.56"/><polygon class="cls-4" points="424.5 175.88 466.81 151.45 466.81 164.77 436.04 182.54 436.04 195.86 466.81 178.1 466.81 191.42 424.5 215.84 424.5 175.88"/><polygon class="cls-4" points="339.9 175.88 382.2 151.45 382.2 164.77 351.44 182.54 351.44 195.86 382.2 178.1 382.2 191.42 339.9 215.84 339.9 175.88"/><polyline class="cls-4" points="455.27 64.28 455.27 77.61 424.5 59.84 424.5 73.17 466.81 97.59 466.81 57.62 424.5 33.2 424.5 46.52 455.27 64.28"/><polygon class="cls-4" points="466.81 97.6 509.11 73.18 509.11 86.5 478.34 104.26 478.34 117.58 509.11 99.82 509.11 113.14 466.81 137.57 466.81 97.6"/><polyline class="cls-4" points="370.67 64.28 370.67 77.61 339.9 59.84 339.9 73.17 382.2 97.59 382.2 57.62 339.9 33.2 339.9 46.52 370.67 64.28"/><polygon class="cls-4" points="382.2 97.6 424.5 73.18 424.5 86.5 393.74 104.26 393.74 117.58 424.5 99.82 424.5 113.14 382.2 137.57 382.2 97.6"/></g><g class="cls-13"><polyline class="cls-4" points="455.27 377.38 455.27 390.7 424.5 372.94 424.5 386.26 466.81 410.69 466.81 370.72 424.5 346.3 424.5 359.62 455.27 377.38"/><polygon class="cls-4" points="466.81 410.7 509.11 386.28 509.11 399.6 478.34 417.36 478.34 430.68 509.11 412.92 509.11 426.24 466.81 450.67 466.81 410.7"/><polyline class="cls-4" points="370.67 377.38 370.67 390.7 339.9 372.94 339.9 386.26 382.2 410.69 382.2 370.72 339.9 346.3 339.9 359.62 370.67 377.38"/><polygon class="cls-4" points="382.2 410.7 424.5 386.28 424.5 399.6 393.74 417.36 393.74 430.68 424.5 412.92 424.5 426.24 382.2 450.67 382.2 410.7"/><polyline class="cls-4" points="497.57 299.11 497.57 312.43 466.81 294.67 466.81 307.99 509.11 332.41 509.11 292.45 466.81 268.02 466.81 281.35 497.57 299.11"/><polyline class="cls-4" points="412.97 299.11 412.97 312.43 382.2 294.67 382.2 307.99 424.5 332.41 424.5 292.45 382.2 268.02 382.2 281.35 412.97 299.11"/><polygon class="cls-4" points="424.5 332.43 466.81 308 466.81 321.32 436.04 339.09 436.04 352.41 466.81 334.64 466.81 347.97 424.5 372.39 424.5 332.43"/><polygon class="cls-4" points="339.9 332.43 382.2 308 382.2 321.32 351.44 339.09 351.44 352.41 382.2 334.64 382.2 347.97 339.9 372.39 339.9 332.43"/><polyline class="cls-4" points="455.27 220.83 455.27 234.16 424.5 216.39 424.5 229.72 466.81 254.14 466.81 214.17 424.5 189.75 424.5 203.07 455.27 220.83"/><polygon class="cls-4" points="466.81 254.15 509.11 229.73 509.11 243.05 478.34 260.81 478.34 274.13 509.11 256.37 509.11 269.69 466.81 294.12 466.81 254.15"/><polyline class="cls-4" points="370.67 220.83 370.67 234.16 339.9 216.39 339.9 229.72 382.2 254.14 382.2 214.17 339.9 189.75 339.9 203.07 370.67 220.83"/><polygon class="cls-4" points="382.2 254.15 424.5 229.73 424.5 243.05 393.74 260.81 393.74 274.13 424.5 256.37 424.5 269.69 382.2 294.12 382.2 254.15"/></g><g class="cls-14"><polyline class="cls-4" points="497.57 455.66 497.57 468.98 466.81 451.22 466.81 464.54 509.11 488.96 509.11 449 466.81 424.57 466.81 437.89 497.57 455.66"/><polyline class="cls-4" points="412.97 455.66 412.97 468.98 382.2 451.22 382.2 464.54 424.5 488.96 424.5 449 382.2 424.57 382.2 437.89 412.97 455.66"/><polygon class="cls-4" points="424.5 488.98 466.81 464.55 466.81 477.87 436.04 495.64 436.04 508.96 466.81 491.19 466.81 504.52 424.5 528.94 424.5 488.98"/><polygon class="cls-4" points="339.9 488.98 382.2 464.55 382.2 477.87 351.44 495.64 351.44 508.96 382.2 491.19 382.2 504.52 339.9 528.94 339.9 488.98"/><polyline class="cls-4" points="455.27 377.38 455.27 390.7 424.5 372.94 424.5 386.26 466.81 410.69 466.81 370.72 424.5 346.3 424.5 359.62 455.27 377.38"/><polygon class="cls-4" points="466.81 410.7 509.11 386.28 509.11 399.6 478.34 417.36 478.34 430.68 509.11 412.92 509.11 426.24 466.81 450.67 466.81 410.7"/><polyline class="cls-4" points="370.67 377.38 370.67 390.7 339.9 372.94 339.9 386.26 382.2 410.69 382.2 370.72 339.9 346.3 339.9 359.62 370.67 377.38"/><polygon class="cls-4" points="382.2 410.7 424.5 386.28 424.5 399.6 393.74 417.36 393.74 430.68 424.5 412.92 424.5 426.24 382.2 450.67 382.2 410.7"/></g><g class="cls-15"><polyline class="cls-4" points="286.06 64.28 286.06 77.61 255.3 59.84 255.3 73.17 297.6 97.59 297.6 57.62 255.3 33.2 255.3 46.52 286.06 64.28"/><polygon class="cls-4" points="297.6 97.6 339.9 73.18 339.9 86.5 309.13 104.26 309.13 117.58 339.9 99.82 339.9 113.14 297.6 137.57 297.6 97.6"/><polyline class="cls-4" points="201.46 64.28 201.46 77.61 170.69 59.84 170.69 73.17 212.99 97.59 212.99 57.62 170.69 33.2 170.69 46.52 201.46 64.28"/><polygon class="cls-4" points="212.99 97.6 255.3 73.18 255.3 86.5 224.53 104.26 224.53 117.58 255.3 99.82 255.29 113.14 212.99 137.57 212.99 97.6"/><polyline class="cls-4" points="328.36 -13.99 328.36 -0.67 297.6 -18.43 297.6 -5.11 339.9 19.31 339.9 -20.65 297.6 -45.08 297.6 -31.75 328.36 -13.99"/><polyline class="cls-4" points="243.76 -13.99 243.76 -0.67 212.99 -18.43 212.99 -5.11 255.3 19.31 255.3 -20.65 212.99 -45.08 212.99 -31.75 243.76 -13.99"/><polygon class="cls-4" points="255.3 19.33 297.6 -5.1 297.6 8.22 266.83 25.99 266.83 39.31 297.6 21.55 297.6 34.87 255.3 59.29 255.3 19.33"/><polygon class="cls-4" points="170.69 19.33 212.99 -5.1 212.99 8.22 182.23 25.99 182.23 39.31 212.99 21.55 212.99 34.87 170.69 59.29 170.69 19.33"/></g><g class="cls-16"><polyline class="cls-4" points="286.06 220.83 286.06 234.16 255.3 216.39 255.3 229.72 297.6 254.14 297.6 214.17 255.3 189.75 255.3 203.07 286.06 220.83"/><polygon class="cls-4" points="297.6 254.15 339.9 229.73 339.9 243.05 309.13 260.81 309.13 274.13 339.9 256.37 339.9 269.69 297.6 294.12 297.6 254.15"/><polyline class="cls-4" points="201.46 220.83 201.46 234.16 170.69 216.39 170.69 229.72 212.99 254.14 212.99 214.17 170.69 189.75 170.69 203.07 201.46 220.83"/><polygon class="cls-4" points="212.99 254.15 255.3 229.73 255.3 243.05 224.53 260.81 224.53 274.13 255.3 256.37 255.29 269.69 212.99 294.12 212.99 254.15"/><polyline class="cls-4" points="328.36 142.56 328.36 155.88 297.6 138.12 297.6 151.44 339.9 175.86 339.9 135.9 297.6 111.47 297.6 124.8 328.36 142.56"/><polyline class="cls-4" points="243.76 142.56 243.76 155.88 212.99 138.12 212.99 151.44 255.3 175.86 255.3 135.9 212.99 111.47 212.99 124.8 243.76 142.56"/><polygon class="cls-4" points="255.3 175.88 297.6 151.45 297.6 164.77 266.83 182.54 266.83 195.86 297.6 178.1 297.6 191.42 255.3 215.84 255.3 175.88"/><polygon class="cls-4" points="170.69 175.88 212.99 151.45 212.99 164.77 182.23 182.54 182.23 195.86 212.99 178.1 212.99 191.42 170.69 215.84 170.69 175.88"/><polyline class="cls-4" points="286.06 64.28 286.06 77.61 255.3 59.84 255.3 73.17 297.6 97.59 297.6 57.62 255.3 33.2 255.3 46.52 286.06 64.28"/><polygon class="cls-4" points="297.6 97.6 339.9 73.18 339.9 86.5 309.13 104.26 309.13 117.58 339.9 99.82 339.9 113.14 297.6 137.57 297.6 97.6"/><polyline class="cls-4" points="201.46 64.28 201.46 77.61 170.69 59.84 170.69 73.17 212.99 97.59 212.99 57.62 170.69 33.2 170.69 46.52 201.46 64.28"/><polygon class="cls-4" points="212.99 97.6 255.3 73.18 255.3 86.5 224.53 104.26 224.53 117.58 255.3 99.82 255.29 113.14 212.99 137.57 212.99 97.6"/></g><g class="cls-17"><polyline class="cls-4" points="286.06 377.38 286.06 390.7 255.3 372.94 255.3 386.26 297.6 410.69 297.6 370.72 255.3 346.3 255.3 359.62 286.06 377.38"/><polygon class="cls-4" points="297.6 410.7 339.9 386.28 339.9 399.6 309.13 417.36 309.13 430.68 339.9 412.92 339.9 426.24 297.6 450.67 297.6 410.7"/><polyline class="cls-4" points="201.46 377.38 201.46 390.7 170.69 372.94 170.69 386.26 212.99 410.69 212.99 370.72 170.69 346.3 170.69 359.62 201.46 377.38"/><polygon class="cls-4" points="212.99 410.7 255.3 386.28 255.3 399.6 224.53 417.36 224.53 430.68 255.3 412.92 255.29 426.24 212.99 450.67 212.99 410.7"/><polyline class="cls-4" points="328.36 299.11 328.36 312.43 297.6 294.67 297.6 307.99 339.9 332.41 339.9 292.45 297.6 268.02 297.6 281.35 328.36 299.11"/><polyline class="cls-4" points="243.76 299.11 243.76 312.43 212.99 294.67 212.99 307.99 255.3 332.41 255.3 292.45 212.99 268.02 212.99 281.35 243.76 299.11"/><polygon class="cls-4" points="255.3 332.43 297.6 308 297.6 321.32 266.83 339.09 266.83 352.41 297.6 334.64 297.6 347.97 255.3 372.39 255.3 332.43"/><polygon class="cls-4" points="170.69 332.43 212.99 308 212.99 321.32 182.23 339.09 182.23 352.41 212.99 334.64 212.99 347.97 170.69 372.39 170.69 332.43"/><polyline class="cls-4" points="286.06 220.83 286.06 234.16 255.3 216.39 255.3 229.72 297.6 254.14 297.6 214.17 255.3 189.75 255.3 203.07 286.06 220.83"/><polygon class="cls-4" points="297.6 254.15 339.9 229.73 339.9 243.05 309.13 260.81 309.13 274.13 339.9 256.37 339.9 269.69 297.6 294.12 297.6 254.15"/><polyline class="cls-4" points="201.46 220.83 201.46 234.16 170.69 216.39 170.69 229.72 212.99 254.14 212.99 214.17 170.69 189.75 170.69 203.07 201.46 220.83"/><polygon class="cls-4" points="212.99 254.15 255.3 229.73 255.3 243.05 224.53 260.81 224.53 274.13 255.3 256.37 255.29 269.69 212.99 294.12 212.99 254.15"/></g><g class="cls-18"><polyline class="cls-4" points="328.36 455.66 328.36 468.98 297.6 451.22 297.6 464.54 339.9 488.96 339.9 449 297.6 424.57 297.6 437.89 328.36 455.66"/><polyline class="cls-4" points="243.76 455.66 243.76 468.98 212.99 451.22 212.99 464.54 255.3 488.96 255.3 449 212.99 424.57 212.99 437.89 243.76 455.66"/><polygon class="cls-4" points="255.3 488.98 297.6 464.55 297.6 477.87 266.83 495.64 266.83 508.96 297.6 491.19 297.6 504.52 255.3 528.94 255.3 488.98"/><polygon class="cls-4" points="170.69 488.98 212.99 464.55 212.99 477.87 182.23 495.64 182.23 508.96 212.99 491.19 212.99 504.52 170.69 528.94 170.69 488.98"/><polyline class="cls-4" points="286.06 377.38 286.06 390.7 255.3 372.94 255.3 386.26 297.6 410.69 297.6 370.72 255.3 346.3 255.3 359.62 286.06 377.38"/><polygon class="cls-4" points="297.6 410.7 339.9 386.28 339.9 399.6 309.13 417.36 309.13 430.68 339.9 412.92 339.9 426.24 297.6 450.67 297.6 410.7"/><polyline class="cls-4" points="201.46 377.38 201.46 390.7 170.69 372.94 170.69 386.26 212.99 410.69 212.99 370.72 170.69 346.3 170.69 359.62 201.46 377.38"/><polygon class="cls-4" points="212.99 410.7 255.3 386.28 255.3 399.6 224.53 417.36 224.53 430.68 255.3 412.92 255.29 426.24 212.99 450.67 212.99 410.7"/></g><g class="cls-19"><polyline class="cls-4" points="116.85 64.28 116.85 77.61 86.09 59.84 86.09 73.17 128.39 97.59 128.39 57.62 86.09 33.2 86.09 46.52 116.85 64.28"/><polygon class="cls-4" points="128.39 97.6 170.69 73.18 170.69 86.5 139.93 104.26 139.93 117.58 170.69 99.82 170.69 113.14 128.39 137.57 128.39 97.6"/><polyline class="cls-4" points="32.25 64.28 32.25 77.61 1.48 59.84 1.48 73.17 43.78 97.59 43.78 57.62 1.48 33.2 1.48 46.52 32.25 64.28"/><polygon class="cls-4" points="43.78 97.6 86.09 73.18 86.09 86.5 55.32 104.26 55.32 117.58 86.09 99.82 86.09 113.14 43.78 137.57 43.78 97.6"/><polyline class="cls-4" points="159.15 -13.99 159.15 -0.67 128.39 -18.43 128.39 -5.11 170.69 19.31 170.69 -20.65 128.39 -45.08 128.39 -31.75 159.15 -13.99"/><polyline class="cls-4" points="74.55 -13.99 74.55 -0.67 43.78 -18.43 43.78 -5.11 86.09 19.31 86.09 -20.65 43.78 -45.08 43.78 -31.75 74.55 -13.99"/><polygon class="cls-4" points="86.09 19.33 128.39 -5.1 128.39 8.22 97.62 25.99 97.62 39.31 128.39 21.55 128.39 34.87 86.09 59.29 86.09 19.33"/><polygon class="cls-4" points="1.48 19.33 43.78 -5.1 43.78 8.22 13.02 25.99 13.02 39.31 43.78 21.55 43.78 34.87 1.48 59.29 1.48 19.33"/></g><g class="cls-20"><polyline class="cls-4" points="116.85 220.83 116.85 234.16 86.09 216.39 86.09 229.72 128.39 254.14 128.39 214.17 86.09 189.75 86.09 203.07 116.85 220.83"/><polygon class="cls-4" points="128.39 254.15 170.69 229.73 170.69 243.05 139.93 260.81 139.93 274.13 170.69 256.37 170.69 269.69 128.39 294.12 128.39 254.15"/><polyline class="cls-4" points="32.25 220.83 32.25 234.16 1.48 216.39 1.48 229.72 43.78 254.14 43.78 214.17 1.48 189.75 1.48 203.07 32.25 220.83"/><polygon class="cls-4" points="43.78 254.15 86.09 229.73 86.09 243.05 55.32 260.81 55.32 274.13 86.09 256.37 86.09 269.69 43.78 294.12 43.78 254.15"/><polyline class="cls-4" points="159.15 142.56 159.15 155.88 128.39 138.12 128.39 151.44 170.69 175.86 170.69 135.9 128.39 111.47 128.39 124.8 159.15 142.56"/><polyline class="cls-4" points="74.55 142.56 74.55 155.88 43.78 138.12 43.78 151.44 86.09 175.86 86.09 135.9 43.78 111.47 43.78 124.8 74.55 142.56"/><polygon class="cls-4" points="86.09 175.88 128.39 151.45 128.39 164.77 97.62 182.54 97.62 195.86 128.39 178.1 128.39 191.42 86.09 215.84 86.09 175.88"/><polygon class="cls-4" points="1.48 175.88 43.78 151.45 43.78 164.77 13.02 182.54 13.02 195.86 43.78 178.1 43.78 191.42 1.48 215.84 1.48 175.88"/><polyline class="cls-4" points="116.85 64.28 116.85 77.61 86.09 59.84 86.09 73.17 128.39 97.59 128.39 57.62 86.09 33.2 86.09 46.52 116.85 64.28"/><polygon class="cls-4" points="128.39 97.6 170.69 73.18 170.69 86.5 139.93 104.26 139.93 117.58 170.69 99.82 170.69 113.14 128.39 137.57 128.39 97.6"/><polyline class="cls-4" points="32.25 64.28 32.25 77.61 1.48 59.84 1.48 73.17 43.78 97.59 43.78 57.62 1.48 33.2 1.48 46.52 32.25 64.28"/><polygon class="cls-4" points="43.78 97.6 86.09 73.18 86.09 86.5 55.32 104.26 55.32 117.58 86.09 99.82 86.09 113.14 43.78 137.57 43.78 97.6"/></g><g class="cls-21"><polyline class="cls-4" points="116.85 377.38 116.85 390.7 86.09 372.94 86.09 386.26 128.39 410.69 128.39 370.72 86.09 346.3 86.09 359.62 116.85 377.38"/><polygon class="cls-4" points="128.39 410.7 170.69 386.28 170.69 399.6 139.93 417.36 139.93 430.68 170.69 412.92 170.69 426.24 128.39 450.67 128.39 410.7"/><polyline class="cls-4" points="32.25 377.38 32.25 390.7 1.48 372.94 1.48 386.26 43.78 410.69 43.78 370.72 1.48 346.3 1.48 359.62 32.25 377.38"/><polygon class="cls-4" points="43.78 410.7 86.09 386.28 86.09 399.6 55.32 417.36 55.32 430.68 86.09 412.92 86.09 426.24 43.78 450.67 43.78 410.7"/><polyline class="cls-4" points="159.15 299.11 159.15 312.43 128.39 294.67 128.39 307.99 170.69 332.41 170.69 292.45 128.39 268.02 128.39 281.35 159.15 299.11"/><polyline class="cls-4" points="74.55 299.11 74.55 312.43 43.78 294.67 43.78 307.99 86.09 332.41 86.09 292.45 43.78 268.02 43.78 281.35 74.55 299.11"/><polygon class="cls-4" points="86.09 332.43 128.39 308 128.39 321.32 97.62 339.09 97.62 352.41 128.39 334.64 128.39 347.97 86.09 372.39 86.09 332.43"/><polygon class="cls-4" points="1.48 332.43 43.78 308 43.78 321.32 13.02 339.09 13.02 352.41 43.78 334.64 43.78 347.97 1.48 372.39 1.48 332.43"/><polyline class="cls-4" points="116.85 220.83 116.85 234.16 86.09 216.39 86.09 229.72 128.39 254.14 128.39 214.17 86.09 189.75 86.09 203.07 116.85 220.83"/><polygon class="cls-4" points="128.39 254.15 170.69 229.73 170.69 243.05 139.93 260.81 139.93 274.13 170.69 256.37 170.69 269.69 128.39 294.12 128.39 254.15"/><polyline class="cls-4" points="32.25 220.83 32.25 234.16 1.48 216.39 1.48 229.72 43.78 254.14 43.78 214.17 1.48 189.75 1.48 203.07 32.25 220.83"/><polygon class="cls-4" points="43.78 254.15 86.09 229.73 86.09 243.05 55.32 260.81 55.32 274.13 86.09 256.37 86.09 269.69 43.78 294.12 43.78 254.15"/></g><g class="cls-22"><polyline class="cls-4" points="159.15 455.66 159.15 468.98 128.39 451.22 128.39 464.54 170.69 488.96 170.69 449 128.39 424.57 128.39 437.89 159.15 455.66"/><polyline class="cls-4" points="74.55 455.66 74.55 468.98 43.78 451.22 43.78 464.54 86.09 488.96 86.09 449 43.78 424.57 43.78 437.89 74.55 455.66"/><polygon class="cls-4" points="86.09 488.98 128.39 464.55 128.39 477.87 97.62 495.64 97.62 508.96 128.39 491.19 128.39 504.52 86.09 528.94 86.09 488.98"/><polygon class="cls-4" points="1.48 488.98 43.78 464.55 43.78 477.87 13.02 495.64 13.02 508.96 43.78 491.19 43.78 504.52 1.48 528.94 1.48 488.98"/><polyline class="cls-4" points="116.85 377.38 116.85 390.7 86.09 372.94 86.09 386.26 128.39 410.69 128.39 370.72 86.09 346.3 86.09 359.62 116.85 377.38"/><polygon class="cls-4" points="128.39 410.7 170.69 386.28 170.69 399.6 139.93 417.36 139.93 430.68 170.69 412.92 170.69 426.24 128.39 450.67 128.39 410.7"/><polyline class="cls-4" points="32.25 377.38 32.25 390.7 1.48 372.94 1.48 386.26 43.78 410.69 43.78 370.72 1.48 346.3 1.48 359.62 32.25 377.38"/><polygon class="cls-4" points="43.78 410.7 86.09 386.28 86.09 399.6 55.32 417.36 55.32 430.68 86.09 412.92 86.09 426.24 43.78 450.67 43.78 410.7"/></g><g class="cls-23"><polygon class="cls-4" points="-40.82 97.6 1.48 73.18 1.48 86.5 -29.28 104.26 -29.28 117.58 1.48 99.82 1.48 113.14 -40.82 137.57 -40.82 97.6"/><polyline class="cls-4" points="-10.05 -13.99 -10.05 -0.67 -40.82 -18.43 -40.82 -5.11 1.48 19.31 1.48 -20.65 -40.82 -45.08 -40.82 -31.75 -10.05 -13.99"/></g><g class="cls-24"><polygon class="cls-4" points="-40.82 254.15 1.48 229.73 1.48 243.05 -29.28 260.81 -29.28 274.13 1.48 256.37 1.48 269.69 -40.82 294.12 -40.82 254.15"/><polyline class="cls-4" points="-10.05 142.56 -10.05 155.88 -40.82 138.12 -40.82 151.44 1.48 175.86 1.48 135.9 -40.82 111.47 -40.82 124.8 -10.05 142.56"/><polygon class="cls-4" points="-40.82 97.6 1.48 73.18 1.48 86.5 -29.28 104.26 -29.28 117.58 1.48 99.82 1.48 113.14 -40.82 137.57 -40.82 97.6"/></g><g class="cls-25"><polygon class="cls-4" points="-40.82 410.7 1.48 386.28 1.48 399.6 -29.28 417.36 -29.28 430.68 1.48 412.92 1.48 426.24 -40.82 450.67 -40.82 410.7"/><polyline class="cls-4" points="-10.05 299.11 -10.05 312.43 -40.82 294.67 -40.82 307.99 1.48 332.41 1.48 292.45 -40.82 268.02 -40.82 281.35 -10.05 299.11"/><polygon class="cls-4" points="-40.82 254.15 1.48 229.73 1.48 243.05 -29.28 260.81 -29.28 274.13 1.48 256.37 1.48 269.69 -40.82 294.12 -40.82 254.15"/></g><g class="cls-26"><polyline class="cls-4" points="-10.05 455.66 -10.05 468.98 -40.82 451.22 -40.82 464.54 1.48 488.96 1.48 449 -40.82 424.57 -40.82 437.89 -10.05 455.66"/><polygon class="cls-4" points="-40.82 410.7 1.48 386.28 1.48 399.6 -29.28 417.36 -29.28 430.68 1.48 412.92 1.48 426.24 -40.82 450.67 -40.82 410.7"/></g></g><g class="cls-28"><g class="cls-29"><polygon class="cls-4" points="465.98 524.66 400.02 486.57 400.02 507.35 447.99 535.04 447.99 555.81 400.02 528.12 400.02 548.89 465.98 586.97 465.98 524.66"/></g><g class="cls-30"><polygon class="cls-4" points="334.06 524.66 400.02 486.57 400.02 507.35 352.05 535.04 352.05 555.81 400.02 528.12 400.02 548.89 334.06 586.97 334.06 524.66"/><polygon class="cls-4" points="268.1 524.66 202.14 486.57 202.14 507.35 250.11 535.04 250.11 555.81 202.14 528.12 202.14 548.89 268.1 586.97 268.1 524.66"/></g><g class="cls-31"><polygon class="cls-4" points="136.18 524.66 202.14 486.57 202.14 507.35 154.17 535.04 154.17 555.81 202.14 528.12 202.14 548.89 136.18 586.97 136.18 524.66"/><polygon class="cls-4" points="70.22 524.66 4.27 486.57 4.27 507.35 52.24 535.04 52.24 555.81 4.27 528.12 4.27 548.89 70.22 586.97 70.22 524.66"/></g><g class="cls-32"><polygon class="cls-4" points="-61.69 524.66 4.27 486.57 4.27 507.35 -43.7 535.04 -43.7 555.81 4.27 528.12 4.27 548.89 -61.69 586.97 -61.69 524.66"/></g></g></svg>