<svg id="Layer_1" data-name="Layer 1" xmlns="http://www.w3.org/2000/svg" xmlns:xlink="http://www.w3.org/1999/xlink" viewBox="0 0 500 500"><defs><style>.cls-1{fill:none;}.cls-2{clip-path:url(#clip-path);}.cls-3{clip-path:url(#clip-path-2);}.cls-4{fill:#010101;}.cls-5{clip-path:url(#clip-path-3);}.cls-6{clip-path:url(#clip-path-4);}.cls-7{clip-path:url(#clip-path-5);}.cls-8{clip-path:url(#clip-path-6);}.cls-9{clip-path:url(#clip-path-7);}.cls-10{clip-path:url(#clip-path-8);}.cls-11{clip-path:url(#clip-path-9);}.cls-12{clip-path:url(#clip-path-10);}.cls-13{clip-path:url(#clip-path-11);}.cls-14{clip-path:url(#clip-path-12);}.cls-15{clip-path:url(#clip-path-13);}.cls-16{clip-path:url(#clip-path-14);}.cls-17{clip-path:url(#clip-path-15);}.cls-18{clip-path:url(#clip-path-16);}.cls-19{clip-path:url(#clip-path-17);}.cls-20{clip-path:url(#clip-path-18);}.cls-21{clip-path:url(#clip-path-19);}.cls-22{clip-path:url(#clip-path-20);}.cls-23{clip-path:url(#clip-path-21);}.cls-24{clip-path:url(#clip-path-22);}.cls-25{clip-path:url(#clip-path-23);}.cls-26{clip-path:url(#clip-path-24);}.cls-27{clip-path:url(#clip-path-25);}.cls-28{clip-path:url(#clip-path-26);}</style><clipPath id="clip-path"><rect class="cls-1" x="570.16" y="-592.57" width="500" height="500"/></clipPath><clipPath id="clip-path-2"><rect class="cls-1" x="521.12" y="-235.11" width="115.37" height="199.83"/></clipPath><clipPath id="clip-path-3"><rect class="cls-1" width="500" height="500"/></clipPath><clipPath id="clip-path-4"><rect class="cls-1" x="570.16" width="500" height="500"/></clipPath><clipPath id="clip-path-5"><rect class="cls-1" x="402.43" y="-71.17" width="169.21" height="156.55"/></clipPath><clipPath id="clip-path-6"><rect class="cls-1" x="402.43" y="85.38" width="169.21" height="156.55"/></clipPath><clipPath id="clip-path-7"><rect class="cls-1" x="402.43" y="241.93" width="169.21" height="156.55"/></clipPath><clipPath id="clip-path-8"><rect class="cls-1" x="402.43" y="398.48" width="169.21" height="156.55"/></clipPath><clipPath id="clip-path-9"><rect class="cls-1" y="613" width="502.19" height="498.26"/></clipPath><clipPath id="clip-path-10"><rect class="cls-1" x="425.51" y="413.78" width="115.37" height="199.51"/></clipPath><clipPath id="clip-path-11"><rect class="cls-1" x="310.14" y="413.78" width="115.37" height="199.51"/></clipPath><clipPath id="clip-path-12"><rect class="cls-1" x="194.77" y="413.78" width="115.37" height="199.51"/></clipPath><clipPath id="clip-path-13"><rect class="cls-1" x="79.4" y="413.78" width="115.37" height="199.51"/></clipPath><clipPath id="clip-path-14"><rect class="cls-1" x="-35.97" y="413.78" width="115.37" height="199.51"/></clipPath><clipPath id="clip-path-15"><rect class="cls-1" x="-585.12" width="500" height="500"/></clipPath><clipPath id="clip-path-16"><rect class="cls-1" x="-90.13" y="-26.04" width="70.29" height="121.75"/></clipPath><clipPath id="clip-path-17"><rect class="cls-1" x="-54.99" y="55.13" width="70.29" height="81.16"/></clipPath><clipPath id="clip-path-18"><rect class="cls-1" x="-90.13" y="95.71" width="70.29" height="121.75"/></clipPath><clipPath id="clip-path-19"><rect class="cls-1" x="-54.99" y="176.87" width="70.29" height="81.16"/></clipPath><clipPath id="clip-path-20"><rect class="cls-1" x="-90.13" y="217.46" width="70.29" height="121.75"/></clipPath><clipPath id="clip-path-21"><rect class="cls-1" x="-54.99" y="298.62" width="70.29" height="81.16"/></clipPath><clipPath id="clip-path-22"><rect class="cls-1" x="-90.13" y="339.2" width="70.29" height="121.75"/></clipPath><clipPath id="clip-path-23"><rect class="cls-1" x="-54.99" y="420.37" width="70.29" height="81.16"/></clipPath><clipPath id="clip-path-24"><rect class="cls-1" x="-90.13" y="460.95" width="70.29" height="121.75"/></clipPath><clipPath id="clip-path-25"><rect class="cls-1" x="570.16" y="595.97" width="500" height="500"/></clipPath><clipPath id="clip-path-26"><rect class="cls-1" x="376.55" y="564.65" width="197.87" height="158.15"/></clipPath></defs><title>pattern2</title><g class="cls-2"><g class="cls-3"><polygon class="cls-4" points="578.8 -68.59 521.12 -101.89 501.89 -90.79 559.57 -57.49 549.96 -35.28 540.35 -46.39 482.66 -79.69 463.43 -68.59 521.12 -35.28 540.35 -13.08 521.12 31.32 540.35 20.22 549.96 -1.98 559.57 9.12 578.8 -1.98 559.57 -24.18 578.8 -68.59"/></g></g><g class="cls-5"><rect class="cls-1" x="487.04" y="-62.32" width="84.6" height="64.39"/><polygon class="cls-4" points="529.34 -37.9 487.04 -62.32 487.04 -49 517.8 -31.24 517.8 -17.92 487.04 -35.68 487.04 -22.36 529.34 2.06 529.34 -37.9"/><rect class="cls-1" x="487.04" y="2.07" width="84.6" height="64.39"/><polygon class="cls-4" points="529.34 26.49 487.04 2.06 487.04 15.39 517.8 33.15 517.8 46.47 487.04 28.71 487.04 42.03 529.34 66.45 529.34 26.49"/><rect class="cls-1" x="487.04" y="66.45" width="84.6" height="64.39"/><polygon class="cls-4" points="529.34 90.88 487.04 66.45 487.04 79.78 517.8 97.54 517.8 110.86 487.04 93.1 487.04 106.42 529.34 130.84 529.34 90.88"/><rect class="cls-1" x="487.04" y="130.84" width="84.6" height="64.39"/><polygon class="cls-4" points="529.34 155.26 487.04 130.84 487.04 144.16 517.8 161.93 517.8 175.25 487.04 157.49 487.04 170.81 529.34 195.23 529.34 155.26"/><rect class="cls-1" x="487.04" y="195.23" width="84.6" height="64.39"/><polygon class="cls-4" points="529.34 219.65 487.04 195.23 487.04 208.55 517.8 226.31 517.8 239.64 487.04 221.87 487.04 235.2 529.34 259.62 529.34 219.65"/><rect class="cls-1" x="487.04" y="259.62" width="84.6" height="64.39"/><polygon class="cls-4" points="529.34 284.04 487.04 259.62 487.04 272.94 517.8 290.7 517.8 304.02 487.04 286.26 487.04 299.58 529.34 324.01 529.34 284.04"/><rect class="cls-1" x="487.04" y="324.01" width="84.6" height="64.39"/><polygon class="cls-4" points="529.34 348.43 487.04 324.01 487.04 337.33 517.8 355.09 517.8 368.41 487.04 350.65 487.04 363.97 529.34 388.4 529.34 348.43"/><rect class="cls-1" x="487.04" y="388.4" width="84.6" height="64.39"/><polygon class="cls-4" points="529.34 412.82 487.04 388.4 487.04 401.72 517.8 419.48 517.8 432.8 487.04 415.04 487.04 428.36 529.34 452.78 529.34 412.82"/><rect class="cls-1" x="487.04" y="452.78" width="84.6" height="64.39"/><polygon class="cls-4" points="529.34 477.21 487.04 452.78 487.04 466.11 517.8 483.87 517.8 497.19 487.04 479.43 487.04 492.75 529.34 517.17 529.34 477.21"/><rect class="cls-1" x="402.43" y="-62.32" width="84.6" height="64.39"/><polygon class="cls-4" points="444.74 -37.9 402.44 -62.32 402.44 -49 433.2 -31.24 433.2 -17.92 402.44 -35.68 402.44 -22.36 444.74 2.06 444.74 -37.9"/><polygon class="cls-4" points="444.74 -37.9 487.04 -62.32 487.04 -49 456.27 -31.24 456.27 -17.92 487.04 -35.68 487.04 -22.36 444.74 2.06 444.74 -37.9"/><rect class="cls-1" x="402.43" y="2.07" width="84.6" height="64.39"/><polygon class="cls-4" points="444.74 26.49 402.44 2.06 402.44 15.39 433.2 33.15 433.2 46.47 402.44 28.71 402.44 42.03 444.74 66.45 444.74 26.49"/><polygon class="cls-4" points="444.74 26.49 487.04 2.06 487.04 15.39 456.27 33.15 456.27 46.47 487.04 28.71 487.04 42.03 444.74 66.45 444.74 26.49"/><rect class="cls-1" x="402.43" y="66.45" width="84.6" height="64.39"/><polygon class="cls-4" points="444.74 90.88 402.44 66.45 402.44 79.78 433.2 97.54 433.2 110.86 402.44 93.1 402.44 106.42 444.74 130.84 444.74 90.88"/><polygon class="cls-4" points="444.74 90.88 487.04 66.45 487.04 79.78 456.27 97.54 456.27 110.86 487.04 93.1 487.04 106.42 444.74 130.84 444.74 90.88"/><rect class="cls-1" x="402.43" y="130.84" width="84.6" height="64.39"/><polygon class="cls-4" points="444.74 155.26 402.44 130.84 402.44 144.16 433.2 161.93 433.2 175.25 402.44 157.49 402.44 170.81 444.74 195.23 444.74 155.26"/><polygon class="cls-4" points="444.74 155.26 487.04 130.84 487.04 144.16 456.27 161.93 456.27 175.25 487.04 157.49 487.04 170.81 444.74 195.23 444.74 155.26"/><rect class="cls-1" x="402.43" y="195.23" width="84.6" height="64.39"/><polygon class="cls-4" points="444.74 219.65 402.44 195.23 402.44 208.55 433.2 226.31 433.2 239.64 402.44 221.87 402.44 235.2 444.74 259.62 444.74 219.65"/><polygon class="cls-4" points="444.74 219.65 487.04 195.23 487.04 208.55 456.27 226.31 456.27 239.64 487.04 221.87 487.04 235.2 444.74 259.62 444.74 219.65"/><rect class="cls-1" x="402.43" y="259.62" width="84.6" height="64.39"/><polygon class="cls-4" points="444.74 284.04 402.44 259.62 402.44 272.94 433.2 290.7 433.2 304.02 402.44 286.26 402.44 299.58 444.74 324.01 444.74 284.04"/><polygon class="cls-4" points="444.74 284.04 487.04 259.62 487.04 272.94 456.27 290.7 456.27 304.02 487.04 286.26 487.04 299.58 444.74 324.01 444.74 284.04"/><rect class="cls-1" x="402.43" y="324.01" width="84.6" height="64.39"/><polygon class="cls-4" points="444.74 348.43 402.44 324.01 402.44 337.33 433.2 355.09 433.2 368.41 402.44 350.65 402.44 363.97 444.74 388.4 444.74 348.43"/><polygon class="cls-4" points="444.74 348.43 487.04 324.01 487.04 337.33 456.27 355.09 456.27 368.41 487.04 350.65 487.04 363.97 444.74 388.4 444.74 348.43"/><rect class="cls-1" x="402.43" y="388.4" width="84.6" height="64.39"/><polygon class="cls-4" points="444.74 412.82 402.44 388.4 402.44 401.72 433.2 419.48 433.2 432.8 402.44 415.04 402.44 428.36 444.74 452.78 444.74 412.82"/><polygon class="cls-4" points="444.74 412.82 487.04 388.4 487.04 401.72 456.27 419.48 456.27 432.8 487.04 415.04 487.04 428.36 444.74 452.78 444.74 412.82"/><rect class="cls-1" x="402.43" y="452.78" width="84.6" height="64.39"/><polygon class="cls-4" points="444.74 477.21 402.44 452.78 402.44 466.11 433.2 483.87 433.2 497.19 402.44 479.43 402.44 492.75 444.74 517.17 444.74 477.21"/><polygon class="cls-4" points="444.74 477.21 487.04 452.78 487.04 466.11 456.27 483.87 456.27 497.19 487.04 479.43 487.04 492.75 444.74 517.17 444.74 477.21"/><rect class="cls-1" x="317.83" y="-62.32" width="84.6" height="64.39"/><polygon class="cls-4" points="360.13 -37.9 317.83 -62.32 317.83 -49 348.6 -31.24 348.6 -17.92 317.83 -35.68 317.83 -22.36 360.13 2.06 360.13 -37.9"/><polygon class="cls-4" points="360.13 -37.9 402.44 -62.32 402.44 -49 371.67 -31.24 371.67 -17.92 402.44 -35.68 402.43 -22.36 360.13 2.06 360.13 -37.9"/><rect class="cls-1" x="317.83" y="2.07" width="84.6" height="64.39"/><polygon class="cls-4" points="360.13 26.49 317.83 2.06 317.83 15.39 348.6 33.15 348.6 46.47 317.83 28.71 317.83 42.03 360.13 66.45 360.13 26.49"/><polygon class="cls-4" points="360.13 26.49 402.44 2.06 402.44 15.39 371.67 33.15 371.67 46.47 402.44 28.71 402.43 42.03 360.13 66.45 360.13 26.49"/><rect class="cls-1" x="317.83" y="66.45" width="84.6" height="64.39"/><polygon class="cls-4" points="360.13 90.88 317.83 66.45 317.83 79.78 348.6 97.54 348.6 110.86 317.83 93.1 317.83 106.42 360.13 130.84 360.13 90.88"/><polygon class="cls-4" points="360.13 90.88 402.44 66.45 402.44 79.78 371.67 97.54 371.67 110.86 402.44 93.1 402.43 106.42 360.13 130.84 360.13 90.88"/><rect class="cls-1" x="317.83" y="130.84" width="84.6" height="64.39"/><polygon class="cls-4" points="360.13 155.26 317.83 130.84 317.83 144.16 348.6 161.93 348.6 175.25 317.83 157.49 317.83 170.81 360.13 195.23 360.13 155.26"/><polygon class="cls-4" points="360.13 155.26 402.44 130.84 402.44 144.16 371.67 161.93 371.67 175.25 402.44 157.49 402.43 170.81 360.13 195.23 360.13 155.26"/><rect class="cls-1" x="317.83" y="195.23" width="84.6" height="64.39"/><polygon class="cls-4" points="360.13 219.65 317.83 195.23 317.83 208.55 348.6 226.31 348.6 239.64 317.83 221.87 317.83 235.2 360.13 259.62 360.13 219.65"/><polygon class="cls-4" points="360.13 219.65 402.44 195.23 402.44 208.55 371.67 226.31 371.67 239.64 402.44 221.87 402.43 235.2 360.13 259.62 360.13 219.65"/><rect class="cls-1" x="317.83" y="259.62" width="84.6" height="64.39"/><polygon class="cls-4" points="360.13 284.04 317.83 259.62 317.83 272.94 348.6 290.7 348.6 304.02 317.83 286.26 317.83 299.58 360.13 324.01 360.13 284.04"/><polygon class="cls-4" points="360.13 284.04 402.44 259.62 402.44 272.94 371.67 290.7 371.67 304.02 402.44 286.26 402.43 299.58 360.13 324.01 360.13 284.04"/><rect class="cls-1" x="317.83" y="324.01" width="84.6" height="64.39"/><polygon class="cls-4" points="360.13 348.43 317.83 324.01 317.83 337.33 348.6 355.09 348.6 368.41 317.83 350.65 317.83 363.97 360.13 388.4 360.13 348.43"/><polygon class="cls-4" points="360.13 348.43 402.44 324.01 402.44 337.33 371.67 355.09 371.67 368.41 402.44 350.65 402.43 363.97 360.13 388.4 360.13 348.43"/><rect class="cls-1" x="317.83" y="388.4" width="84.6" height="64.39"/><polygon class="cls-4" points="360.13 412.82 317.83 388.4 317.83 401.72 348.6 419.48 348.6 432.8 317.83 415.04 317.83 428.36 360.13 452.78 360.13 412.82"/><polygon class="cls-4" points="360.13 412.82 402.44 388.4 402.44 401.72 371.67 419.48 371.67 432.8 402.44 415.04 402.43 428.36 360.13 452.78 360.13 412.82"/><rect class="cls-1" x="317.83" y="452.78" width="84.6" height="64.39"/><polygon class="cls-4" points="360.13 477.21 317.83 452.78 317.83 466.11 348.6 483.87 348.6 497.19 317.83 479.43 317.83 492.75 360.13 517.17 360.13 477.21"/><polygon class="cls-4" points="360.13 477.21 402.44 452.78 402.44 466.11 371.67 483.87 371.67 497.19 402.44 479.43 402.43 492.75 360.13 517.17 360.13 477.21"/><rect class="cls-1" x="233.23" y="-62.32" width="84.6" height="64.39"/><polygon class="cls-4" points="275.53 -37.9 233.23 -62.32 233.23 -49 263.99 -31.24 263.99 -17.92 233.23 -35.68 233.23 -22.36 275.53 2.06 275.53 -37.9"/><polygon class="cls-4" points="275.53 -37.9 317.83 -62.32 317.83 -49 287.06 -31.24 287.06 -17.92 317.83 -35.68 317.83 -22.36 275.53 2.06 275.53 -37.9"/><rect class="cls-1" x="233.23" y="2.07" width="84.6" height="64.39"/><polygon class="cls-4" points="275.53 26.49 233.23 2.06 233.23 15.39 263.99 33.15 263.99 46.47 233.23 28.71 233.23 42.03 275.53 66.45 275.53 26.49"/><polygon class="cls-4" points="275.53 26.49 317.83 2.06 317.83 15.39 287.06 33.15 287.06 46.47 317.83 28.71 317.83 42.03 275.53 66.45 275.53 26.49"/><rect class="cls-1" x="233.23" y="66.45" width="84.6" height="64.39"/><polygon class="cls-4" points="275.53 90.88 233.23 66.45 233.23 79.78 263.99 97.54 263.99 110.86 233.23 93.1 233.23 106.42 275.53 130.84 275.53 90.88"/><polygon class="cls-4" points="275.53 90.88 317.83 66.45 317.83 79.78 287.06 97.54 287.06 110.86 317.83 93.1 317.83 106.42 275.53 130.84 275.53 90.88"/><rect class="cls-1" x="233.23" y="130.84" width="84.6" height="64.39"/><polygon class="cls-4" points="275.53 155.26 233.23 130.84 233.23 144.16 263.99 161.93 263.99 175.25 233.23 157.49 233.23 170.81 275.53 195.23 275.53 155.26"/><polygon class="cls-4" points="275.53 155.26 317.83 130.84 317.83 144.16 287.06 161.93 287.06 175.25 317.83 157.49 317.83 170.81 275.53 195.23 275.53 155.26"/><rect class="cls-1" x="233.23" y="195.23" width="84.6" height="64.39"/><polygon class="cls-4" points="275.53 219.65 233.23 195.23 233.23 208.55 263.99 226.31 263.99 239.64 233.23 221.87 233.23 235.2 275.53 259.62 275.53 219.65"/><polygon class="cls-4" points="275.53 219.65 317.83 195.23 317.83 208.55 287.06 226.31 287.06 239.64 317.83 221.87 317.83 235.2 275.53 259.62 275.53 219.65"/><rect class="cls-1" x="233.23" y="259.62" width="84.6" height="64.39"/><polygon class="cls-4" points="275.53 284.04 233.23 259.62 233.23 272.94 263.99 290.7 263.99 304.02 233.23 286.26 233.23 299.58 275.53 324.01 275.53 284.04"/><polygon class="cls-4" points="275.53 284.04 317.83 259.62 317.83 272.94 287.06 290.7 287.06 304.02 317.83 286.26 317.83 299.58 275.53 324.01 275.53 284.04"/><rect class="cls-1" x="233.23" y="324.01" width="84.6" height="64.39"/><polygon class="cls-4" points="275.53 348.43 233.23 324.01 233.23 337.33 263.99 355.09 263.99 368.41 233.23 350.65 233.23 363.97 275.53 388.4 275.53 348.43"/><polygon class="cls-4" points="275.53 348.43 317.83 324.01 317.83 337.33 287.06 355.09 287.06 368.41 317.83 350.65 317.83 363.97 275.53 388.4 275.53 348.43"/><rect class="cls-1" x="233.23" y="388.4" width="84.6" height="64.39"/><polygon class="cls-4" points="275.53 412.82 233.23 388.4 233.23 401.72 263.99 419.48 263.99 432.8 233.23 415.04 233.23 428.36 275.53 452.78 275.53 412.82"/><polygon class="cls-4" points="275.53 412.82 317.83 388.4 317.83 401.72 287.06 419.48 287.06 432.8 317.83 415.04 317.83 428.36 275.53 452.78 275.53 412.82"/><rect class="cls-1" x="233.23" y="452.78" width="84.6" height="64.39"/><polygon class="cls-4" points="275.53 477.21 233.23 452.78 233.23 466.11 263.99 483.87 263.99 497.19 233.23 479.43 233.23 492.75 275.53 517.17 275.53 477.21"/><polygon class="cls-4" points="275.53 477.21 317.83 452.78 317.83 466.11 287.06 483.87 287.06 497.19 317.83 479.43 317.83 492.75 275.53 517.17 275.53 477.21"/><rect class="cls-1" x="148.62" y="-62.32" width="84.6" height="64.39"/><polygon class="cls-4" points="190.92 -37.9 148.62 -62.32 148.62 -49 179.39 -31.24 179.39 -17.92 148.62 -35.68 148.62 -22.36 190.92 2.06 190.92 -37.9"/><polygon class="cls-4" points="190.92 -37.9 233.23 -62.32 233.23 -49 202.46 -31.24 202.46 -17.92 233.23 -35.68 233.22 -22.36 190.92 2.06 190.92 -37.9"/><rect class="cls-1" x="148.62" y="2.07" width="84.6" height="64.39"/><polygon class="cls-4" points="190.92 26.49 148.62 2.06 148.62 15.39 179.39 33.15 179.39 46.47 148.62 28.71 148.62 42.03 190.92 66.45 190.92 26.49"/><polygon class="cls-4" points="190.92 26.49 233.23 2.06 233.23 15.39 202.46 33.15 202.46 46.47 233.23 28.71 233.22 42.03 190.92 66.45 190.92 26.49"/><rect class="cls-1" x="148.62" y="66.45" width="84.6" height="64.39"/><polygon class="cls-4" points="190.92 90.88 148.62 66.45 148.62 79.78 179.39 97.54 179.39 110.86 148.62 93.1 148.62 106.42 190.92 130.84 190.92 90.88"/><polygon class="cls-4" points="190.92 90.88 233.23 66.45 233.23 79.78 202.46 97.54 202.46 110.86 233.23 93.1 233.22 106.42 190.92 130.84 190.92 90.88"/><rect class="cls-1" x="148.62" y="130.84" width="84.6" height="64.39"/><polygon class="cls-4" points="190.92 155.26 148.62 130.84 148.62 144.16 179.39 161.93 179.39 175.25 148.62 157.49 148.62 170.81 190.92 195.23 190.92 155.26"/><polygon class="cls-4" points="190.92 155.26 233.23 130.84 233.23 144.16 202.46 161.93 202.46 175.25 233.23 157.49 233.22 170.81 190.92 195.23 190.92 155.26"/><rect class="cls-1" x="148.62" y="195.23" width="84.6" height="64.39"/><polygon class="cls-4" points="190.92 219.65 148.62 195.23 148.62 208.55 179.39 226.31 179.39 239.64 148.62 221.87 148.62 235.2 190.92 259.62 190.92 219.65"/><polygon class="cls-4" points="190.92 219.65 233.23 195.23 233.23 208.55 202.46 226.31 202.46 239.64 233.23 221.87 233.22 235.2 190.92 259.62 190.92 219.65"/><rect class="cls-1" x="148.62" y="259.62" width="84.6" height="64.39"/><polygon class="cls-4" points="190.92 284.04 148.62 259.62 148.62 272.94 179.39 290.7 179.39 304.02 148.62 286.26 148.62 299.58 190.92 324.01 190.92 284.04"/><polygon class="cls-4" points="190.92 284.04 233.23 259.62 233.23 272.94 202.46 290.7 202.46 304.02 233.23 286.26 233.22 299.58 190.92 324.01 190.92 284.04"/><rect class="cls-1" x="148.62" y="324.01" width="84.6" height="64.39"/><polygon class="cls-4" points="190.92 348.43 148.62 324.01 148.62 337.33 179.39 355.09 179.39 368.41 148.62 350.65 148.62 363.97 190.92 388.4 190.92 348.43"/><polygon class="cls-4" points="190.92 348.43 233.23 324.01 233.23 337.33 202.46 355.09 202.46 368.41 233.23 350.65 233.22 363.97 190.92 388.4 190.92 348.43"/><rect class="cls-1" x="148.62" y="388.4" width="84.6" height="64.39"/><polygon class="cls-4" points="190.92 412.82 148.62 388.4 148.62 401.72 179.39 419.48 179.39 432.8 148.62 415.04 148.62 428.36 190.92 452.78 190.92 412.82"/><polygon class="cls-4" points="190.92 412.82 233.23 388.4 233.23 401.72 202.46 419.48 202.46 432.8 233.23 415.04 233.22 428.36 190.92 452.78 190.92 412.82"/><rect class="cls-1" x="148.62" y="452.78" width="84.6" height="64.39"/><polygon class="cls-4" points="190.92 477.21 148.62 452.78 148.62 466.11 179.39 483.87 179.39 497.19 148.62 479.43 148.62 492.75 190.92 517.17 190.92 477.21"/><polygon class="cls-4" points="190.92 477.21 233.23 452.78 233.23 466.11 202.46 483.87 202.46 497.19 233.23 479.43 233.22 492.75 190.92 517.17 190.92 477.21"/><rect class="cls-1" x="64.02" y="-62.32" width="84.6" height="64.39"/><polygon class="cls-4" points="106.32 -37.9 64.02 -62.32 64.02 -49 94.78 -31.24 94.78 -17.92 64.02 -35.68 64.02 -22.36 106.32 2.06 106.32 -37.9"/><polygon class="cls-4" points="106.32 -37.9 148.62 -62.32 148.62 -49 117.86 -31.24 117.86 -17.92 148.62 -35.68 148.62 -22.36 106.32 2.06 106.32 -37.9"/><rect class="cls-1" x="64.02" y="2.07" width="84.6" height="64.39"/><polygon class="cls-4" points="106.32 26.49 64.02 2.06 64.02 15.39 94.78 33.15 94.78 46.47 64.02 28.71 64.02 42.03 106.32 66.45 106.32 26.49"/><polygon class="cls-4" points="106.32 26.49 148.62 2.06 148.62 15.39 117.86 33.15 117.86 46.47 148.62 28.71 148.62 42.03 106.32 66.45 106.32 26.49"/><rect class="cls-1" x="64.02" y="66.45" width="84.6" height="64.39"/><polygon class="cls-4" points="106.32 90.88 64.02 66.45 64.02 79.78 94.78 97.54 94.78 110.86 64.02 93.1 64.02 106.42 106.32 130.84 106.32 90.88"/><polygon class="cls-4" points="106.32 90.88 148.62 66.45 148.62 79.78 117.86 97.54 117.86 110.86 148.62 93.1 148.62 106.42 106.32 130.84 106.32 90.88"/><rect class="cls-1" x="64.02" y="130.84" width="84.6" height="64.39"/><polygon class="cls-4" points="106.32 155.26 64.02 130.84 64.02 144.16 94.78 161.93 94.78 175.25 64.02 157.49 64.02 170.81 106.32 195.23 106.32 155.26"/><polygon class="cls-4" points="106.32 155.26 148.62 130.84 148.62 144.16 117.86 161.93 117.86 175.25 148.62 157.49 148.62 170.81 106.32 195.23 106.32 155.26"/><rect class="cls-1" x="64.02" y="195.23" width="84.6" height="64.39"/><polygon class="cls-4" points="106.32 219.65 64.02 195.23 64.02 208.55 94.78 226.31 94.78 239.64 64.02 221.87 64.02 235.2 106.32 259.62 106.32 219.65"/><polygon class="cls-4" points="106.32 219.65 148.62 195.23 148.62 208.55 117.86 226.31 117.86 239.64 148.62 221.87 148.62 235.2 106.32 259.62 106.32 219.65"/><rect class="cls-1" x="64.02" y="259.62" width="84.6" height="64.39"/><polygon class="cls-4" points="106.32 284.04 64.02 259.62 64.02 272.94 94.78 290.7 94.78 304.02 64.02 286.26 64.02 299.58 106.32 324.01 106.32 284.04"/><polygon class="cls-4" points="106.32 284.04 148.62 259.62 148.62 272.94 117.86 290.7 117.86 304.02 148.62 286.26 148.62 299.58 106.32 324.01 106.32 284.04"/><rect class="cls-1" x="64.02" y="324.01" width="84.6" height="64.39"/><polygon class="cls-4" points="106.32 348.43 64.02 324.01 64.02 337.33 94.78 355.09 94.78 368.41 64.02 350.65 64.02 363.97 106.32 388.4 106.32 348.43"/><polygon class="cls-4" points="106.32 348.43 148.62 324.01 148.62 337.33 117.86 355.09 117.86 368.41 148.62 350.65 148.62 363.97 106.32 388.4 106.32 348.43"/><rect class="cls-1" x="64.02" y="388.4" width="84.6" height="64.39"/><polygon class="cls-4" points="106.32 412.82 64.02 388.4 64.02 401.72 94.78 419.48 94.78 432.8 64.02 415.04 64.02 428.36 106.32 452.78 106.32 412.82"/><polygon class="cls-4" points="106.32 412.82 148.62 388.4 148.62 401.72 117.86 419.48 117.86 432.8 148.62 415.04 148.62 428.36 106.32 452.78 106.32 412.82"/><rect class="cls-1" x="64.02" y="452.78" width="84.6" height="64.39"/><polygon class="cls-4" points="106.32 477.21 64.02 452.78 64.02 466.11 94.78 483.87 94.78 497.19 64.02 479.43 64.02 492.75 106.32 517.17 106.32 477.21"/><polygon class="cls-4" points="106.32 477.21 148.62 452.78 148.62 466.11 117.86 483.87 117.86 497.19 148.62 479.43 148.62 492.75 106.32 517.17 106.32 477.21"/><rect class="cls-1" x="-20.59" y="-62.32" width="84.6" height="64.39"/><polygon class="cls-4" points="21.71 -37.9 -20.59 -62.32 -20.59 -49 10.18 -31.24 10.18 -17.92 -20.59 -35.68 -20.59 -22.36 21.71 2.06 21.71 -37.9"/><polygon class="cls-4" points="21.71 -37.9 64.02 -62.32 64.02 -49 33.25 -31.24 33.25 -17.92 64.02 -35.68 64.02 -22.36 21.71 2.06 21.71 -37.9"/><rect class="cls-1" x="-20.59" y="2.07" width="84.6" height="64.39"/><polygon class="cls-4" points="21.71 26.49 -20.59 2.06 -20.59 15.39 10.18 33.15 10.18 46.47 -20.59 28.71 -20.59 42.03 21.71 66.45 21.71 26.49"/><polygon class="cls-4" points="21.71 26.49 64.02 2.06 64.02 15.39 33.25 33.15 33.25 46.47 64.02 28.71 64.02 42.03 21.71 66.45 21.71 26.49"/><rect class="cls-1" x="-20.59" y="66.45" width="84.6" height="64.39"/><polygon class="cls-4" points="21.71 90.88 -20.59 66.45 -20.59 79.78 10.18 97.54 10.18 110.86 -20.59 93.1 -20.59 106.42 21.71 130.84 21.71 90.88"/><polygon class="cls-4" points="21.71 90.88 64.02 66.45 64.02 79.78 33.25 97.54 33.25 110.86 64.02 93.1 64.02 106.42 21.71 130.84 21.71 90.88"/><rect class="cls-1" x="-20.59" y="130.84" width="84.6" height="64.39"/><polygon class="cls-4" points="21.71 155.26 -20.59 130.84 -20.59 144.16 10.18 161.93 10.18 175.25 -20.59 157.49 -20.59 170.81 21.71 195.23 21.71 155.26"/><polygon class="cls-4" points="21.71 155.26 64.02 130.84 64.02 144.16 33.25 161.93 33.25 175.25 64.02 157.49 64.02 170.81 21.71 195.23 21.71 155.26"/><rect class="cls-1" x="-20.59" y="195.23" width="84.6" height="64.39"/><polygon class="cls-4" points="21.71 219.65 -20.59 195.23 -20.59 208.55 10.18 226.31 10.18 239.64 -20.59 221.87 -20.59 235.2 21.71 259.62 21.71 219.65"/><polygon class="cls-4" points="21.71 219.65 64.02 195.23 64.02 208.55 33.25 226.31 33.25 239.64 64.02 221.87 64.02 235.2 21.71 259.62 21.71 219.65"/><rect class="cls-1" x="-20.59" y="259.62" width="84.6" height="64.39"/><polygon class="cls-4" points="21.71 284.04 -20.59 259.62 -20.59 272.94 10.18 290.7 10.18 304.02 -20.59 286.26 -20.59 299.58 21.71 324.01 21.71 284.04"/><polygon class="cls-4" points="21.71 284.04 64.02 259.62 64.02 272.94 33.25 290.7 33.25 304.02 64.02 286.26 64.02 299.58 21.71 324.01 21.71 284.04"/><rect class="cls-1" x="-20.59" y="324.01" width="84.6" height="64.39"/><polygon class="cls-4" points="21.71 348.43 -20.59 324.01 -20.59 337.33 10.18 355.09 10.18 368.41 -20.59 350.65 -20.59 363.97 21.71 388.4 21.71 348.43"/><polygon class="cls-4" points="21.71 348.43 64.02 324.01 64.02 337.33 33.25 355.09 33.25 368.41 64.02 350.65 64.02 363.97 21.71 388.4 21.71 348.43"/><rect class="cls-1" x="-20.59" y="388.4" width="84.6" height="64.39"/><polygon class="cls-4" points="21.71 412.82 -20.59 388.4 -20.59 401.72 10.18 419.48 10.18 432.8 -20.59 415.04 -20.59 428.36 21.71 452.78 21.71 412.82"/><polygon class="cls-4" points="21.71 412.82 64.02 388.4 64.02 401.72 33.25 419.48 33.25 432.8 64.02 415.04 64.02 428.36 21.71 452.78 21.71 412.82"/><rect class="cls-1" x="-20.59" y="452.78" width="84.6" height="64.39"/><polygon class="cls-4" points="21.71 477.21 -20.59 452.78 -20.59 466.11 10.18 483.87 10.18 497.19 -20.59 479.43 -20.59 492.75 21.71 517.17 21.71 477.21"/><polygon class="cls-4" points="21.71 477.21 64.02 452.78 64.02 466.11 33.25 483.87 33.25 497.19 64.02 479.43 64.02 492.75 21.71 517.17 21.71 477.21"/></g><g class="cls-6"><g class="cls-7"><polyline class="cls-4" points="517.8 64.28 517.8 77.61 487.04 59.84 487.04 73.17 529.34 97.59 529.34 57.62 487.04 33.2 487.04 46.52 517.8 64.28"/><polyline class="cls-4" points="433.2 64.28 433.2 77.61 402.44 59.84 402.44 73.17 444.74 97.59 444.74 57.62 402.44 33.2 402.44 46.52 433.2 64.28"/><polygon class="cls-4" points="444.74 97.6 487.04 73.18 487.04 86.5 456.27 104.26 456.27 117.58 487.04 99.82 487.04 113.14 444.74 137.57 444.74 97.6"/><polyline class="cls-4" points="475.5 -13.99 475.5 -0.67 444.74 -18.43 444.74 -5.11 487.04 19.31 487.04 -20.65 444.74 -45.08 444.74 -31.75 475.5 -13.99"/><polygon class="cls-4" points="487.04 19.33 529.34 -5.1 529.34 8.22 498.58 25.99 498.58 39.31 529.34 21.55 529.34 34.87 487.04 59.29 487.04 19.33"/><polygon class="cls-4" points="402.44 19.33 444.74 -5.1 444.74 8.22 413.97 25.99 413.97 39.31 444.74 21.55 444.74 34.87 402.44 59.29 402.44 19.33"/></g><g class="cls-8"><polyline class="cls-4" points="517.8 220.83 517.8 234.16 487.04 216.39 487.04 229.72 529.34 254.14 529.34 214.17 487.04 189.75 487.04 203.07 517.8 220.83"/><polyline class="cls-4" points="433.2 220.83 433.2 234.16 402.44 216.39 402.44 229.72 444.74 254.14 444.74 214.17 402.44 189.75 402.44 203.07 433.2 220.83"/><polygon class="cls-4" points="444.74 254.15 487.04 229.73 487.04 243.05 456.27 260.81 456.27 274.13 487.04 256.37 487.04 269.69 444.74 294.12 444.74 254.15"/><polyline class="cls-4" points="475.5 142.56 475.5 155.88 444.74 138.12 444.74 151.44 487.04 175.86 487.04 135.9 444.74 111.47 444.74 124.8 475.5 142.56"/><polygon class="cls-4" points="487.04 175.88 529.34 151.45 529.34 164.77 498.58 182.54 498.58 195.86 529.34 178.1 529.34 191.42 487.04 215.84 487.04 175.88"/><polygon class="cls-4" points="402.44 175.88 444.74 151.45 444.74 164.77 413.97 182.54 413.97 195.86 444.74 178.1 444.74 191.42 402.44 215.84 402.44 175.88"/><polyline class="cls-4" points="517.8 64.28 517.8 77.61 487.04 59.84 487.04 73.17 529.34 97.59 529.34 57.62 487.04 33.2 487.04 46.52 517.8 64.28"/><polyline class="cls-4" points="433.2 64.28 433.2 77.61 402.44 59.84 402.44 73.17 444.74 97.59 444.74 57.62 402.44 33.2 402.44 46.52 433.2 64.28"/><polygon class="cls-4" points="444.74 97.6 487.04 73.18 487.04 86.5 456.27 104.26 456.27 117.58 487.04 99.82 487.04 113.14 444.74 137.57 444.74 97.6"/></g><g class="cls-9"><polyline class="cls-4" points="517.8 377.38 517.8 390.7 487.04 372.94 487.04 386.26 529.34 410.69 529.34 370.72 487.04 346.3 487.04 359.62 517.8 377.38"/><polyline class="cls-4" points="433.2 377.38 433.2 390.7 402.44 372.94 402.44 386.26 444.74 410.69 444.74 370.72 402.44 346.3 402.44 359.62 433.2 377.38"/><polygon class="cls-4" points="444.74 410.7 487.04 386.28 487.04 399.6 456.27 417.36 456.27 430.68 487.04 412.92 487.04 426.24 444.74 450.67 444.74 410.7"/><polyline class="cls-4" points="475.5 299.11 475.5 312.43 444.74 294.67 444.74 307.99 487.04 332.41 487.04 292.45 444.74 268.02 444.74 281.35 475.5 299.11"/><polygon class="cls-4" points="487.04 332.43 529.34 308 529.34 321.32 498.58 339.09 498.58 352.41 529.34 334.64 529.34 347.97 487.04 372.39 487.04 332.43"/><polygon class="cls-4" points="402.44 332.43 444.74 308 444.74 321.32 413.97 339.09 413.97 352.41 444.74 334.64 444.74 347.97 402.44 372.39 402.44 332.43"/><polyline class="cls-4" points="517.8 220.83 517.8 234.16 487.04 216.39 487.04 229.72 529.34 254.14 529.34 214.17 487.04 189.75 487.04 203.07 517.8 220.83"/><polyline class="cls-4" points="433.2 220.83 433.2 234.16 402.44 216.39 402.44 229.72 444.74 254.14 444.74 214.17 402.44 189.75 402.44 203.07 433.2 220.83"/><polygon class="cls-4" points="444.74 254.15 487.04 229.73 487.04 243.05 456.27 260.81 456.27 274.13 487.04 256.37 487.04 269.69 444.74 294.12 444.74 254.15"/></g><g class="cls-10"><polyline class="cls-4" points="475.5 455.66 475.5 468.98 444.74 451.22 444.74 464.54 487.04 488.96 487.04 449 444.74 424.57 444.74 437.89 475.5 455.66"/><polygon class="cls-4" points="487.04 488.98 529.34 464.55 529.34 477.87 498.58 495.64 498.58 508.96 529.34 491.19 529.34 504.52 487.04 528.94 487.04 488.98"/><polygon class="cls-4" points="402.44 488.98 444.74 464.55 444.74 477.87 413.97 495.64 413.97 508.96 444.74 491.19 444.74 504.52 402.44 528.94 402.44 488.98"/><polyline class="cls-4" points="517.8 377.38 517.8 390.7 487.04 372.94 487.04 386.26 529.34 410.69 529.34 370.72 487.04 346.3 487.04 359.62 517.8 377.38"/><polyline class="cls-4" points="433.2 377.38 433.2 390.7 402.44 372.94 402.44 386.26 444.74 410.69 444.74 370.72 402.44 346.3 402.44 359.62 433.2 377.38"/><polygon class="cls-4" points="444.74 410.7 487.04 386.28 487.04 399.6 456.27 417.36 456.27 430.68 487.04 412.92 487.04 426.24 444.74 450.67 444.74 410.7"/></g></g><g class="cls-11"><g class="cls-12"><polyline class="cls-4" points="502.42 502.54 502.42 502.54 444.74 469.24 425.51 480.34 483.19 513.64"/><polyline class="cls-4" points="540.88 480.34 483.19 447.03 463.96 458.14 521.65 491.44"/><polyline class="cls-4" points="560.11 402.79 560.11 402.79 502.42 369.48 483.19 380.58 540.88 413.89"/><polyline class="cls-4" points="444.74 402.79 444.74 402.79 387.05 369.48 367.82 380.58 425.51 413.89"/><polyline class="cls-4" points="463.96 458.08 463.96 458.08 463.96 391.48 483.19 380.37 483.19 446.98"/><polyline class="cls-4" points="425.51 480.29 425.51 413.68 444.74 402.58 444.74 469.19"/></g><g class="cls-13"><polyline class="cls-4" points="387.05 502.54 387.05 502.54 329.37 469.24 310.14 480.34 367.82 513.64"/><polyline class="cls-4" points="425.51 480.34 367.82 447.03 348.6 458.14 406.28 491.44"/><polyline class="cls-4" points="406.28 557.84 406.28 557.84 406.28 491.23 425.51 480.13 425.51 546.74"/><polyline class="cls-4" points="444.74 402.79 444.74 402.79 387.05 369.48 367.82 380.58 425.51 413.89"/><polyline class="cls-4" points="329.37 402.79 329.37 402.79 271.68 369.48 252.45 380.58 310.14 413.89"/><polyline class="cls-4" points="348.6 458.08 348.6 458.08 348.6 391.48 367.82 380.37 367.82 446.98"/><polyline class="cls-4" points="310.14 480.29 310.14 413.68 329.37 402.58 329.37 469.19"/></g><g class="cls-14"><polyline class="cls-4" points="271.68 502.54 271.68 502.54 214 469.24 194.77 480.34 252.45 513.64"/><polyline class="cls-4" points="310.14 480.34 252.45 447.03 233.23 458.14 290.91 491.44"/><polyline class="cls-4" points="290.91 557.84 290.91 557.84 290.91 491.23 310.14 480.13 310.14 546.74"/><polyline class="cls-4" points="329.37 402.79 329.37 402.79 271.68 369.48 252.45 380.58 310.14 413.89"/><polyline class="cls-4" points="214 402.79 214 402.79 156.31 369.48 137.08 380.58 194.77 413.89"/><polyline class="cls-4" points="233.23 458.08 233.23 458.08 233.22 391.48 252.45 380.37 252.45 446.98"/><polyline class="cls-4" points="194.77 480.29 194.77 413.68 214 402.58 214 469.19"/></g><g class="cls-15"><polyline class="cls-4" points="156.31 502.54 156.31 502.54 98.63 469.24 79.4 480.34 137.08 513.64"/><polyline class="cls-4" points="194.77 480.34 137.08 447.03 117.86 458.14 175.54 491.44"/><polyline class="cls-4" points="175.54 557.84 175.54 557.84 175.54 491.23 194.77 480.13 194.77 546.74"/><polyline class="cls-4" points="214 402.79 214 402.79 156.31 369.48 137.08 380.58 194.77 413.89"/><polyline class="cls-4" points="98.63 402.79 98.63 402.79 40.94 369.48 21.71 380.58 79.4 413.89"/><polyline class="cls-4" points="117.86 458.08 117.86 458.08 117.86 391.48 137.08 380.37 137.08 446.98"/><polyline class="cls-4" points="79.4 480.29 79.4 413.68 98.63 402.58 98.63 469.19"/></g><g class="cls-16"><polyline class="cls-4" points="40.94 502.54 40.94 502.54 -16.74 469.24 -35.97 480.34 21.71 513.64"/><polyline class="cls-4" points="79.4 480.34 21.71 447.03 2.49 458.14 60.17 491.44"/><polyline class="cls-4" points="60.17 557.84 60.17 557.84 60.17 491.23 79.4 480.13 79.4 546.74"/><polyline class="cls-4" points="98.63 402.79 98.63 402.79 40.94 369.48 21.71 380.58 79.4 413.89"/><polyline class="cls-4" points="2.49 458.08 2.49 458.08 2.49 391.48 21.71 380.37 21.71 446.98"/></g></g><g class="cls-17"><g class="cls-18"><g class="cls-19"><polygon points="-19.84 55.13 -31.56 61.89 3.59 82.18 15.3 75.42 -19.84 55.13"/></g></g><g class="cls-20"><g class="cls-21"><polygon points="-19.84 176.87 -31.56 183.64 3.59 203.93 15.3 197.16 -19.84 176.87"/></g></g><g class="cls-22"><g class="cls-23"><polygon points="-19.84 298.62 -31.56 305.38 3.59 325.68 15.3 318.91 -19.84 298.62"/></g></g><g class="cls-24"><g class="cls-25"><polygon points="-19.84 420.37 -31.56 427.13 3.59 447.42 15.3 440.66 -19.84 420.37"/></g></g></g><g class="cls-27"><g class="cls-28"><polygon class="cls-4" points="442.51 524.66 376.55 486.57 376.55 507.35 424.52 535.04 424.52 555.81 376.55 528.12 376.55 548.89 442.51 586.97 442.51 524.66"/></g></g></svg>